{"glyphs":{"0":{"ha":711,"x_min":64,"x_max":646,"o":"m 498 319 l 498 567 q 355 781 498 781 q 212 567 212 781 l 212 319 q 356 104 212 104 q 498 319 498 104 m 646 545 l 646 341 q 570 77 646 169 q 356 -14 493 -14 q 141 77 218 -14 q 64 341 64 169 l 64 545 q 141 808 64 715 q 354 900 218 900 q 569 808 491 900 q 646 545 646 715 z "},"1":{"ha":711,"x_min":109,"x_max":438,"o":"m 438 0 l 290 0 l 290 748 l 109 748 l 109 857 l 438 888 l 438 0 z "},"2":{"ha":711,"x_min":50,"x_max":656,"o":"m 656 119 l 656 -1 l 66 -1 l 66 101 l 356 417 q 453 544 426 494 q 480 648 480 593 q 445 742 480 703 q 351 782 410 782 q 236 739 275 782 q 198 617 198 696 l 54 617 l 53 621 q 132 822 50 743 q 346 901 213 901 q 554 831 479 901 q 629 646 629 762 q 589 506 629 573 q 452 331 549 438 l 254 122 l 256 119 l 656 119 z "},"3":{"ha":711,"x_min":49,"x_max":638,"o":"m 238 393 l 238 510 l 341 510 q 444 545 412 510 q 477 645 477 579 q 442 746 477 711 q 344 781 408 781 q 243 747 281 781 q 205 656 205 712 l 62 656 l 61 660 q 137 831 58 762 q 344 900 216 900 q 549 834 472 900 q 625 647 625 768 q 590 535 625 588 q 492 454 554 483 q 602 374 566 428 q 638 248 638 321 q 556 56 638 127 q 343 -14 473 -14 q 131 53 212 -14 q 52 233 49 120 l 54 237 l 197 237 q 236 141 197 177 q 344 104 276 104 q 451 141 412 104 q 490 251 490 178 q 454 358 490 323 q 341 393 418 393 l 238 393 z "},"4":{"ha":711,"x_min":34,"x_max":680,"o":"m 419 317 l 419 677 l 416 679 l 404 652 l 180 317 l 419 317 m 567 888 l 567 317 l 680 317 l 680 197 l 567 197 l 567 0 l 419 0 l 419 197 l 38 197 l 34 288 l 414 888 l 567 888 z "},"5":{"ha":711,"x_min":79,"x_max":648,"o":"m 615 886 l 615 758 l 269 758 l 242 535 q 381 581 302 580 q 577 502 507 582 q 648 285 648 422 q 572 66 648 147 q 357 -15 496 -15 q 158 51 236 -15 q 83 233 79 117 l 83 236 l 222 241 q 259 141 222 177 q 361 104 296 104 q 463 152 427 104 q 500 281 500 199 q 462 413 500 363 q 361 463 424 463 q 267 444 298 463 q 223 386 237 425 l 94 395 l 146 886 l 615 886 z "},"6":{"ha":711,"x_min":70,"x_max":668,"o":"m 380 105 q 481 159 443 105 q 519 296 519 214 q 479 428 519 378 q 373 477 440 477 q 218 404 264 477 l 218 340 q 262 167 218 229 q 380 105 307 105 m 414 901 q 585 863 510 901 l 557 749 q 416 780 484 780 q 272 711 326 780 q 218 526 218 642 l 218 522 q 411 592 294 592 q 598 510 528 592 q 668 293 668 428 q 589 72 668 159 q 375 -14 509 -14 q 156 82 241 -14 q 71 347 71 178 l 71 517 l 70 517 q 166 795 70 690 q 414 901 263 901 z "},"7":{"ha":711,"x_min":42,"x_max":656,"o":"m 656 888 l 656 769 q 530 602 580 679 q 449 443 480 525 q 400 284 417 361 q 371 94 384 206 l 362 0 l 214 0 l 223 94 q 317 458 247 295 q 513 770 388 622 l 42 770 l 42 888 l 656 888 z "},"8":{"ha":711,"x_min":59,"x_max":650,"o":"m 208 248 q 208 214 208 248 q 248 143 208 181 q 355 104 288 104 q 463 143 422 104 q 503 248 503 182 q 461 354 503 313 q 354 395 420 395 q 248 355 289 395 q 208 248 208 315 m 231 648 q 231 617 231 648 q 264 550 231 587 q 355 514 298 514 q 446 551 412 514 q 479 647 479 587 q 445 744 479 707 q 354 781 410 781 q 264 745 297 781 q 231 648 231 709 m 82 653 q 156 835 82 770 q 354 900 229 900 q 553 835 479 900 q 628 653 628 770 q 592 534 628 586 q 492 454 556 483 q 608 370 566 426 q 650 241 650 314 q 570 52 650 119 q 355 -14 490 -14 q 139 52 220 -14 q 59 241 59 119 q 101 370 59 314 q 218 455 143 427 q 118 534 153 483 q 82 653 82 585 z "},"9":{"ha":711,"x_min":50,"x_max":638,"o":"m 314 104 q 444 164 396 104 q 491 335 491 223 l 491 376 q 323 293 429 293 q 122 373 195 293 q 50 590 50 453 q 131 813 50 726 q 336 900 213 900 q 557 808 476 900 q 638 549 638 717 l 638 340 q 549 80 638 174 q 314 -14 460 -14 q 130 22 212 -14 l 150 136 l 149 136 q 314 104 217 104 m 339 781 q 239 728 279 781 q 199 591 199 674 q 236 458 199 509 q 338 408 273 408 q 432 430 393 408 q 492 487 471 451 l 492 566 q 452 727 492 672 q 339 781 413 781 z "},"\r":{"ha":342,"x_min":0,"x_max":0,"o":""}," ":{"ha":353,"x_min":0,"x_max":0,"o":""},"!":{"ha":473,"x_min":155,"x_max":302,"o":"m 302 139 l 302 0 l 155 0 l 155 139 l 302 139 m 301 888 l 301 298 l 155 298 l 155 888 l 301 888 z "},"\"":{"ha":616,"x_min":127,"x_max":485,"o":"m 273 952 l 273 768 l 202 620 l 136 620 l 127 761 l 127 952 l 273 952 m 485 952 l 485 768 l 414 620 l 347 620 l 339 767 l 339 952 l 485 952 z "},"#":{"ha":763,"x_min":37,"x_max":718,"o":"m 37 250 l 37 347 l 196 347 l 231 538 l 83 538 l 83 635 l 250 635 l 297 888 l 399 888 l 351 635 l 488 635 l 536 888 l 638 888 l 591 635 l 718 635 l 718 538 l 572 538 l 537 347 l 672 347 l 672 250 l 519 250 l 473 0 l 370 0 l 417 250 l 279 250 l 233 0 l 132 0 l 178 250 l 37 250 m 333 538 l 298 347 l 435 347 l 471 538 l 333 538 z "},"$":{"ha":711,"x_min":62,"x_max":649,"o":"m 358 94 q 463 126 426 94 q 500 214 500 159 q 467 302 500 269 q 353 365 433 336 q 157 473 219 410 q 96 639 96 536 q 157 807 96 742 q 325 884 218 872 l 325 1017 l 422 1017 l 422 883 q 587 793 528 867 q 645 598 645 720 l 497 598 q 463 719 497 675 q 368 764 429 764 q 276 731 308 764 q 244 643 244 699 q 277 555 244 588 q 395 493 309 523 q 589 383 529 444 q 649 217 649 321 q 586 50 649 113 q 410 -24 523 -13 l 410 -144 l 313 -144 l 313 -25 q 129 57 197 -13 q 64 253 62 127 l 65 256 l 210 256 q 250 134 210 173 q 357 95 290 95 l 358 94 z "},"%":{"ha":918,"x_min":61,"x_max":865,"o":"m 591 216 l 591 169 q 615 101 591 128 q 679 75 638 75 q 740 100 719 75 q 762 169 762 126 l 762 216 q 739 284 762 258 q 677 311 717 311 q 614 284 637 311 q 591 216 591 258 m 488 169 l 488 216 q 539 348 488 296 q 676 399 590 399 q 814 348 763 399 q 865 216 865 296 l 865 169 q 814 37 865 88 q 677 -14 764 -14 q 539 37 591 -14 q 488 169 488 89 m 715 760 l 281 65 l 205 109 l 638 804 l 715 760 m 164 716 l 164 669 q 187 602 164 628 q 250 576 210 576 q 312 602 290 576 q 334 669 334 629 l 334 716 q 311 784 334 758 q 249 811 288 811 q 187 784 210 811 q 164 716 164 758 m 61 669 l 61 716 q 112 848 61 797 q 249 900 163 900 q 387 848 336 900 q 437 716 437 797 l 437 669 q 387 538 437 589 q 250 487 336 487 q 112 538 163 487 q 61 669 61 589 z "},"&":{"ha":799,"x_min":38,"x_max":773,"o":"m 328 -14 l 328 -15 q 117 55 195 -15 q 38 238 38 124 q 77 363 38 309 q 204 475 117 417 q 137 582 158 535 q 115 675 115 628 q 178 840 115 780 q 342 900 241 900 q 505 843 444 900 q 566 701 566 785 q 536 596 566 643 q 446 506 507 550 l 385 462 l 571 241 q 623 422 623 323 l 743 422 q 654 143 743 252 l 773 1 l 772 -1 l 605 -1 l 555 56 q 328 -14 453 -14 m 260 370 q 186 247 186 314 q 225 142 186 180 q 337 104 264 104 q 478 148 410 104 l 278 384 l 260 370 m 442 697 q 442 714 442 697 q 415 756 442 730 q 346 781 389 781 q 279 752 304 781 q 254 674 254 724 q 314 548 254 624 l 383 594 q 430 640 417 616 q 442 697 442 664 z "},"'":{"ha":405,"x_min":127,"x_max":273,"o":"m 273 952 l 273 806 l 202 631 l 136 631 l 127 793 l 127 952 l 273 952 z "},"(":{"ha":576,"x_min":134,"x_max":466,"o":"m 134 352 l 134 363 q 159 586 134 479 q 228 772 185 693 q 325 909 271 852 q 435 994 378 966 l 439 993 l 466 915 q 322 705 378 847 q 267 363 267 563 l 267 352 q 322 11 267 153 q 466 -203 377 -131 l 439 -279 l 435 -279 q 325 -194 378 -251 q 228 -58 271 -137 q 159 129 185 22 q 134 352 134 236 z "},")":{"ha":576,"x_min":110,"x_max":447,"o":"m 447 361 l 447 353 q 430 172 447 260 q 382 14 412 84 q 313 -117 353 -57 q 141 -279 235 -233 l 138 -279 l 110 -203 q 253 7 197 -136 q 309 351 309 151 l 309 363 q 252 703 309 559 q 110 917 195 847 l 138 992 l 141 992 q 252 907 198 965 q 350 770 307 850 q 420 583 394 690 q 447 361 447 475 z "},"*":{"ha":547,"x_min":16,"x_max":528,"o":"m 75 468 l 199 633 l 16 688 l 49 791 l 229 720 l 222 929 l 328 929 l 319 715 l 496 785 l 528 681 l 344 627 l 463 465 l 376 401 l 269 576 l 162 406 l 75 468 z "},"+":{"ha":696,"x_min":41,"x_max":650,"o":"m 418 746 l 418 499 l 650 499 l 650 363 l 418 363 l 418 99 l 275 99 l 275 363 l 41 363 l 41 499 l 275 499 l 275 746 l 418 746 z "},",":{"ha":282,"x_min":33,"x_max":222,"o":"m 222 126 l 222 0 l 127 -191 l 33 -191 l 76 5 l 76 126 l 222 126 z "},"-":{"ha":410,"x_min":43,"x_max":363,"o":"m 363 473 l 363 353 l 43 353 l 43 473 l 363 473 z "},".":{"ha":349,"x_min":94,"x_max":241,"o":"m 241 142 l 241 0 l 94 0 l 94 142 l 241 142 z "},"/":{"ha":512,"x_min":1,"x_max":487,"o":"m 487 880 l 138 -85 l 1 -85 l 351 880 l 487 880 z "},":":{"ha":335,"x_min":84,"x_max":217,"o":"m 217 128 l 217 0 l 84 0 l 84 128 l 217 128 m 217 663 l 217 534 l 84 534 l 84 663 l 217 663 z "},";":{"ha":332,"x_min":61,"x_max":231,"o":"m 231 94 l 231 -19 l 145 -191 l 61 -191 l 100 -14 l 100 94 l 231 94 m 218 644 l 218 515 l 85 515 l 85 644 l 218 644 z "},"<":{"ha":635,"x_min":39,"x_max":549,"o":"m 549 483 l 197 347 l 185 345 l 185 342 l 197 340 l 549 207 l 549 58 l 39 286 l 39 404 l 549 630 l 549 483 z "},"=":{"ha":711,"x_min":89,"x_max":614,"o":"m 614 371 l 614 248 l 89 248 l 89 371 l 614 371 m 614 630 l 614 507 l 89 507 l 89 630 l 614 630 z "},">":{"ha":650,"x_min":78,"x_max":606,"o":"m 448 349 l 78 484 l 78 630 l 606 404 l 606 286 l 78 58 l 78 204 l 448 342 l 458 343 l 459 347 l 448 349 z "},"?":{"ha":786,"x_min":125,"x_max":663,"o":"m 455 138 l 455 0 l 306 0 l 306 138 l 455 138 m 452 252 l 306 252 q 315 345 307 312 q 344 403 323 378 q 412 469 364 429 q 495 569 473 532 q 517 662 517 606 q 485 750 517 717 q 395 784 452 784 q 304 754 338 784 q 270 671 270 725 l 130 671 l 127 674 q 199 841 125 780 q 396 902 272 902 q 592 838 521 902 q 663 658 663 773 q 623 520 663 584 q 505 391 582 456 q 461 334 471 361 q 452 252 452 308 z "},"@":{"ha":1114,"x_min":45,"x_max":1065,"o":"m 600 475 l 600 475 q 490 414 528 475 q 440 224 452 352 q 513 58 428 58 q 633 127 591 58 q 663 463 633 132 q 600 475 631 475 m 583 838 q 941 690 817 838 q 1056 279 1065 541 q 981 52 1050 142 q 893 -18 947 7 q 770 -43 839 -43 q 691 -18 724 -43 q 644 55 658 7 q 474 -42 585 -42 q 349 31 393 -42 q 317 223 306 104 q 402 475 332 380 q 575 569 473 569 q 680 554 639 569 q 773 504 720 540 l 772 502 l 774 502 l 743 148 q 796 40 735 40 q 912 106 869 40 q 961 279 956 172 q 875 630 971 507 q 581 753 779 753 q 282 620 394 753 q 161 261 170 487 q 250 -91 149 37 q 541 -218 351 -218 q 649 -206 594 -218 q 743 -174 704 -194 l 766 -253 q 664 -293 726 -278 q 539 -307 602 -307 q 174 -156 302 -307 q 56 261 45 -5 q 129 565 62 434 q 313 767 195 695 q 583 838 430 838 z "},"A":{"ha":806,"x_min":9,"x_max":800,"o":"m 649 0 l 578 208 l 231 208 l 160 0 l 9 0 l 336 888 l 477 888 l 800 0 l 649 0 m 404 711 l 273 332 l 536 332 l 408 711 l 404 711 z "},"B":{"ha":801,"x_min":97,"x_max":740,"o":"m 449 404 l 245 404 l 245 119 l 432 119 q 551 154 510 119 q 592 255 592 189 q 449 404 592 404 m 245 770 l 245 515 l 409 515 q 519 547 479 515 q 558 640 558 580 q 393 770 558 770 l 245 770 m 432 0 l 97 0 l 97 888 l 393 888 q 625 827 543 888 q 706 646 706 766 q 671 538 706 586 q 575 467 637 491 q 697 392 654 450 q 740 255 740 335 q 659 65 740 131 q 432 0 578 0 z "},"C":{"ha":795,"x_min":64,"x_max":749,"o":"m 602 294 l 745 294 l 747 290 q 659 69 749 153 q 414 -14 568 -14 q 162 90 259 -14 q 64 358 64 194 l 64 527 q 161 795 64 691 q 413 900 257 900 q 659 818 569 900 q 747 595 749 735 l 746 591 l 602 591 q 553 732 602 682 q 413 781 505 781 q 267 710 321 781 q 213 528 213 639 l 213 358 q 268 175 213 246 q 415 104 323 104 q 555 153 507 104 q 602 294 602 201 z "},"D":{"ha":821,"x_min":97,"x_max":766,"o":"m 381 770 l 245 770 l 245 119 l 381 119 q 554 190 490 119 q 618 376 618 260 l 618 513 q 554 699 618 628 q 381 770 490 770 m 385 0 l 97 0 l 97 888 l 385 888 q 661 783 555 888 q 766 511 766 678 l 766 376 q 661 105 766 210 q 385 0 555 0 z "},"E":{"ha":724,"x_min":97,"x_max":696,"o":"m 634 519 l 634 400 l 245 400 l 245 119 l 696 119 l 696 0 l 97 0 l 97 888 l 692 888 l 692 770 l 245 770 l 245 519 l 634 519 z "},"F":{"ha":725,"x_min":97,"x_max":697,"o":"m 635 498 l 635 379 l 245 379 l 245 0 l 97 0 l 97 888 l 697 888 l 697 770 l 245 770 l 245 498 l 635 498 z "},"G":{"ha":844,"x_min":66,"x_max":760,"o":"m 435 -14 q 170 87 273 -14 q 66 350 66 189 l 66 536 q 164 799 66 698 q 417 900 262 900 q 661 824 573 900 q 750 622 748 749 l 749 618 l 608 618 q 556 738 604 694 q 418 781 508 781 q 272 713 328 781 q 215 537 215 644 l 215 350 q 276 173 215 241 q 435 104 338 104 q 611 159 563 104 l 611 339 l 435 339 l 435 450 l 760 450 l 759 119 q 636 24 718 62 q 435 -14 553 -14 z "},"H":{"ha":888,"x_min":97,"x_max":791,"o":"m 791 888 l 791 0 l 644 0 l 644 379 l 245 379 l 245 0 l 97 0 l 97 888 l 245 888 l 245 498 l 644 498 l 644 888 l 791 888 z "},"I":{"ha":359,"x_min":106,"x_max":254,"o":"m 254 888 l 254 0 l 106 0 l 106 888 l 254 888 z "},"J":{"ha":701,"x_min":36,"x_max":609,"o":"m 461 256 l 461 887 l 609 887 l 609 256 q 531 59 609 132 q 321 -14 452 -14 q 113 53 189 -14 q 39 247 36 121 l 40 251 l 184 251 q 326 104 184 104 q 424 145 386 104 q 461 256 461 186 z "},"K":{"ha":806,"x_min":97,"x_max":810,"o":"m 245 385 l 245 0 l 97 0 l 97 888 l 245 888 l 245 512 l 330 512 l 609 888 l 785 888 l 461 465 l 810 0 l 629 0 l 348 385 l 245 385 z "},"L":{"ha":676,"x_min":97,"x_max":654,"o":"m 245 888 l 245 119 l 654 119 l 654 0 l 97 0 l 97 888 l 245 888 z "},"M":{"ha":1095,"x_min":97,"x_max":998,"o":"m 97 888 l 290 888 l 545 205 l 549 205 l 805 888 l 998 888 l 998 0 l 849 0 l 849 302 l 864 688 l 860 688 l 596 0 l 497 0 l 235 687 l 231 686 l 245 302 l 245 0 l 97 0 l 97 888 z "},"N":{"ha":888,"x_min":97,"x_max":791,"o":"m 791 888 l 791 0 l 644 0 l 249 649 l 245 648 l 245 0 l 97 0 l 97 888 l 245 888 l 640 241 l 644 241 l 644 888 l 791 888 z "},"O":{"ha":853,"x_min":63,"x_max":790,"o":"m 642 363 l 642 524 q 582 708 642 637 q 424 778 522 778 q 268 708 325 778 q 211 524 211 637 l 211 363 q 268 178 211 249 q 424 107 325 107 q 583 178 524 107 q 642 363 642 248 m 790 523 l 790 363 q 688 92 790 198 q 424 -14 585 -14 q 163 92 263 -14 q 63 363 63 198 l 63 523 q 163 793 63 687 q 422 900 263 900 q 613 851 529 900 q 744 716 698 802 q 790 523 790 631 z "},"P":{"ha":808,"x_min":97,"x_max":758,"o":"m 245 770 l 245 456 l 444 456 q 567 498 525 456 q 610 612 610 541 q 567 726 610 683 q 444 770 524 770 l 245 770 m 444 337 l 245 337 l 245 0 l 97 0 l 97 888 l 444 888 q 674 813 591 888 q 758 612 758 739 q 675 412 758 486 q 444 337 591 337 z "},"Q":{"ha":863,"x_min":63,"x_max":830,"o":"m 642 349 l 642 510 q 582 693 642 623 q 424 764 522 764 q 268 693 325 764 q 211 510 211 623 l 211 349 q 268 163 211 234 q 424 93 325 93 q 583 163 524 93 q 642 349 642 233 m 790 509 l 790 349 q 682 73 790 181 l 830 -71 l 731 -159 l 568 -3 q 422 -28 500 -28 q 163 78 263 -28 q 63 349 63 184 l 63 509 q 163 779 63 673 q 422 886 263 886 q 613 837 529 886 q 744 702 698 788 q 790 509 790 616 z "},"R":{"ha":827,"x_min":97,"x_max":781,"o":"m 443 369 l 245 369 l 245 0 l 97 0 l 97 888 l 425 888 q 656 822 575 888 q 736 630 736 755 q 597 431 736 492 q 738 221 738 387 l 738 147 q 781 14 738 50 l 781 0 l 628 0 q 589 149 589 33 l 589 220 q 550 329 589 289 q 443 369 511 369 m 245 770 l 245 488 l 418 488 q 548 522 507 488 q 589 625 589 555 q 548 732 589 695 q 425 770 507 770 l 245 770 z "},"S":{"ha":786,"x_min":57,"x_max":728,"o":"m 406 103 q 533 136 488 103 q 579 226 579 169 q 537 318 579 283 q 393 381 496 353 q 160 487 237 422 q 83 657 83 552 q 172 831 83 762 q 403 900 260 900 q 635 823 545 900 q 722 632 725 745 l 721 629 l 578 629 q 532 740 578 699 q 402 782 485 782 q 276 747 320 782 q 231 658 231 712 q 278 571 231 604 q 435 507 325 538 q 655 400 582 468 q 728 224 728 332 q 640 52 728 117 q 406 -14 551 -14 q 272 5 336 -14 q 161 59 209 24 q 85 146 113 94 q 58 261 57 199 l 60 264 l 203 264 q 257 145 203 186 q 405 104 311 104 l 406 103 z "},"T":{"ha":724,"x_min":19,"x_max":705,"o":"m 705 888 l 705 770 l 436 770 l 436 0 l 288 0 l 288 770 l 19 770 l 19 888 l 705 888 z "},"U":{"ha":852,"x_min":82,"x_max":773,"o":"m 624 887 l 773 887 l 773 292 q 679 66 773 146 q 426 -14 584 -14 q 175 66 268 -14 q 82 292 82 146 l 82 887 l 230 887 l 230 292 q 281 152 230 199 q 425 104 332 104 q 571 152 518 104 q 624 292 624 199 l 624 887 z "},"V":{"ha":793,"x_min":9,"x_max":785,"o":"m 168 888 l 379 233 l 395 171 l 399 171 l 414 231 l 626 888 l 785 888 l 467 0 l 326 0 l 9 888 l 168 888 z "},"W":{"ha":1106,"x_min":24,"x_max":1076,"o":"m 170 888 l 313 237 l 491 888 l 609 888 l 789 233 l 930 888 l 1076 888 l 865 0 l 730 0 l 553 638 l 549 638 l 370 0 l 235 0 l 24 888 l 170 888 z "},"X":{"ha":793,"x_min":31,"x_max":770,"o":"m 211 888 l 397 560 l 584 888 l 760 888 l 486 448 l 770 0 l 592 0 l 399 334 l 206 0 l 31 0 l 310 448 l 37 888 l 211 888 z "},"Y":{"ha":775,"x_min":8,"x_max":767,"o":"m 459 0 l 311 0 l 311 320 l 8 888 l 174 888 l 387 456 l 602 888 l 767 888 l 459 312 l 459 0 z "},"Z":{"ha":742,"x_min":54,"x_max":694,"o":"m 694 119 l 694 0 l 54 0 l 54 93 l 500 770 l 58 770 l 58 888 l 679 888 l 679 800 l 230 119 l 694 119 z "},"[":{"ha":490,"x_min":136,"x_max":385,"o":"m 385 1023 l 385 912 l 282 912 l 282 -86 l 385 -86 l 385 -197 l 136 -197 l 136 1023 l 385 1023 z "},"\\":{"ha":522,"x_min":13,"x_max":528,"o":"m 384 -85 l 13 880 l 157 880 l 528 -85 l 384 -85 z "},"]":{"ha":490,"x_min":106,"x_max":354,"o":"m 106 912 l 106 1023 l 354 1023 l 354 -197 l 106 -197 l 106 -86 l 208 -86 l 208 912 l 106 912 z "},"^":{"ha":534,"x_min":33,"x_max":501,"o":"m 257 747 l 158 494 l 33 494 l 215 938 l 319 938 l 501 494 l 376 494 l 275 747 l 268 779 l 264 779 l 257 747 z "},"_":{"ha":564,"x_min":2,"x_max":562,"o":"m 562 -13 l 562 -130 l 2 -130 l 2 -13 l 562 -13 z "},"`":{"ha":403,"x_min":49,"x_max":327,"o":"m 214 984 l 327 822 l 207 822 l 49 981 l 50 984 l 214 984 z "},"a":{"ha":680,"x_min":51,"x_max":627,"o":"m 264 -14 q 106 38 162 -14 q 51 186 51 91 q 126 334 51 281 q 340 387 201 387 l 455 387 l 455 446 q 425 527 455 498 q 340 556 394 556 q 256 532 286 556 q 226 469 226 508 l 83 469 l 82 472 q 153 612 78 553 q 347 671 229 671 q 534 612 465 671 q 603 444 603 553 l 603 151 q 627 -1 603 69 l 476 -2 q 456 95 460 50 q 374 16 423 46 q 264 -14 324 -14 m 199 187 l 199 187 q 224 127 199 149 q 299 105 249 105 q 394 132 349 105 q 454 197 439 159 l 454 294 l 336 294 q 236 263 274 294 q 199 187 199 233 z "},"b":{"ha":708,"x_min":78,"x_max":658,"o":"m 361 550 q 226 467 267 550 l 226 190 q 363 106 266 106 q 474 159 438 106 q 510 307 510 211 l 509 319 q 473 489 509 427 q 361 550 436 550 m 658 319 l 658 307 q 590 73 658 159 q 401 -14 522 -14 q 217 84 279 -14 l 203 -1 l 78 -1 l 78 951 l 227 951 l 227 584 q 399 671 290 671 q 590 576 522 671 q 658 319 658 481 z "},"c":{"ha":656,"x_min":49,"x_max":618,"o":"m 198 318 l 197 318 q 351 104 197 104 q 442 136 406 104 q 479 216 479 168 l 613 216 l 614 213 q 539 53 618 120 q 351 -14 461 -14 q 128 77 208 -14 q 49 318 49 169 l 49 339 q 128 579 49 488 q 351 671 208 671 q 544 602 470 671 q 616 426 618 533 l 614 422 l 479 422 q 444 515 479 478 q 351 552 408 552 q 235 495 271 552 q 198 339 198 438 l 198 318 z "},"d":{"ha":708,"x_min":51,"x_max":627,"o":"m 51 307 l 51 319 q 119 576 51 480 q 309 671 187 671 q 479 587 414 671 l 479 951 l 627 951 l 627 -1 l 503 -1 l 488 81 q 305 -14 422 -14 q 119 73 187 -14 q 51 307 51 160 m 199 319 l 199 307 q 235 159 199 212 q 345 106 271 106 q 479 184 435 106 l 479 472 q 347 550 434 550 q 236 488 273 550 q 199 319 199 427 z "},"e":{"ha":662,"x_min":54,"x_max":620,"o":"m 474 410 q 441 513 474 475 q 350 552 408 552 q 255 510 291 552 q 211 398 219 467 l 212 395 l 474 395 l 474 410 m 604 64 q 368 -14 513 -14 q 138 77 222 -14 q 54 313 54 168 l 54 338 q 137 577 54 483 q 348 672 219 672 q 548 592 477 671 q 620 374 620 512 l 620 286 l 208 286 l 207 283 q 254 153 211 202 q 370 104 297 104 q 471 118 429 104 q 555 161 513 132 l 603 64 l 604 64 z "},"f":{"ha":439,"x_min":25,"x_max":446,"o":"m 275 0 l 125 0 l 125 551 l 25 551 l 25 661 l 125 661 l 125 737 q 185 906 125 846 q 352 965 244 965 q 446 952 388 965 l 431 838 q 371 844 394 844 q 275 737 275 844 l 275 661 l 409 661 l 409 551 l 275 551 l 275 0 z "},"g":{"ha":708,"x_min":52,"x_max":631,"o":"m 52 292 q 121 547 52 452 q 310 643 191 643 q 492 545 429 643 l 507 631 l 631 631 l 631 -30 q 552 -227 631 -158 q 328 -296 474 -296 q 224 -283 279 -296 q 123 -246 169 -269 l 155 -130 q 320 -170 233 -170 q 445 -136 408 -170 q 482 -30 482 -102 l 482 38 q 311 -43 418 -43 q 121 45 190 -43 q 52 279 52 132 l 52 292 m 199 292 l 199 279 q 237 132 199 184 q 349 79 274 79 q 481 155 440 79 l 481 445 q 350 522 438 522 q 237 459 275 522 q 199 292 199 397 z "},"h":{"ha":708,"x_min":77,"x_max":633,"o":"m 225 575 q 407 673 296 673 q 575 606 518 673 q 633 402 633 538 l 633 0 l 485 0 l 485 404 q 454 516 485 481 q 360 551 424 551 q 224 484 274 551 l 224 0 l 77 0 l 77 952 l 224 952 l 225 575 z "},"i":{"ha":324,"x_min":88,"x_max":236,"o":"m 236 661 l 236 0 l 88 0 l 88 661 l 236 661 m 236 952 l 236 822 l 88 822 l 88 952 l 236 952 z "},"j":{"ha":328,"x_min":-48,"x_max":243,"o":"m 95 631 l 243 631 l 243 -68 q 187 -237 243 -178 q 28 -296 131 -296 q -48 -286 -12 -296 l -39 -168 q 14 -175 -18 -175 q 95 -68 95 -175 l 95 631 m 239 922 l 239 793 l 91 793 l 91 922 l 239 922 z "},"k":{"ha":654,"x_min":79,"x_max":662,"o":"m 227 289 l 227 0 l 79 0 l 79 952 l 227 952 l 227 408 l 288 408 l 455 661 l 629 661 l 412 360 l 662 0 l 490 0 l 293 289 l 227 289 z "},"l":{"ha":324,"x_min":88,"x_max":236,"o":"m 236 952 l 236 0 l 88 0 l 88 952 l 236 952 z "},"m":{"ha":1087,"x_min":78,"x_max":1008,"o":"m 616 456 l 617 428 l 617 0 l 469 0 l 469 399 q 440 515 469 478 q 352 551 411 551 q 227 485 265 551 l 227 0 l 78 0 l 78 661 l 213 661 l 221 574 q 418 673 288 673 q 595 555 549 673 q 793 673 660 673 q 952 604 896 673 q 1008 398 1008 534 l 1008 0 l 860 0 l 860 399 q 832 516 860 481 q 744 551 804 551 q 664 526 697 551 q 616 456 631 501 z "},"n":{"ha":708,"x_min":77,"x_max":632,"o":"m 413 673 q 575 609 519 673 q 632 415 632 545 l 632 0 l 484 0 l 484 414 q 453 519 484 488 q 359 551 423 551 q 225 479 273 551 l 225 0 l 77 0 l 77 661 l 212 660 l 221 564 q 413 673 290 673 z "},"o":{"ha":708,"x_min":50,"x_max":656,"o":"m 199 321 q 237 163 199 223 q 353 103 275 103 q 470 163 432 103 q 509 321 509 224 l 509 334 q 470 489 509 429 q 353 551 432 551 q 236 490 275 551 q 198 334 198 429 l 199 321 m 50 334 q 131 576 50 481 q 353 671 212 671 q 575 576 494 671 q 656 335 656 483 l 656 322 q 575 80 656 173 q 352 -14 494 -14 q 132 81 211 -14 q 51 322 51 174 l 50 334 z "},"p":{"ha":708,"x_min":78,"x_max":656,"o":"m 656 293 l 656 280 q 589 46 656 134 q 405 -41 521 -41 q 227 39 290 -41 l 227 -282 l 78 -282 l 78 632 l 203 632 l 218 549 q 402 644 283 644 q 588 549 520 644 q 656 293 656 454 m 509 280 l 509 293 q 470 460 509 398 q 357 523 431 523 q 227 448 268 523 l 227 149 q 358 77 268 77 q 471 132 433 77 q 509 280 509 186 z "},"q":{"ha":708,"x_min":51,"x_max":623,"o":"m 199 293 l 199 280 q 235 131 199 184 q 345 77 271 77 q 474 148 433 77 l 474 455 q 347 526 431 526 q 236 463 273 526 q 199 293 199 400 m 51 280 l 51 293 q 119 549 51 454 q 304 644 187 644 q 486 552 420 644 l 503 632 l 623 632 l 623 -282 l 474 -282 l 474 34 q 308 -41 414 -41 q 119 46 187 -41 q 51 280 51 134 z "},"r":{"ha":433,"x_min":77,"x_max":425,"o":"m 226 0 l 77 0 l 77 661 l 213 661 l 222 565 q 378 673 277 673 q 425 665 404 673 l 406 527 l 343 529 q 226 459 258 529 l 226 0 z "},"s":{"ha":650,"x_min":51,"x_max":596,"o":"m 330 96 q 419 117 388 96 q 450 176 450 139 q 419 235 450 212 q 311 274 389 257 q 130 347 189 300 q 71 475 71 393 q 142 614 71 556 q 330 671 213 671 q 518 613 447 671 q 587 465 590 554 l 585 460 l 444 460 q 412 532 444 503 q 327 560 380 560 q 246 537 275 560 q 217 477 217 513 q 244 421 217 441 q 351 386 272 401 q 537 312 478 359 q 596 186 596 265 q 523 41 596 96 q 326 -14 450 -14 q 127 50 203 -14 q 54 203 51 113 l 56 207 l 193 207 q 233 124 196 151 q 330 97 270 97 l 330 96 z "},"t":{"ha":435,"x_min":14,"x_max":389,"o":"m 115 819 l 263 819 l 263 659 l 382 659 l 382 549 l 263 549 l 263 184 q 328 109 263 109 q 374 117 353 109 l 389 7 q 290 -14 348 -14 q 115 184 115 -14 l 115 549 l 14 549 l 14 659 l 115 659 l 115 819 z "},"u":{"ha":708,"x_min":75,"x_max":631,"o":"m 300 -14 q 133 55 191 -14 q 75 264 75 123 l 75 659 l 222 659 l 222 263 q 249 142 222 178 q 335 106 276 106 q 483 182 439 106 l 483 659 l 631 659 l 631 -1 l 502 -1 l 489 95 q 300 -14 423 -14 z "},"v":{"ha":633,"x_min":20,"x_max":618,"o":"m 173 661 l 308 223 l 319 170 l 322 170 l 334 223 l 465 661 l 618 661 l 384 0 l 255 0 l 20 661 l 173 661 z "},"w":{"ha":934,"x_min":22,"x_max":908,"o":"m 519 661 l 659 191 l 663 191 l 766 661 l 908 661 l 728 0 l 606 0 l 465 457 l 464 451 l 325 0 l 203 0 l 22 661 l 165 661 l 271 198 l 274 197 l 412 661 l 519 661 z "},"x":{"ha":633,"x_min":20,"x_max":614,"o":"m 195 661 l 315 434 l 437 661 l 608 661 l 400 334 l 614 0 l 445 0 l 317 232 l 190 0 l 20 0 l 234 334 l 26 661 l 195 661 z "},"y":{"ha":633,"x_min":9,"x_max":623,"o":"m 141 -296 q 61 -284 114 -296 l 77 -170 q 122 -172 121 -172 q 225 -81 188 -172 l 250 -22 l 9 631 l 172 631 l 298 235 l 313 170 l 316 170 l 461 631 l 623 631 l 350 -130 q 271 -252 320 -208 q 141 -296 222 -296 z "},"z":{"ha":633,"x_min":52,"x_max":589,"o":"m 589 119 l 589 0 l 52 0 l 52 97 l 385 541 l 58 541 l 58 661 l 572 661 l 572 566 l 235 119 l 589 119 z "},"{":{"ha":570,"x_min":90,"x_max":456,"o":"m 208 62 l 208 186 q 178 289 208 253 q 90 324 149 324 l 90 428 q 178 463 149 428 q 208 565 208 498 l 208 690 q 260 870 208 800 q 427 974 311 941 l 456 892 q 372 822 397 872 q 346 690 346 771 l 346 565 q 239 376 346 431 q 346 186 346 321 l 346 62 q 456 -138 346 -101 l 427 -222 q 260 -118 311 -189 q 208 62 208 -47 z "},"|":{"ha":422,"x_min":161,"x_max":262,"o":"m 262 888 l 262 -165 l 161 -165 l 161 888 l 262 888 z "},"}":{"ha":571,"x_min":115,"x_max":482,"o":"m 226 62 l 226 187 q 338 376 226 325 q 226 566 226 427 l 226 691 q 115 892 226 854 l 144 975 q 311 871 258 942 q 363 691 363 800 l 363 566 q 482 429 363 429 l 482 325 q 363 187 363 325 l 363 62 q 311 -117 363 -46 q 144 -222 258 -189 l 115 -138 q 226 62 226 -100 z "},"~":{"ha":831,"x_min":72,"x_max":761,"o":"m 572 262 q 476 282 520 262 q 379 345 432 301 q 264 400 315 400 q 201 369 227 400 q 176 294 176 338 l 72 307 q 125 462 72 400 q 260 524 178 524 q 357 504 311 524 q 445 448 403 484 q 512 399 486 412 q 570 387 538 387 q 629 420 602 387 q 655 498 655 453 l 761 484 q 707 327 761 391 q 572 262 653 262 z "}," ":{"ha":353,"x_min":0,"x_max":0,"o":""},"¡":{"ha":331,"x_min":82,"x_max":250,"o":"m 89 -247 l 104 379 l 231 379 l 246 -247 l 89 -247 m 82 568 q 82 585 82 568 q 104 625 82 603 q 166 648 127 648 q 227 625 205 648 q 250 568 250 603 q 227 511 250 533 q 165 488 205 488 q 104 511 126 488 q 82 568 82 533 z "},"¢":{"ha":701,"x_min":61,"x_max":631,"o":"m 361 92 q 452 123 415 92 q 492 204 488 155 l 631 204 q 569 58 629 121 q 419 -22 510 -4 l 419 -165 l 297 -165 l 297 -22 q 123 86 185 -1 q 61 308 61 173 l 61 325 q 123 543 61 456 q 297 651 186 631 l 297 789 l 419 789 l 419 652 q 572 569 516 635 q 631 407 629 504 l 492 407 q 452 502 488 467 q 360 537 416 537 q 210 347 219 537 l 210 302 q 361 92 210 92 z "},"£":{"ha":736,"x_min":58,"x_max":701,"o":"m 496 365 l 311 365 l 315 258 q 276 123 315 174 l 701 123 l 700 0 l 60 0 l 60 123 l 110 123 q 147 163 134 129 q 160 252 160 197 l 156 365 l 58 365 l 58 486 l 152 486 l 147 634 q 223 829 147 758 q 423 901 298 901 q 618 834 547 901 q 689 655 689 768 l 540 655 q 508 745 540 713 q 420 777 476 777 q 332 738 363 777 q 301 634 301 699 l 307 486 l 496 486 l 496 365 z "},"¤":{"ha":877,"x_min":56,"x_max":829,"o":"m 314 602 q 285 584 314 602 q 223 504 256 566 q 190 369 190 442 q 223 233 190 296 q 315 134 256 170 q 440 99 373 98 q 565 135 507 99 q 656 233 623 171 q 690 369 690 296 q 657 504 690 442 q 566 602 624 566 q 440 638 507 638 q 314 602 372 638 m 661 64 q 441 -14 565 -14 q 220 63 317 -14 l 142 -18 l 56 71 l 138 154 q 77 371 77 250 q 143 592 77 492 l 56 682 l 142 770 l 228 681 q 441 751 323 751 q 654 680 559 751 l 743 770 l 829 682 l 739 589 q 804 372 804 492 q 745 156 804 252 l 829 71 l 743 -18 l 661 64 z "},"¥":{"ha":762,"x_min":16,"x_max":742,"o":"m 667 453 l 667 360 l 454 360 l 454 276 l 667 276 l 667 184 l 454 184 l 454 0 l 300 0 l 300 184 l 83 184 l 83 276 l 300 276 l 300 360 l 83 360 l 83 453 l 255 453 l 16 888 l 186 888 l 379 500 l 571 888 l 742 888 l 503 453 l 667 453 z "},"¦":{"ha":310,"x_min":83,"x_max":223,"o":"m 223 -183 l 83 -183 l 83 302 l 223 302 l 223 -183 m 223 870 l 223 408 l 83 408 l 83 870 l 223 870 z "},"§":{"ha":777,"x_min":56,"x_max":711,"o":"m 711 246 q 607 79 711 134 q 689 -91 689 18 q 607 -260 689 -199 q 377 -320 525 -320 q 142 -254 229 -320 q 56 -61 56 -187 l 203 -60 q 251 -164 203 -127 q 377 -201 298 -201 q 498 -173 456 -201 q 541 -96 541 -144 q 501 -21 541 -48 q 346 41 461 7 q 174 106 232 73 q 86 186 115 139 q 58 300 58 235 q 161 467 58 413 q 100 540 120 498 q 80 642 80 581 q 164 808 80 746 q 392 870 248 870 q 617 802 536 870 q 699 608 699 734 l 550 608 q 506 712 550 673 q 388 751 462 751 q 271 723 313 751 q 229 643 229 694 q 244 586 229 608 q 299 546 259 564 q 437 502 339 528 q 595 441 536 475 q 684 359 655 407 l 684 359 q 711 246 711 312 m 205 309 q 235 234 205 260 q 357 178 265 208 l 466 146 l 494 136 q 564 236 564 164 l 565 237 q 524 315 565 286 q 368 379 483 345 q 271 409 326 390 q 205 309 205 385 z "},"¨":{"ha":550,"x_min":57,"x_max":490,"o":"m 490 918 q 490 902 490 918 q 469 866 490 886 q 413 846 448 846 q 356 866 377 846 q 335 918 335 886 q 356 969 335 949 q 413 989 377 989 q 469 969 448 989 q 490 918 490 949 m 190 867 q 179 857 190 867 q 134 846 169 846 q 78 867 98 846 q 57 918 57 887 q 78 970 57 949 q 134 990 98 990 q 190 970 169 990 q 211 918 211 949 q 190 867 211 887 z "},"©":{"ha":979,"x_min":53,"x_max":919,"o":"m 587 362 l 677 362 l 679 359 q 628 219 681 267 q 478 171 576 171 q 323 235 380 171 q 265 407 265 300 l 265 479 q 323 651 265 587 q 478 715 380 715 q 628 667 575 715 q 680 528 682 618 l 678 524 l 588 524 q 561 607 588 581 q 478 633 534 633 q 390 592 421 633 q 359 480 359 551 l 359 407 q 390 294 359 336 q 478 253 421 253 q 561 279 534 253 q 587 362 587 304 m 667 774 q 626 799 667 774 q 486 823 585 823 q 305 774 387 823 q 175 637 222 724 q 127 444 127 549 q 232 172 127 282 q 486 62 336 62 q 741 172 637 62 q 845 444 845 282 q 797 637 845 549 q 667 774 749 724 m 486 -14 q 317 21 397 -14 q 179 118 237 57 q 87 263 121 178 q 53 444 53 349 q 111 675 53 570 q 268 840 168 780 q 486 899 367 899 q 705 840 606 899 q 861 675 804 780 q 919 444 919 570 q 861 211 919 317 q 704 46 804 106 q 486 -14 605 -14 z "},"ª":{"ha":557,"x_min":86,"x_max":479,"o":"m 361 519 q 240 469 313 469 q 126 506 166 469 q 86 608 86 543 q 294 749 86 749 l 357 749 l 357 780 q 286 857 357 857 q 223 842 245 857 q 201 797 201 826 l 96 806 q 149 908 96 869 q 286 948 202 948 q 417 904 370 948 q 463 779 463 859 l 463 586 q 479 477 463 526 l 371 477 l 361 519 m 193 610 q 264 557 193 557 q 314 567 288 557 q 357 594 339 578 l 357 677 l 292 677 q 219 659 245 677 q 193 610 193 641 z "},"«":{"ha":607,"x_min":46,"x_max":568,"o":"m 324 581 l 173 337 l 324 94 l 222 94 l 46 332 l 46 343 l 222 581 l 324 581 m 568 581 l 416 337 l 568 94 l 465 94 l 290 332 l 290 343 l 465 581 l 568 581 z "},"¬":{"ha":692,"x_min":77,"x_max":587,"o":"m 587 517 l 587 254 l 465 254 l 465 412 l 77 412 l 77 517 l 587 517 z "},"­":{"ha":410,"x_min":39,"x_max":359,"o":"m 359 473 l 359 353 l 39 353 l 39 473 l 359 473 z "},"®":{"ha":979,"x_min":52,"x_max":919,"o":"m 398 192 l 306 192 l 306 711 l 477 711 q 624 670 572 711 q 675 555 675 629 q 602 442 675 481 q 657 392 641 425 q 674 307 674 359 q 684 202 674 226 l 684 192 l 589 192 q 582 310 582 212 q 562 377 582 356 q 494 397 541 397 l 398 398 l 398 192 m 398 629 l 398 479 l 485 479 q 556 498 528 479 q 584 550 584 517 q 562 611 584 593 q 484 629 541 628 l 398 629 m 798 253 q 844 444 844 341 q 799 632 844 546 q 669 770 753 718 q 486 823 585 823 q 305 773 388 823 q 174 635 222 723 q 126 443 126 547 q 174 251 126 340 q 305 112 222 163 q 486 62 388 62 q 667 113 583 62 q 798 253 751 165 m 110 214 q 52 445 52 321 q 109 673 52 568 q 268 840 166 778 q 486 900 370 900 q 705 840 603 900 q 862 673 805 778 q 919 444 919 568 q 862 215 919 319 q 705 47 806 110 q 487 -14 605 -14 q 269 47 368 -14 q 111 214 169 108 l 110 214 z "},"¯":{"ha":602,"x_min":83,"x_max":526,"o":"m 526 977 l 526 880 l 83 880 l 83 977 l 526 977 z "},"°":{"ha":475,"x_min":77,"x_max":397,"o":"m 184 857 q 173 845 184 857 q 162 802 162 833 q 184 748 162 770 q 239 726 207 726 q 292 747 271 726 q 313 801 313 769 q 292 857 313 833 q 239 880 271 880 q 184 857 207 880 m 239 640 q 205 640 239 640 q 125 687 172 640 q 77 801 77 734 q 125 917 77 869 q 238 965 173 965 q 351 917 304 965 q 397 801 397 869 q 351 687 397 734 q 239 640 305 640 z "},"±":{"ha":670,"x_min":58,"x_max":617,"o":"m 595 120 l 595 1 l 77 1 l 77 120 l 595 120 m 408 779 l 408 549 l 617 549 l 617 427 l 408 427 l 408 191 l 276 191 l 276 427 l 58 427 l 58 549 l 276 549 l 276 779 l 408 779 z "},"´":{"ha":407,"x_min":68,"x_max":357,"o":"m 68 836 l 187 1021 l 357 1021 l 187 836 l 68 836 z "},"µ":{"ha":739,"x_min":89,"x_max":644,"o":"m 357 78 q 496 152 460 78 l 496 631 l 644 631 l 644 -29 l 508 -29 l 504 24 q 357 -41 447 -41 q 237 -7 283 -41 l 237 -282 l 89 -282 l 89 632 l 236 631 l 236 243 q 265 117 237 155 q 357 78 293 78 z "},"¶":{"ha":614,"x_min":42,"x_max":522,"o":"m 522 0 l 393 0 l 393 317 l 345 317 q 123 394 204 317 q 42 603 42 471 q 123 811 42 734 q 345 888 205 888 l 522 888 l 522 0 z "},"·":{"ha":353,"x_min":87,"x_max":260,"o":"m 260 476 q 260 458 260 476 q 236 417 260 439 q 172 394 212 394 q 110 416 133 394 q 87 475 87 439 q 110 535 87 512 q 173 558 132 558 q 236 535 213 558 q 260 476 260 512 z "},"¸":{"ha":322,"x_min":66,"x_max":279,"o":"m 279 -167 q 227 -268 279 -232 q 79 -303 175 -303 l 75 -220 q 137 -205 115 -220 q 159 -165 159 -191 q 138 -127 159 -138 q 66 -113 117 -117 l 86 -28 l 194 -28 l 187 -62 q 279 -167 279 -78 z "},"º":{"ha":571,"x_min":73,"x_max":496,"o":"m 180 728 l 180 684 q 208 590 180 624 q 284 557 236 557 q 360 590 333 557 q 389 682 388 623 l 389 731 q 361 824 389 790 q 284 857 333 857 q 208 824 235 857 q 180 728 180 790 m 73 687 l 73 731 q 131 888 73 829 q 284 947 189 947 q 438 888 380 947 q 496 728 496 829 l 496 684 q 438 527 496 586 q 284 468 381 468 q 130 527 188 468 q 73 687 73 587 z "},"»":{"ha":607,"x_min":52,"x_max":582,"o":"m 52 581 l 153 581 l 329 343 l 329 332 l 153 94 l 52 94 l 202 337 l 52 581 m 304 581 l 406 581 l 582 343 l 582 332 l 406 94 l 304 94 l 455 337 l 304 581 z "},"¼":{"ha":908,"x_min":197,"x_max":707,"o":"m 707 774 l 273 79 l 197 123 l 631 818 l 707 774 z "},"½":{"ha":964,"x_min":172,"x_max":682,"o":"m 682 774 l 248 79 l 172 123 l 605 818 l 682 774 z "},"¾":{"ha":991,"x_min":283,"x_max":793,"o":"m 793 774 l 359 79 l 283 123 l 717 818 l 793 774 z "},"¿":{"ha":608,"x_min":40,"x_max":570,"o":"m 189 -24 q 303 -138 189 -138 q 390 -107 357 -138 q 422 -26 422 -77 l 570 -26 q 496 -198 569 -134 q 301 -261 424 -261 q 109 -200 178 -261 q 40 -26 40 -139 q 135 174 40 75 l 191 231 q 245 345 238 274 l 246 377 l 385 377 q 368 257 384 300 q 307 165 352 213 l 244 100 q 189 -24 189 41 m 252 624 q 263 635 252 624 q 313 646 274 646 q 375 624 353 646 q 397 567 397 602 q 375 509 397 532 q 313 487 353 487 q 252 509 274 487 q 229 567 229 532 q 252 624 229 602 z "},"À":{"ha":832,"x_min":8,"x_max":798,"o":"m 648 0 l 577 208 l 229 208 l 159 0 l 8 0 l 335 888 l 475 888 l 798 0 l 648 0 m 403 711 l 272 332 l 535 332 l 406 711 l 403 711 m 410 1194 l 523 1032 l 403 1032 l 245 1191 l 246 1194 l 410 1194 z "},"Á":{"ha":832,"x_min":8,"x_max":798,"o":"m 648 0 l 577 208 l 229 208 l 159 0 l 8 0 l 335 888 l 475 888 l 798 0 l 648 0 m 403 711 l 272 332 l 535 332 l 406 711 l 403 711 m 372 1046 l 491 1232 l 661 1232 l 491 1046 l 372 1046 z "},"Â":{"ha":832,"x_min":8,"x_max":798,"o":"m 648 0 l 577 208 l 229 208 l 159 0 l 8 0 l 335 888 l 475 888 l 798 0 l 648 0 m 403 711 l 272 332 l 535 332 l 406 711 l 403 711 m 641 1057 l 522 1057 l 430 1152 l 339 1057 l 221 1057 l 221 1065 l 387 1233 l 474 1233 l 641 1063 l 641 1057 z "},"Ã":{"ha":832,"x_min":8,"x_max":798,"o":"m 648 0 l 577 208 l 229 208 l 159 0 l 8 0 l 335 888 l 475 888 l 798 0 l 648 0 m 403 711 l 272 332 l 535 332 l 406 711 l 403 711 m 518 1063 q 476 1068 494 1063 q 428 1091 458 1074 q 384 1113 397 1108 q 350 1117 370 1117 q 314 1099 330 1117 q 298 1054 298 1082 l 207 1059 q 245 1172 207 1126 q 342 1217 284 1217 q 426 1190 366 1217 q 509 1162 486 1162 q 547 1180 531 1162 q 563 1226 563 1198 l 654 1219 q 615 1107 654 1151 q 518 1063 576 1063 z "},"Ä":{"ha":832,"x_min":8,"x_max":798,"o":"m 648 0 l 577 208 l 229 208 l 159 0 l 8 0 l 335 888 l 475 888 l 798 0 l 648 0 m 403 711 l 272 332 l 535 332 l 406 711 l 403 711 m 650 1128 q 650 1112 650 1128 q 629 1076 650 1097 q 573 1056 608 1056 q 516 1076 537 1056 q 495 1128 495 1097 q 516 1179 495 1159 q 573 1200 537 1200 q 629 1179 608 1200 q 650 1128 650 1159 m 350 1077 q 339 1067 350 1077 q 294 1057 329 1057 q 238 1077 258 1057 q 217 1128 217 1097 q 238 1180 217 1160 q 294 1200 258 1200 q 350 1180 329 1200 q 371 1128 371 1160 q 350 1077 371 1097 z "},"Å":{"ha":832,"x_min":8,"x_max":798,"o":"m 648 0 l 577 208 l 229 208 l 159 0 l 8 0 l 335 888 l 475 888 l 798 0 l 648 0 m 403 711 l 272 332 l 535 332 l 406 711 l 403 711 m 490 1210 q 480 1220 490 1210 q 441 1230 471 1230 q 392 1210 411 1230 q 372 1161 372 1190 q 392 1112 372 1132 q 441 1093 412 1093 q 490 1112 470 1093 q 509 1160 509 1131 q 490 1210 509 1190 m 440 1036 q 411 1036 440 1036 q 343 1072 382 1036 q 305 1161 305 1108 q 344 1251 305 1213 q 440 1288 383 1288 q 537 1251 498 1288 q 576 1161 576 1213 q 537 1072 576 1108 q 440 1036 499 1036 z "},"Æ":{"ha":1175,"x_min":-6,"x_max":1147,"o":"m 1147 119 l 1147 0 l 599 0 l 589 208 l 283 208 l 171 0 l -6 0 l 504 888 l 1109 888 l 1109 768 l 715 768 l 725 519 l 1059 519 l 1059 399 l 730 399 l 742 119 l 1147 119 m 568 734 l 354 339 l 584 339 l 568 734 z "},"Ç":{"ha":816,"x_min":58,"x_max":743,"o":"m 582 -170 q 530 -271 582 -235 q 382 -307 478 -307 l 378 -223 q 440 -209 418 -223 q 462 -168 462 -195 q 441 -131 462 -142 q 370 -117 420 -120 l 389 -32 l 497 -32 l 490 -65 q 582 -170 582 -81 m 595 294 l 739 294 l 740 290 q 652 69 742 153 q 407 -14 562 -14 q 155 90 252 -14 q 58 358 58 194 l 58 527 q 154 795 58 691 q 406 900 250 900 q 652 818 562 900 q 741 595 743 735 l 739 591 l 595 591 q 547 732 595 682 q 406 781 498 781 q 260 710 314 781 q 206 528 206 639 l 206 358 q 261 175 206 246 q 408 104 316 104 q 548 153 500 104 q 595 294 595 201 z "},"È":{"ha":707,"x_min":88,"x_max":688,"o":"m 625 519 l 625 400 l 237 400 l 237 119 l 688 119 l 688 0 l 88 0 l 88 888 l 684 888 l 684 770 l 237 770 l 237 519 l 625 519 m 362 1199 l 475 1037 l 355 1037 l 197 1196 l 199 1199 l 362 1199 z "},"É":{"ha":707,"x_min":88,"x_max":688,"o":"m 625 519 l 625 400 l 237 400 l 237 119 l 688 119 l 688 0 l 88 0 l 88 888 l 684 888 l 684 770 l 237 770 l 237 519 l 625 519 m 325 1051 l 444 1236 l 613 1236 l 444 1051 l 325 1051 z "},"Ê":{"ha":707,"x_min":88,"x_max":688,"o":"m 625 519 l 625 400 l 237 400 l 237 119 l 688 119 l 688 0 l 88 0 l 88 888 l 684 888 l 684 770 l 237 770 l 237 519 l 625 519 m 593 1061 l 474 1061 l 382 1156 l 292 1061 l 174 1061 l 174 1069 l 339 1238 l 427 1238 l 593 1068 l 593 1061 z "},"Ë":{"ha":707,"x_min":88,"x_max":688,"o":"m 625 519 l 625 400 l 237 400 l 237 119 l 688 119 l 688 0 l 88 0 l 88 888 l 684 888 l 684 770 l 237 770 l 237 519 l 625 519 m 603 1133 q 603 1117 603 1133 q 582 1081 603 1101 q 525 1061 561 1061 q 469 1081 490 1061 q 448 1133 448 1101 q 469 1184 448 1164 q 525 1204 490 1204 q 582 1184 561 1204 q 603 1133 603 1164 m 302 1082 q 292 1072 302 1082 q 246 1061 281 1061 q 190 1082 211 1061 q 170 1133 170 1102 q 190 1185 170 1164 q 246 1205 211 1205 q 302 1185 281 1205 q 323 1133 323 1164 q 302 1082 323 1102 z "},"Ì":{"ha":353,"x_min":-18,"x_max":260,"o":"m 258 888 l 258 0 l 110 0 l 110 888 l 258 888 m 146 1199 l 260 1037 l 140 1037 l -18 1196 l -17 1199 l 146 1199 z "},"Í":{"ha":353,"x_min":94,"x_max":382,"o":"m 243 888 l 243 0 l 96 0 l 96 888 l 243 888 m 94 1051 l 213 1236 l 382 1236 l 213 1051 l 94 1051 z "},"Î":{"ha":353,"x_min":-43,"x_max":377,"o":"m 257 888 l 257 0 l 109 0 l 109 888 l 257 888 m 377 1061 l 258 1061 l 166 1156 l 75 1061 l -43 1061 l -43 1069 l 123 1238 l 210 1238 l 377 1068 l 377 1061 z "},"Ï":{"ha":353,"x_min":-46,"x_max":387,"o":"m 258 888 l 258 0 l 111 0 l 111 888 l 258 888 m 387 1133 q 387 1117 387 1133 q 366 1081 387 1101 q 310 1061 345 1061 q 253 1081 274 1061 q 232 1133 232 1101 q 253 1184 232 1164 q 310 1204 274 1204 q 366 1184 345 1204 q 387 1133 387 1164 m 87 1082 q 76 1072 87 1082 q 31 1061 66 1061 q -25 1082 -5 1061 q -46 1133 -46 1102 q -25 1185 -46 1164 q 31 1205 -5 1205 q 87 1185 66 1205 q 108 1133 108 1164 q 87 1082 108 1102 z "},"Ð":{"ha":835,"x_min":-6,"x_max":771,"o":"m 402 502 l 402 398 l 262 398 l 262 123 l 362 123 q 551 200 486 123 q 616 425 616 277 l 616 467 q 553 688 616 612 q 370 764 490 764 l 262 764 l 262 502 l 402 502 m 364 0 l 108 0 l 108 398 l -6 398 l -6 502 l 108 502 l 108 888 l 370 888 q 580 837 489 888 q 721 688 671 785 q 771 467 771 591 l 771 422 q 721 200 771 295 q 578 52 671 104 q 364 0 485 0 z "},"Ñ":{"ha":888,"x_min":87,"x_max":781,"o":"m 781 888 l 781 0 l 633 0 l 239 649 l 235 648 l 235 0 l 87 0 l 87 888 l 235 888 l 629 241 l 633 241 l 633 888 l 781 888 m 537 1063 q 495 1068 513 1063 q 447 1091 477 1074 q 403 1113 416 1108 q 369 1117 389 1117 q 333 1099 349 1117 q 317 1054 317 1082 l 226 1059 q 264 1172 226 1126 q 361 1217 303 1217 q 445 1190 385 1217 q 528 1162 505 1162 q 566 1180 550 1162 q 582 1226 582 1198 l 673 1219 q 634 1107 673 1151 q 537 1063 595 1063 z "},"Ò":{"ha":863,"x_min":57,"x_max":784,"o":"m 636 363 l 636 524 q 576 708 636 637 q 417 778 516 778 q 262 708 319 778 q 205 524 205 637 l 205 363 q 262 178 205 249 q 418 107 319 107 q 577 178 517 107 q 636 363 636 248 m 784 523 l 784 363 q 682 92 784 198 q 418 -14 579 -14 q 157 92 257 -14 q 57 363 57 198 l 57 523 q 157 793 57 687 q 416 900 257 900 q 607 851 523 900 q 738 716 692 802 q 784 523 784 631 m 420 1194 l 534 1032 l 414 1032 l 256 1191 l 257 1194 l 420 1194 z "},"Ó":{"ha":863,"x_min":56,"x_max":783,"o":"m 635 363 l 635 524 q 575 708 635 637 q 417 778 515 778 q 261 708 318 778 q 204 524 204 637 l 204 363 q 261 178 204 249 q 417 107 318 107 q 576 178 517 107 q 635 363 635 248 m 783 523 l 783 363 q 681 92 783 198 q 417 -14 578 -14 q 156 92 256 -14 q 56 363 56 198 l 56 523 q 156 793 56 687 q 415 900 256 900 q 607 851 522 900 q 737 716 691 802 q 783 523 783 631 m 382 1046 l 501 1232 l 671 1232 l 501 1046 l 382 1046 z "},"Ô":{"ha":863,"x_min":56,"x_max":783,"o":"m 635 363 l 635 524 q 575 708 635 637 q 417 778 515 778 q 261 708 318 778 q 204 524 204 637 l 204 363 q 261 178 204 249 q 417 107 318 107 q 576 178 517 107 q 635 363 635 248 m 783 523 l 783 363 q 681 92 783 198 q 417 -14 578 -14 q 156 92 256 -14 q 56 363 56 198 l 56 523 q 156 793 56 687 q 415 900 256 900 q 607 851 522 900 q 737 716 691 802 q 783 523 783 631 m 651 1057 l 532 1057 l 440 1152 l 349 1057 l 231 1057 l 231 1065 l 397 1233 l 484 1233 l 651 1063 l 651 1057 z "},"Õ":{"ha":863,"x_min":56,"x_max":783,"o":"m 635 363 l 635 524 q 575 708 635 637 q 417 778 515 778 q 261 708 318 778 q 204 524 204 637 l 204 363 q 261 178 204 249 q 417 107 318 107 q 576 178 517 107 q 635 363 635 248 m 783 523 l 783 363 q 681 92 783 198 q 417 -14 578 -14 q 156 92 256 -14 q 56 363 56 198 l 56 523 q 156 793 56 687 q 415 900 256 900 q 607 851 522 900 q 737 716 691 802 q 783 523 783 631 m 528 1063 q 486 1068 504 1063 q 438 1091 469 1074 q 394 1113 408 1108 q 360 1117 380 1117 q 324 1099 340 1117 q 308 1054 308 1082 l 217 1059 q 256 1172 217 1126 q 353 1217 294 1217 q 436 1190 376 1217 q 519 1162 496 1162 q 557 1180 541 1162 q 573 1226 573 1198 l 665 1219 q 626 1107 665 1151 q 528 1063 587 1063 z "},"Ö":{"ha":863,"x_min":56,"x_max":783,"o":"m 635 363 l 635 524 q 575 708 635 637 q 417 778 515 778 q 261 708 318 778 q 204 524 204 637 l 204 363 q 261 178 204 249 q 417 107 318 107 q 576 178 517 107 q 635 363 635 248 m 783 523 l 783 363 q 681 92 783 198 q 417 -14 578 -14 q 156 92 256 -14 q 56 363 56 198 l 56 523 q 156 793 56 687 q 415 900 256 900 q 607 851 522 900 q 737 716 691 802 q 783 523 783 631 m 661 1128 q 661 1112 661 1128 q 640 1076 661 1097 q 583 1056 618 1056 q 526 1076 547 1056 q 505 1128 505 1097 q 526 1179 505 1159 q 583 1200 547 1200 q 640 1179 618 1200 q 661 1128 661 1159 m 360 1077 q 350 1067 360 1077 q 304 1057 339 1057 q 248 1077 269 1057 q 227 1128 227 1097 q 248 1180 227 1160 q 304 1200 269 1200 q 360 1180 339 1200 q 381 1128 381 1160 q 360 1077 381 1097 z "},"×":{"ha":667,"x_min":47,"x_max":613,"o":"m 138 145 l 47 237 l 240 433 l 47 630 l 138 722 l 330 525 l 522 722 l 613 630 l 420 433 l 613 237 l 522 145 l 330 341 l 138 145 z "},"Ø":{"ha":862,"x_min":64,"x_max":802,"o":"m 802 416 q 757 186 802 285 q 628 35 712 88 q 438 -18 544 -18 q 254 28 333 -18 l 198 -64 l 95 -64 l 183 81 q 64 420 64 200 l 64 460 q 110 689 64 591 q 240 842 155 787 q 437 895 322 895 q 640 833 552 895 l 693 921 l 795 921 l 705 772 q 802 460 802 654 l 802 416 m 648 415 l 648 461 q 621 632 648 564 l 322 141 q 434 109 370 109 q 593 186 538 109 q 648 415 648 264 m 218 415 q 262 210 218 289 l 568 714 q 433 766 516 766 q 276 688 332 766 q 218 466 220 610 l 218 415 z "},"Ù":{"ha":815,"x_min":75,"x_max":766,"o":"m 616 887 l 766 887 l 766 292 q 671 66 766 146 q 418 -14 576 -14 q 168 66 260 -14 q 75 292 75 146 l 75 887 l 222 887 l 222 292 q 274 152 222 199 q 418 104 325 104 q 564 152 511 104 q 616 292 616 199 l 616 887 m 391 1194 l 505 1032 l 385 1032 l 227 1191 l 228 1194 l 391 1194 z "},"Ú":{"ha":815,"x_min":73,"x_max":764,"o":"m 615 887 l 764 887 l 764 292 q 670 66 764 146 q 417 -14 575 -14 q 166 66 259 -14 q 73 292 73 146 l 73 887 l 221 887 l 221 292 q 272 152 221 199 q 416 104 323 104 q 562 152 509 104 q 615 292 615 199 l 615 887 m 353 1046 l 472 1232 l 642 1232 l 472 1046 l 353 1046 z "},"Û":{"ha":815,"x_min":73,"x_max":764,"o":"m 615 887 l 764 887 l 764 292 q 670 66 764 146 q 417 -14 575 -14 q 166 66 259 -14 q 73 292 73 146 l 73 887 l 221 887 l 221 292 q 272 152 221 199 q 416 104 323 104 q 562 152 509 104 q 615 292 615 199 l 615 887 m 622 1057 l 503 1057 l 411 1152 l 320 1057 l 202 1057 l 202 1065 l 368 1233 l 455 1233 l 622 1063 l 622 1057 z "},"Ü":{"ha":815,"x_min":73,"x_max":764,"o":"m 615 887 l 764 887 l 764 292 q 670 66 764 146 q 417 -14 575 -14 q 166 66 259 -14 q 73 292 73 146 l 73 887 l 221 887 l 221 292 q 272 152 221 199 q 416 104 323 104 q 562 152 509 104 q 615 292 615 199 l 615 887 m 631 1128 q 631 1112 631 1128 q 610 1076 631 1097 q 554 1056 589 1056 q 497 1076 518 1056 q 476 1128 476 1097 q 497 1179 476 1159 q 554 1200 518 1200 q 610 1179 589 1200 q 631 1128 631 1159 m 331 1077 q 320 1067 331 1077 q 275 1057 310 1057 q 219 1077 239 1057 q 198 1128 198 1097 q 219 1180 198 1160 q 275 1200 239 1200 q 331 1180 310 1200 q 352 1128 352 1160 q 331 1077 352 1097 z "},"Ý":{"ha":762,"x_min":7,"x_max":766,"o":"m 458 0 l 311 0 l 311 320 l 7 888 l 173 888 l 387 456 l 601 888 l 766 888 l 458 312 l 458 0 m 333 1046 l 452 1232 l 621 1232 l 452 1046 l 333 1046 z "},"Þ":{"ha":748,"x_min":90,"x_max":702,"o":"m 239 599 l 239 302 l 389 302 q 509 342 465 302 q 553 449 553 381 q 511 557 553 517 q 394 599 468 597 l 239 599 m 90 888 l 239 888 l 239 718 l 386 718 q 618 646 534 718 q 702 451 702 574 q 618 255 702 328 q 387 183 534 183 l 239 183 l 239 0 l 90 0 l 90 888 z "},"ß":{"ha":766,"x_min":82,"x_max":719,"o":"m 82 -1 l 82 674 q 152 877 82 805 q 342 949 222 949 q 528 892 463 949 q 593 732 593 836 q 585 664 593 694 q 555 601 576 634 q 528 547 534 567 q 522 502 522 528 q 541 450 522 475 q 615 379 560 424 q 694 292 669 333 q 719 204 719 250 q 653 43 719 100 q 466 -13 587 -13 q 366 -1 418 -13 q 290 26 313 11 l 319 145 q 386 116 347 127 q 458 105 425 105 q 543 130 515 105 q 572 198 572 155 q 551 255 572 228 q 476 325 530 283 q 398 409 422 368 q 374 498 374 450 q 393 571 374 529 q 431 655 412 614 q 450 722 450 696 q 422 801 450 772 q 345 831 393 831 q 231 680 233 831 l 230 -1 l 82 -1 z "},"à":{"ha":676,"x_min":45,"x_max":621,"o":"m 259 -14 q 101 38 157 -14 q 45 186 45 91 q 121 334 45 281 q 334 387 196 387 l 450 387 l 450 446 q 419 527 450 498 q 335 556 389 556 q 251 532 281 556 q 220 469 220 508 l 77 469 l 77 472 q 148 612 73 553 q 341 671 223 671 q 528 612 459 671 q 597 444 597 553 l 597 151 q 621 -1 597 69 l 471 -2 q 450 95 454 50 q 368 16 418 46 q 259 -14 319 -14 m 193 187 l 194 187 q 219 127 194 149 q 294 105 243 105 q 389 132 344 105 q 449 197 433 159 l 449 294 l 331 294 q 231 263 269 294 q 193 187 193 233 m 326 984 l 439 822 l 319 822 l 161 981 l 162 984 l 326 984 z "},"á":{"ha":676,"x_min":45,"x_max":621,"o":"m 259 -14 q 101 38 157 -14 q 45 186 45 91 q 121 334 45 281 q 334 387 196 387 l 450 387 l 450 446 q 419 527 450 498 q 335 556 389 556 q 251 532 281 556 q 220 469 220 508 l 77 469 l 77 472 q 148 612 73 553 q 341 671 223 671 q 528 612 459 671 q 597 444 597 553 l 597 151 q 621 -1 597 69 l 471 -2 q 450 95 454 50 q 368 16 418 46 q 259 -14 319 -14 m 193 187 l 194 187 q 219 127 194 149 q 294 105 243 105 q 389 132 344 105 q 449 197 433 159 l 449 294 l 331 294 q 231 263 269 294 q 193 187 193 233 m 288 836 l 407 1021 l 576 1021 l 407 836 l 288 836 z "},"â":{"ha":676,"x_min":45,"x_max":621,"o":"m 259 -14 q 101 38 157 -14 q 45 186 45 91 q 121 334 45 281 q 334 387 196 387 l 450 387 l 450 446 q 419 527 450 498 q 335 556 389 556 q 251 532 281 556 q 220 469 220 508 l 77 469 l 77 472 q 148 612 73 553 q 341 671 223 671 q 528 612 459 671 q 597 444 597 553 l 597 151 q 621 -1 597 69 l 471 -2 q 450 95 454 50 q 368 16 418 46 q 259 -14 319 -14 m 193 187 l 194 187 q 219 127 194 149 q 294 105 243 105 q 389 132 344 105 q 449 197 433 159 l 449 294 l 331 294 q 231 263 269 294 q 193 187 193 233 m 557 846 l 437 846 l 346 941 l 255 846 l 137 846 l 137 854 l 302 1023 l 390 1023 l 557 853 l 557 846 z "},"ã":{"ha":676,"x_min":45,"x_max":621,"o":"m 259 -14 q 101 38 157 -14 q 45 186 45 91 q 121 334 45 281 q 334 387 196 387 l 450 387 l 450 446 q 419 527 450 498 q 335 556 389 556 q 251 532 281 556 q 220 469 220 508 l 77 469 l 77 472 q 148 612 73 553 q 341 671 223 671 q 528 612 459 671 q 597 444 597 553 l 597 151 q 621 -1 597 69 l 471 -2 q 450 95 454 50 q 368 16 418 46 q 259 -14 319 -14 m 193 187 l 194 187 q 219 127 194 149 q 294 105 243 105 q 389 132 344 105 q 449 197 433 159 l 449 294 l 331 294 q 231 263 269 294 q 193 187 193 233 m 434 852 q 392 858 410 852 q 344 881 374 863 q 300 902 313 898 q 266 907 286 907 q 230 889 245 907 q 214 844 214 871 l 123 848 q 161 962 123 916 q 258 1007 200 1007 q 342 980 282 1007 q 425 952 402 952 q 463 970 447 952 q 479 1016 479 988 l 570 1008 q 531 897 570 941 q 434 852 492 852 z "},"ä":{"ha":676,"x_min":45,"x_max":621,"o":"m 259 -14 q 101 38 157 -14 q 45 186 45 91 q 121 334 45 281 q 334 387 196 387 l 450 387 l 450 446 q 419 527 450 498 q 335 556 389 556 q 251 532 281 556 q 220 469 220 508 l 77 469 l 77 472 q 148 612 73 553 q 341 671 223 671 q 528 612 459 671 q 597 444 597 553 l 597 151 q 621 -1 597 69 l 471 -2 q 450 95 454 50 q 368 16 418 46 q 259 -14 319 -14 m 193 187 l 194 187 q 219 127 194 149 q 294 105 243 105 q 389 132 344 105 q 449 197 433 159 l 449 294 l 331 294 q 231 263 269 294 q 193 187 193 233 m 566 918 q 566 902 566 918 q 545 866 566 886 q 489 846 524 846 q 432 866 453 846 q 411 918 411 886 q 432 969 411 949 q 489 989 453 989 q 545 969 524 989 q 566 918 566 949 m 266 867 q 255 857 266 867 q 210 846 245 846 q 154 867 174 846 q 133 918 133 887 q 154 970 133 949 q 210 990 174 990 q 266 970 245 990 q 287 918 287 949 q 266 867 287 887 z "},"å":{"ha":676,"x_min":45,"x_max":621,"o":"m 258 -14 q 100 38 156 -14 q 45 186 45 91 q 120 334 45 281 q 334 387 195 387 l 449 387 l 449 446 q 418 527 449 498 q 334 556 388 556 q 250 532 280 556 q 220 469 220 508 l 77 469 l 76 472 q 147 612 72 553 q 340 671 222 671 q 528 612 458 671 q 597 444 597 553 l 597 151 q 621 -1 597 69 l 470 -2 q 450 95 454 50 q 368 16 417 46 q 258 -14 318 -14 m 193 187 l 193 187 q 218 127 193 149 q 293 105 243 105 q 388 132 343 105 q 448 197 433 159 l 448 294 l 330 294 q 230 263 268 294 q 193 187 193 233 m 405 999 q 396 1009 405 999 q 356 1019 386 1019 q 307 999 326 1019 q 288 950 288 979 q 308 902 288 922 q 356 882 328 882 q 405 902 385 882 q 425 950 425 921 q 405 999 425 979 m 356 825 q 326 825 356 825 q 259 862 297 825 q 220 950 220 898 q 259 1040 220 1003 q 356 1078 298 1078 q 452 1040 413 1078 q 491 950 491 1003 q 453 862 491 898 q 356 825 414 825 z "},"æ":{"ha":1055,"x_min":44,"x_max":1018,"o":"m 328 289 q 228 259 265 288 q 191 188 191 230 q 220 122 191 146 q 302 99 248 99 q 378 117 337 99 q 448 161 419 134 l 448 289 l 328 289 m 871 409 q 838 515 871 479 q 744 552 805 552 q 644 510 682 552 q 595 391 605 468 l 871 391 l 871 409 m 766 -14 q 526 85 610 -14 q 420 12 485 37 q 273 -14 355 -14 q 105 40 165 -14 q 44 190 44 94 q 117 339 44 287 q 332 391 190 391 l 448 391 l 448 434 q 419 521 448 490 q 335 552 390 552 q 246 525 281 552 q 211 458 211 498 l 63 469 q 140 615 63 559 q 338 671 216 671 q 541 590 473 671 q 747 672 621 673 q 946 593 873 672 q 1018 370 1018 515 l 1018 287 l 594 287 q 646 153 600 201 q 775 105 692 105 q 923 140 859 105 l 960 161 l 1004 60 l 1004 60 q 898 6 961 26 q 766 -14 834 -14 z "},"ç":{"ha":654,"x_min":43,"x_max":613,"o":"m 488 -170 q 436 -271 488 -235 q 288 -307 384 -307 l 284 -223 q 346 -209 324 -223 q 368 -168 368 -195 q 347 -131 368 -142 q 275 -117 326 -120 l 295 -32 l 403 -32 l 396 -65 q 488 -170 488 -81 m 193 318 l 192 318 q 345 104 192 104 q 437 136 400 104 q 473 216 473 168 l 608 216 l 609 213 q 534 53 612 120 q 345 -14 456 -14 q 123 77 202 -14 q 43 318 43 169 l 43 339 q 123 579 43 488 q 345 671 202 671 q 539 602 465 671 q 610 426 613 533 l 609 422 l 474 422 q 438 515 474 478 q 346 552 403 552 q 229 495 266 552 q 193 339 193 438 l 193 318 z "},"è":{"ha":671,"x_min":49,"x_max":614,"o":"m 469 410 q 436 513 469 475 q 344 552 403 552 q 250 510 286 552 q 205 398 214 467 l 206 395 l 469 395 l 469 410 m 598 64 q 362 -14 508 -14 q 133 77 216 -14 q 49 313 49 168 l 49 338 q 131 577 49 483 q 342 672 214 672 q 543 592 471 671 q 614 374 614 512 l 614 286 l 203 286 l 201 283 q 249 153 205 202 q 365 104 292 104 q 466 118 423 104 q 550 161 508 132 l 597 64 l 598 64 m 317 984 l 431 822 l 311 822 l 153 981 l 154 984 l 317 984 z "},"é":{"ha":671,"x_min":49,"x_max":614,"o":"m 469 410 q 436 513 469 475 q 344 552 403 552 q 250 510 286 552 q 205 398 214 467 l 206 395 l 469 395 l 469 410 m 598 64 q 362 -14 508 -14 q 133 77 216 -14 q 49 313 49 168 l 49 338 q 131 577 49 483 q 342 672 214 672 q 543 592 471 671 q 614 374 614 512 l 614 286 l 203 286 l 201 283 q 249 153 205 202 q 365 104 292 104 q 466 118 423 104 q 550 161 508 132 l 597 64 l 598 64 m 280 836 l 399 1021 l 568 1021 l 399 836 l 280 836 z "},"ê":{"ha":671,"x_min":49,"x_max":614,"o":"m 469 410 q 436 513 469 475 q 344 552 403 552 q 250 510 286 552 q 205 398 214 467 l 206 395 l 469 395 l 469 410 m 598 64 q 362 -14 508 -14 q 133 77 216 -14 q 49 313 49 168 l 49 338 q 131 577 49 483 q 342 672 214 672 q 543 592 471 671 q 614 374 614 512 l 614 286 l 203 286 l 201 283 q 249 153 205 202 q 365 104 292 104 q 466 118 423 104 q 550 161 508 132 l 597 64 l 598 64 m 549 846 l 429 846 l 338 941 l 247 846 l 129 846 l 129 854 l 294 1023 l 382 1023 l 549 853 l 549 846 z "},"ë":{"ha":671,"x_min":49,"x_max":614,"o":"m 469 410 q 436 513 469 475 q 344 552 403 552 q 250 510 286 552 q 205 398 214 467 l 206 395 l 469 395 l 469 410 m 598 64 q 362 -14 508 -14 q 133 77 216 -14 q 49 313 49 168 l 49 338 q 131 577 49 483 q 342 672 214 672 q 543 592 471 671 q 614 374 614 512 l 614 286 l 203 286 l 201 283 q 249 153 205 202 q 365 104 292 104 q 466 118 423 104 q 550 161 508 132 l 597 64 l 598 64 m 558 918 q 558 902 558 918 q 537 866 558 886 q 480 846 516 846 q 424 866 445 846 q 403 918 403 886 q 424 969 403 949 q 480 989 445 989 q 537 969 516 989 q 558 918 558 949 m 258 867 q 247 857 258 867 q 201 846 237 846 q 145 867 166 846 q 125 918 125 887 q 145 970 125 949 q 201 990 166 990 q 258 970 237 990 q 279 918 279 949 q 258 867 279 887 z "},"ì":{"ha":328,"x_min":-31,"x_max":248,"o":"m 241 661 l 241 0 l 93 0 l 93 661 l 241 661 m 134 979 l 248 817 l 127 817 l -31 976 l -29 979 l 134 979 z "},"í":{"ha":328,"x_min":79,"x_max":370,"o":"m 227 661 l 227 0 l 79 0 l 79 661 l 227 661 m 82 831 l 201 1017 l 370 1017 l 201 831 l 82 831 z "},"î":{"ha":328,"x_min":-54,"x_max":366,"o":"m 241 661 l 241 0 l 94 0 l 94 661 l 241 661 m 366 842 l 247 842 l 155 937 l 64 842 l -54 842 l -54 850 l 112 1018 l 199 1018 l 366 848 l 366 842 z "},"ï":{"ha":328,"x_min":-58,"x_max":375,"o":"m 241 661 l 241 0 l 94 0 l 94 661 l 241 661 m 375 913 q 375 897 375 913 q 354 861 375 882 q 297 841 333 841 q 241 861 262 841 q 220 913 220 882 q 241 964 220 944 q 297 985 262 985 q 354 964 333 985 q 375 913 375 944 m 75 862 q 64 852 75 862 q 18 842 54 842 q -38 862 -17 842 q -58 913 -58 882 q -38 965 -58 945 q 18 985 -17 985 q 75 965 54 985 q 96 913 96 945 q 75 862 96 882 z "},"ð":{"ha":727,"x_min":63,"x_max":663,"o":"m 515 332 l 515 404 l 515 414 q 457 461 494 444 q 372 478 420 478 q 253 427 296 478 q 210 291 210 376 q 253 156 210 207 q 364 105 296 105 q 474 166 432 105 q 515 332 515 227 m 663 387 l 663 337 q 625 155 663 235 q 516 30 587 75 q 361 -14 446 -14 q 208 24 277 -14 q 101 131 140 62 q 63 287 63 199 q 97 445 63 375 q 195 553 131 515 q 342 592 256 592 q 496 536 428 592 q 390 714 467 639 l 266 631 l 218 698 l 323 768 q 147 844 247 818 l 193 962 q 446 850 334 934 l 555 924 l 603 857 l 509 794 q 663 387 663 631 z "},"ñ":{"ha":695,"x_min":68,"x_max":624,"o":"m 405 673 q 567 609 511 673 q 624 415 624 545 l 624 0 l 475 0 l 475 414 q 445 519 475 488 q 351 551 415 551 q 217 479 265 551 l 217 0 l 68 0 l 68 661 l 204 660 l 213 564 q 405 673 281 673 m 435 852 q 393 858 411 852 q 345 881 376 863 q 301 902 315 898 q 267 907 288 907 q 231 889 247 907 q 215 844 215 871 l 124 848 q 163 962 124 916 q 260 1007 201 1007 q 343 980 283 1007 q 426 952 404 952 q 464 970 448 952 q 480 1016 480 988 l 572 1008 q 533 897 572 941 q 435 852 494 852 z "},"ò":{"ha":711,"x_min":45,"x_max":651,"o":"m 194 321 q 232 163 194 223 q 349 103 270 103 q 465 163 427 103 q 505 321 505 224 l 505 334 q 465 489 505 429 q 349 551 427 551 q 232 490 270 551 q 193 334 193 429 l 194 321 m 45 334 q 126 576 45 481 q 348 671 207 671 q 570 576 490 671 q 651 335 651 483 l 651 322 q 570 80 651 173 q 348 -14 489 -14 q 127 81 206 -14 q 46 322 46 174 l 45 334 m 332 984 l 446 822 l 326 822 l 168 981 l 169 984 l 332 984 z "},"ó":{"ha":711,"x_min":45,"x_max":651,"o":"m 194 321 q 232 163 194 223 q 349 103 270 103 q 465 163 427 103 q 505 321 505 224 l 505 334 q 465 489 505 429 q 349 551 427 551 q 232 490 270 551 q 193 334 193 429 l 194 321 m 45 334 q 126 576 45 481 q 348 671 207 671 q 570 576 490 671 q 651 335 651 483 l 651 322 q 570 80 651 173 q 348 -14 489 -14 q 127 81 206 -14 q 46 322 46 174 l 45 334 m 295 836 l 414 1021 l 583 1021 l 414 836 l 295 836 z "},"ô":{"ha":711,"x_min":45,"x_max":650,"o":"m 193 321 q 231 163 193 223 q 348 103 269 103 q 465 163 427 103 q 504 321 504 224 l 504 334 q 465 489 504 429 q 348 551 427 551 q 231 490 269 551 q 193 334 193 429 l 193 321 m 45 334 q 125 576 45 481 q 348 671 206 671 q 570 576 489 671 q 650 335 650 483 l 650 322 q 569 80 650 173 q 347 -14 488 -14 q 126 81 205 -14 q 45 322 45 174 l 45 334 m 563 846 l 444 846 l 352 941 l 261 846 l 143 846 l 143 854 l 309 1023 l 396 1023 l 563 853 l 563 846 z "},"õ":{"ha":711,"x_min":45,"x_max":651,"o":"m 194 321 q 232 163 194 223 q 349 103 270 103 q 465 163 427 103 q 505 321 505 224 l 505 334 q 465 489 505 429 q 349 551 427 551 q 232 490 270 551 q 193 334 193 429 l 194 321 m 45 334 q 126 576 45 481 q 348 671 207 671 q 570 576 490 671 q 651 335 651 483 l 651 322 q 570 80 651 173 q 348 -14 489 -14 q 127 81 206 -14 q 46 322 46 174 l 45 334 m 441 852 q 399 858 416 852 q 351 881 381 863 q 307 902 320 898 q 273 907 293 907 q 236 889 252 907 q 220 844 220 871 l 130 848 q 168 962 130 916 q 265 1007 207 1007 q 349 980 289 1007 q 431 952 409 952 q 470 970 454 952 q 486 1016 486 988 l 577 1008 q 538 897 577 941 q 441 852 499 852 z "},"ö":{"ha":711,"x_min":45,"x_max":651,"o":"m 194 321 q 232 163 194 223 q 349 103 270 103 q 465 163 427 103 q 505 321 505 224 l 505 334 q 465 489 505 429 q 349 551 427 551 q 232 490 270 551 q 193 334 193 429 l 194 321 m 45 334 q 126 576 45 481 q 348 671 207 671 q 570 576 490 671 q 651 335 651 483 l 651 322 q 570 80 651 173 q 348 -14 489 -14 q 127 81 206 -14 q 46 322 46 174 l 45 334 m 573 918 q 573 902 573 918 q 552 866 573 886 q 495 846 531 846 q 439 866 460 846 q 418 918 418 886 q 439 969 418 949 q 495 989 460 989 q 552 969 531 989 q 573 918 573 949 m 273 867 q 262 857 273 867 q 216 846 252 846 q 160 867 181 846 q 140 918 140 887 q 160 970 140 949 q 216 990 181 990 q 273 970 252 990 q 294 918 294 949 q 273 867 294 887 z "},"÷":{"ha":713,"x_min":41,"x_max":659,"o":"m 425 250 l 425 115 l 277 115 l 277 250 l 425 250 m 659 496 l 659 367 l 41 367 l 41 496 l 659 496 m 425 747 l 425 613 l 277 613 l 277 747 l 425 747 z "},"ø":{"ha":708,"x_min":49,"x_max":663,"o":"m 356 97 q 473 156 431 97 q 515 327 515 215 q 479 474 515 418 l 298 107 q 356 97 327 97 m 355 545 q 238 486 280 545 q 197 324 197 428 q 235 159 197 220 l 418 531 q 355 545 388 545 m 355 663 q 474 643 419 663 l 517 730 l 606 730 l 543 603 q 663 314 663 509 q 626 139 663 216 q 518 21 588 63 q 356 -22 448 -22 q 244 -3 303 -22 l 200 -93 l 112 -93 l 174 33 q 49 326 49 125 q 87 502 49 424 q 195 621 125 580 q 355 663 263 663 z "},"ù":{"ha":694,"x_min":66,"x_max":623,"o":"m 292 -14 q 125 55 183 -14 q 66 264 66 123 l 66 659 l 214 659 l 214 263 q 241 142 214 178 q 327 106 268 106 q 475 182 431 106 l 475 659 l 623 659 l 623 -1 l 494 -1 l 481 95 q 292 -14 415 -14 m 324 984 l 437 822 l 317 822 l 159 981 l 161 984 l 324 984 z "},"ú":{"ha":694,"x_min":66,"x_max":623,"o":"m 292 -14 q 125 55 183 -14 q 66 264 66 123 l 66 659 l 214 659 l 214 263 q 241 142 214 178 q 327 106 268 106 q 475 182 431 106 l 475 659 l 623 659 l 623 -1 l 494 -1 l 481 95 q 292 -14 415 -14 m 287 836 l 406 1021 l 575 1021 l 406 836 l 287 836 z "},"û":{"ha":694,"x_min":66,"x_max":623,"o":"m 292 -14 q 125 55 183 -14 q 66 264 66 123 l 66 659 l 214 659 l 214 263 q 241 142 214 178 q 327 106 268 106 q 475 182 431 106 l 475 659 l 623 659 l 623 -1 l 494 -1 l 481 95 q 292 -14 415 -14 m 555 846 l 436 846 l 345 941 l 254 846 l 136 846 l 136 854 l 301 1023 l 389 1023 l 555 853 l 555 846 z "},"ü":{"ha":694,"x_min":66,"x_max":623,"o":"m 292 -14 q 125 55 183 -14 q 66 264 66 123 l 66 659 l 214 659 l 214 263 q 241 142 214 178 q 327 106 268 106 q 475 182 431 106 l 475 659 l 623 659 l 623 -1 l 494 -1 l 481 95 q 292 -14 415 -14 m 565 918 q 565 902 565 918 q 544 866 565 886 q 487 846 523 846 q 431 866 452 846 q 410 918 410 886 q 431 969 410 949 q 487 989 452 989 q 544 969 523 989 q 565 918 565 949 m 264 867 q 254 857 264 867 q 208 846 243 846 q 152 867 173 846 q 132 918 132 887 q 152 970 132 949 q 208 990 173 990 q 264 970 243 990 q 286 918 286 949 q 264 867 286 887 z "},"ý":{"ha":608,"x_min":9,"x_max":623,"o":"m 140 -296 q 60 -284 113 -296 l 77 -170 q 121 -172 120 -172 q 224 -81 187 -172 l 249 -22 l 9 631 l 171 631 l 297 235 l 312 170 l 315 170 l 460 631 l 623 631 l 349 -130 q 271 -252 319 -208 q 140 -296 222 -296 m 256 836 l 375 1021 l 545 1021 l 375 836 l 256 836 z "},"þ":{"ha":718,"x_min":79,"x_max":659,"o":"m 659 305 l 659 295 q 589 51 659 143 q 401 -41 519 -41 q 228 31 293 -41 l 228 -282 l 79 -282 l 79 909 l 228 909 l 228 572 q 400 644 292 644 q 590 555 521 644 q 659 305 659 465 m 359 78 q 471 136 432 78 q 510 302 510 193 q 470 467 510 410 q 358 523 431 523 q 228 448 267 523 l 228 155 q 359 78 268 78 z "},"ÿ":{"ha":608,"x_min":9,"x_max":623,"o":"m 140 -296 q 60 -284 113 -296 l 77 -170 q 121 -172 120 -172 q 224 -81 187 -172 l 249 -22 l 9 631 l 171 631 l 297 235 l 312 170 l 315 170 l 460 631 l 623 631 l 349 -130 q 271 -252 319 -208 q 140 -296 222 -296 m 534 918 q 534 902 534 918 q 513 866 534 886 q 457 846 492 846 q 400 866 421 846 q 379 918 379 886 q 400 969 379 949 q 457 989 421 989 q 513 969 492 989 q 534 918 534 949 m 234 867 q 223 857 234 867 q 178 846 213 846 q 122 867 142 846 q 101 918 101 887 q 122 970 101 949 q 178 990 142 990 q 234 970 213 990 q 255 918 255 949 q 234 867 255 887 z "},"Ā":{"ha":832,"x_min":8,"x_max":798,"o":"m 648 0 l 577 208 l 229 208 l 159 0 l 8 0 l 335 888 l 475 888 l 798 0 l 648 0 m 403 711 l 272 332 l 535 332 l 406 711 l 403 711 m 654 1190 l 654 1093 l 210 1093 l 210 1190 l 654 1190 z "},"ā":{"ha":676,"x_min":45,"x_max":621,"o":"m 258 -14 q 100 38 156 -14 q 45 186 45 91 q 120 334 45 281 q 334 387 195 387 l 449 387 l 449 446 q 418 527 449 498 q 334 556 388 556 q 250 532 280 556 q 220 469 220 508 l 77 469 l 76 472 q 147 612 72 553 q 340 671 222 671 q 528 612 458 671 q 597 444 597 553 l 597 151 q 621 -1 597 69 l 470 -2 q 450 95 454 50 q 368 16 417 46 q 258 -14 318 -14 m 193 187 l 193 187 q 218 127 193 149 q 293 105 243 105 q 388 132 343 105 q 448 197 433 159 l 448 294 l 330 294 q 230 263 268 294 q 193 187 193 233 m 569 979 l 569 883 l 125 883 l 125 979 l 569 979 z "},"Ă":{"ha":832,"x_min":8,"x_max":798,"o":"m 648 0 l 577 208 l 229 208 l 159 0 l 8 0 l 335 888 l 475 888 l 798 0 l 648 0 m 403 711 l 272 332 l 535 332 l 406 711 l 403 711 m 519 1215 l 631 1215 q 577 1090 631 1137 q 434 1043 524 1043 q 291 1090 345 1043 q 237 1215 237 1137 l 348 1215 q 371 1153 348 1175 q 434 1131 393 1131 q 497 1153 475 1131 q 519 1215 519 1175 z "},"ă":{"ha":676,"x_min":45,"x_max":621,"o":"m 259 -14 q 101 38 157 -14 q 45 186 45 91 q 121 334 45 281 q 334 387 196 387 l 450 387 l 450 446 q 419 527 450 498 q 335 556 389 556 q 251 532 281 556 q 220 469 220 508 l 77 469 l 77 472 q 148 612 73 553 q 341 671 223 671 q 528 612 459 671 q 597 444 597 553 l 597 151 q 621 -1 597 69 l 471 -2 q 450 95 454 50 q 368 16 418 46 q 259 -14 319 -14 m 193 187 l 194 187 q 219 127 194 149 q 294 105 243 105 q 389 132 344 105 q 449 197 433 159 l 449 294 l 331 294 q 231 263 269 294 q 193 187 193 233 m 435 1005 l 547 1005 q 493 880 547 927 q 350 833 439 833 q 207 880 260 833 q 153 1005 153 927 l 264 1005 q 287 942 264 964 q 350 920 309 920 q 413 942 391 920 q 435 1005 435 964 z "},"Ą":{"ha":832,"x_min":11,"x_max":822,"o":"m 416 671 l 288 302 l 545 302 l 416 671 m 686 -151 q 730 -192 686 -192 q 784 -178 755 -192 l 797 -264 q 695 -292 753 -292 q 602 -258 637 -292 q 567 -169 567 -224 q 658 -23 567 -83 l 588 178 l 243 178 l 172 -29 l 11 -29 l 347 859 l 486 859 l 822 -29 l 785 -29 q 709 -91 732 -62 q 686 -151 686 -120 z "},"ą":{"ha":676,"x_min":56,"x_max":622,"o":"m 204 170 q 232 102 204 127 q 307 77 260 77 q 391 98 353 77 q 450 155 430 119 l 450 279 l 370 279 q 204 170 204 279 m 454 31 q 283 -43 385 -43 q 119 13 182 -43 q 56 155 56 69 q 134 317 56 260 q 358 373 212 373 l 450 373 l 450 416 q 420 499 450 469 q 336 530 391 530 q 250 505 282 530 q 217 440 217 479 l 69 440 q 105 542 69 495 q 203 616 141 589 q 341 643 265 643 q 527 584 458 643 q 597 420 595 526 l 597 123 q 622 -19 597 35 l 622 -29 l 596 -29 q 520 -92 543 -63 q 498 -151 498 -120 q 541 -192 498 -192 q 596 -178 568 -192 l 609 -264 q 508 -292 565 -292 q 415 -258 450 -292 q 380 -169 380 -224 l 380 -170 q 469 -26 380 -85 q 454 31 463 -14 z "},"Ć":{"ha":816,"x_min":58,"x_max":743,"o":"m 595 294 l 739 294 l 740 290 q 652 69 742 153 q 407 -14 562 -14 q 155 90 252 -14 q 58 358 58 194 l 58 527 q 154 795 58 691 q 406 900 250 900 q 652 818 562 900 q 741 595 743 735 l 739 591 l 595 591 q 547 732 595 682 q 406 781 498 781 q 260 710 314 781 q 206 528 206 639 l 206 358 q 261 175 206 246 q 408 104 316 104 q 548 153 500 104 q 595 294 595 201 m 366 1061 l 484 1246 l 654 1246 l 484 1061 l 366 1061 z "},"ć":{"ha":654,"x_min":43,"x_max":613,"o":"m 193 318 l 192 318 q 345 104 192 104 q 437 136 400 104 q 473 216 473 168 l 608 216 l 609 213 q 534 53 612 120 q 345 -14 456 -14 q 123 77 202 -14 q 43 318 43 169 l 43 339 q 123 579 43 488 q 345 671 202 671 q 539 602 465 671 q 610 426 613 533 l 609 422 l 474 422 q 438 515 474 478 q 346 552 403 552 q 229 495 266 552 q 193 339 193 438 l 193 318 m 264 836 l 383 1021 l 553 1021 l 383 836 l 264 836 z "},"Č":{"ha":816,"x_min":58,"x_max":743,"o":"m 595 294 l 739 294 l 740 290 q 652 69 742 153 q 407 -14 562 -14 q 155 90 252 -14 q 58 358 58 194 l 58 527 q 154 795 58 691 q 406 900 250 900 q 652 818 562 900 q 741 595 743 735 l 739 591 l 595 591 q 547 732 595 682 q 406 781 498 781 q 260 710 314 781 q 206 528 206 639 l 206 358 q 261 175 206 246 q 408 104 316 104 q 548 153 500 104 q 595 294 595 201 m 640 1247 l 640 1241 l 470 1071 l 378 1071 l 210 1242 l 210 1247 l 335 1247 l 424 1153 l 513 1247 l 640 1247 z "},"č":{"ha":654,"x_min":43,"x_max":613,"o":"m 193 318 l 192 318 q 345 104 192 104 q 437 136 400 104 q 473 216 473 168 l 608 216 l 609 213 q 534 53 612 120 q 345 -14 456 -14 q 123 77 202 -14 q 43 318 43 169 l 43 339 q 123 579 43 488 q 345 671 202 671 q 539 602 465 671 q 610 426 613 533 l 609 422 l 474 422 q 438 515 474 478 q 346 552 403 552 q 229 495 266 552 q 193 339 193 438 l 193 318 m 539 1023 l 539 1017 l 369 846 l 277 846 l 109 1017 l 109 1023 l 234 1023 l 323 928 l 412 1023 l 539 1023 z "},"Ď":{"ha":817,"x_min":87,"x_max":756,"o":"m 371 770 l 235 770 l 235 119 l 371 119 q 544 190 480 119 q 608 376 608 260 l 608 513 q 544 699 608 628 q 371 770 480 770 m 375 0 l 87 0 l 87 888 l 375 888 q 650 783 545 888 q 756 511 756 678 l 756 376 q 650 105 756 210 q 375 0 545 0 m 560 1238 l 560 1232 l 390 1061 l 298 1061 l 130 1232 l 130 1238 l 255 1238 l 344 1143 l 433 1238 l 560 1238 z "},"ď":{"ha":797,"x_min":45,"x_max":621,"o":"m 45 307 l 45 319 q 114 576 45 480 q 303 671 182 671 q 473 587 408 671 l 473 951 l 621 951 l 621 -1 l 497 -1 l 482 81 q 299 -14 417 -14 q 114 73 182 -14 q 45 307 45 160 m 193 319 l 193 307 q 230 159 193 212 q 340 106 266 106 q 474 184 430 106 l 474 472 q 341 550 429 550 q 230 488 267 550 q 193 319 193 427 z "},"Đ":{"ha":835,"x_min":-6,"x_max":771,"o":"m 402 502 l 402 398 l 262 398 l 262 123 l 362 123 q 551 200 486 123 q 616 425 616 277 l 616 467 q 553 688 616 612 q 370 764 490 764 l 262 764 l 262 502 l 402 502 m 364 0 l 108 0 l 108 398 l -6 398 l -6 502 l 108 502 l 108 888 l 370 888 q 580 837 489 888 q 721 688 671 785 q 771 467 771 591 l 771 422 q 721 200 771 295 q 578 52 671 104 q 364 0 485 0 z "},"đ":{"ha":724,"x_min":47,"x_max":734,"o":"m 626 746 l 626 -2 l 492 -2 l 485 66 q 303 -14 417 -14 q 119 79 190 -14 q 47 330 47 173 q 118 579 47 487 q 309 671 189 671 q 479 598 414 671 l 479 747 l 326 747 l 326 850 l 479 850 l 479 936 l 627 936 l 627 850 l 734 850 l 733 746 l 626 746 m 347 550 q 235 492 273 550 q 197 327 197 435 q 235 163 197 220 q 345 107 274 107 q 479 189 437 107 l 479 471 q 347 550 437 550 z "},"Ē":{"ha":707,"x_min":88,"x_max":688,"o":"m 625 519 l 625 400 l 237 400 l 237 119 l 688 119 l 688 0 l 88 0 l 88 888 l 684 888 l 684 770 l 237 770 l 237 519 l 625 519 m 606 1194 l 606 1098 l 163 1098 l 163 1194 l 606 1194 z "},"ē":{"ha":671,"x_min":49,"x_max":614,"o":"m 469 410 q 436 513 469 475 q 344 552 403 552 q 250 510 286 552 q 205 398 214 467 l 206 395 l 469 395 l 469 410 m 598 64 q 362 -14 508 -14 q 133 77 216 -14 q 49 313 49 168 l 49 338 q 131 577 49 483 q 342 672 214 672 q 543 592 471 671 q 614 374 614 512 l 614 286 l 203 286 l 201 283 q 249 153 205 202 q 365 104 292 104 q 466 118 423 104 q 550 161 508 132 l 597 64 l 598 64 m 562 979 l 562 883 l 118 883 l 118 979 l 562 979 z "},"Ė":{"ha":707,"x_min":87,"x_max":686,"o":"m 624 519 l 624 400 l 235 400 l 235 119 l 686 119 l 686 0 l 87 0 l 87 888 l 682 888 l 682 770 l 235 770 l 235 519 l 624 519 m 456 1087 q 445 1077 456 1087 q 397 1067 435 1067 q 338 1087 359 1067 q 317 1141 317 1108 q 338 1196 317 1175 q 397 1217 359 1217 q 456 1196 435 1217 q 477 1141 477 1175 q 456 1087 477 1108 z "},"ė":{"ha":671,"x_min":49,"x_max":614,"o":"m 469 410 q 436 513 469 475 q 344 552 403 552 q 250 510 286 552 q 205 398 214 467 l 206 395 l 469 395 l 469 410 m 598 64 q 362 -14 508 -14 q 133 77 216 -14 q 49 313 49 168 l 49 338 q 131 577 49 483 q 342 672 214 672 q 543 592 471 671 q 614 374 614 512 l 614 286 l 203 286 l 201 283 q 249 153 205 202 q 365 104 292 104 q 466 118 423 104 q 550 161 508 132 l 597 64 l 598 64 m 412 872 q 402 862 412 872 q 353 852 391 852 q 294 872 315 852 q 273 926 273 893 q 294 981 273 960 q 353 1002 315 1002 q 412 981 391 1002 q 433 926 433 960 q 412 872 433 893 z "},"Ę":{"ha":707,"x_min":90,"x_max":671,"o":"m 610 490 l 610 368 l 245 368 l 245 94 l 671 94 l 671 -29 l 604 -29 q 528 -92 551 -63 q 505 -151 505 -120 q 549 -192 505 -192 q 604 -178 574 -192 l 616 -264 q 515 -292 572 -292 q 422 -258 458 -292 q 387 -169 387 -224 q 469 -29 387 -87 l 90 -29 l 90 859 l 667 859 l 667 735 l 245 735 l 245 490 l 610 490 z "},"ę":{"ha":671,"x_min":51,"x_max":631,"o":"m 349 526 q 250 484 288 526 q 202 364 212 441 l 485 364 l 485 375 q 349 526 473 526 m 410 -133 q 453 -174 410 -174 q 508 -161 479 -174 l 521 -247 q 419 -274 477 -274 q 326 -240 361 -274 q 291 -148 291 -207 q 340 -39 291 -88 q 134 53 213 -31 q 51 268 54 136 l 51 303 q 89 481 51 403 q 195 602 126 559 q 349 646 264 646 q 558 560 485 646 q 631 316 631 474 l 631 256 l 199 256 q 254 126 206 174 q 375 79 301 79 q 541 161 477 79 l 621 84 q 508 -12 575 19 q 432 -74 455 -45 q 410 -133 410 -102 z "},"Ě":{"ha":707,"x_min":88,"x_max":688,"o":"m 625 519 l 625 400 l 237 400 l 237 119 l 688 119 l 688 0 l 88 0 l 88 888 l 684 888 l 684 770 l 237 770 l 237 519 l 625 519 m 600 1238 l 600 1232 l 429 1061 l 338 1061 l 169 1232 l 169 1238 l 294 1238 l 383 1143 l 473 1238 l 600 1238 z "},"ě":{"ha":671,"x_min":49,"x_max":614,"o":"m 469 410 q 436 513 469 475 q 344 552 403 552 q 250 510 286 552 q 205 398 214 467 l 206 395 l 469 395 l 469 410 m 598 64 q 362 -14 508 -14 q 133 77 216 -14 q 49 313 49 168 l 49 338 q 131 577 49 483 q 342 672 214 672 q 543 592 471 671 q 614 374 614 512 l 614 286 l 203 286 l 201 283 q 249 153 205 202 q 365 104 292 104 q 466 118 423 104 q 550 161 508 132 l 597 64 l 598 64 m 555 1023 l 555 1017 l 385 846 l 293 846 l 124 1017 l 124 1023 l 250 1023 l 338 928 l 428 1023 l 555 1023 z "},"Ğ":{"ha":851,"x_min":59,"x_max":752,"o":"m 427 -14 q 162 87 265 -14 q 59 350 59 189 l 59 536 q 157 799 59 698 q 410 900 254 900 q 653 824 566 900 q 743 622 741 749 l 741 618 l 601 618 q 548 738 596 694 q 411 781 500 781 q 264 713 321 781 q 208 537 208 644 l 208 350 q 269 173 208 241 q 428 104 330 104 q 604 159 555 104 l 604 339 l 427 339 l 427 450 l 752 450 l 751 119 q 628 24 711 62 q 427 -14 546 -14 m 510 1230 l 622 1230 q 568 1104 622 1152 q 425 1057 514 1057 q 281 1104 335 1057 q 227 1230 227 1152 l 338 1230 q 361 1167 338 1189 q 425 1145 384 1145 q 488 1167 465 1145 q 510 1230 510 1189 z "},"ğ":{"ha":709,"x_min":47,"x_max":626,"o":"m 47 292 q 117 547 47 452 q 305 643 186 643 q 488 545 425 643 l 503 631 l 626 631 l 626 -30 q 548 -227 626 -158 q 323 -296 469 -296 q 219 -283 275 -296 q 119 -246 164 -269 l 151 -130 q 315 -170 228 -170 q 440 -136 403 -170 q 477 -30 477 -102 l 477 38 q 306 -43 413 -43 q 116 45 185 -43 q 47 279 47 132 l 47 292 m 195 292 l 195 279 q 232 132 195 184 q 344 79 269 79 q 477 155 435 79 l 477 445 q 345 522 433 522 q 233 459 271 522 q 195 292 195 397 m 427 1005 l 539 1005 q 485 880 539 927 q 342 833 431 833 q 198 880 252 833 q 144 1005 144 927 l 256 1005 q 278 942 256 964 q 342 920 301 920 q 405 942 382 920 q 427 1005 427 964 z "},"Ģ":{"ha":851,"x_min":60,"x_max":753,"o":"m 428 -14 q 163 87 266 -14 q 60 350 60 189 l 60 536 q 157 799 60 698 q 411 900 255 900 q 654 824 566 900 q 743 622 741 749 l 742 618 l 602 618 q 549 738 597 694 q 411 781 501 781 q 265 713 321 781 q 208 537 208 644 l 208 350 q 270 173 208 241 q 429 104 331 104 q 604 159 556 104 l 604 339 l 428 339 l 428 450 l 753 450 l 752 119 q 629 24 711 62 q 428 -14 547 -14 z "},"ģ":{"ha":709,"x_min":47,"x_max":626,"o":"m 47 292 q 117 547 47 452 q 305 643 186 643 q 488 545 425 643 l 503 631 l 626 631 l 626 -30 q 548 -227 626 -158 q 323 -296 469 -296 q 219 -283 275 -296 q 119 -246 164 -269 l 151 -130 q 315 -170 228 -170 q 440 -136 403 -170 q 477 -30 477 -102 l 477 38 q 306 -43 413 -43 q 116 45 185 -43 q 47 279 47 132 l 47 292 m 195 292 l 195 279 q 232 132 195 184 q 344 79 269 79 q 477 155 435 79 l 477 445 q 345 522 433 522 q 233 459 271 522 q 195 292 195 397 z "},"Ī":{"ha":353,"x_min":-52,"x_max":392,"o":"m 259 888 l 259 0 l 111 0 l 111 888 l 259 888 m 392 1194 l 392 1098 l -52 1098 l -52 1194 l 392 1194 z "},"ī":{"ha":328,"x_min":-64,"x_max":379,"o":"m 241 661 l 241 0 l 94 0 l 94 661 l 241 661 m 379 975 l 379 878 l -64 878 l -64 975 l 379 975 z "},"Į":{"ha":353,"x_min":12,"x_max":252,"o":"m 241 -260 q 139 -288 197 -288 q 47 -254 82 -288 q 12 -165 12 -220 q 136 0 12 -64 l 104 0 l 104 888 l 252 888 l 252 0 l 182 0 l 228 -25 q 153 -87 176 -58 q 130 -146 130 -116 q 173 -188 130 -188 q 228 -174 199 -188 l 241 -260 z "},"į":{"ha":319,"x_min":-3,"x_max":236,"o":"m 126 -292 l 126 -291 q 33 -257 68 -291 q -3 -168 -3 -224 q 130 0 -3 -65 l 88 0 l 88 661 l 236 661 l 236 0 l 160 0 l 214 -29 q 139 -91 161 -62 q 116 -151 116 -120 q 159 -192 116 -192 q 214 -178 185 -192 l 227 -264 q 126 -292 182 -292 m 236 952 l 236 822 l 88 822 l 88 952 l 236 952 z "},"İ":{"ha":353,"x_min":88,"x_max":248,"o":"m 244 888 l 244 0 l 96 0 l 96 888 l 244 888 m 227 1087 q 217 1077 227 1087 q 168 1067 206 1067 q 109 1087 130 1067 q 88 1141 88 1108 q 109 1196 88 1175 q 168 1217 130 1217 q 227 1196 206 1217 q 248 1141 248 1175 q 227 1087 248 1108 z "},"ı":{"ha":328,"x_min":87,"x_max":235,"o":"m 235 661 l 235 0 l 87 0 l 87 661 l 235 661 z "},"Ķ":{"ha":788,"x_min":87,"x_max":800,"o":"m 235 385 l 235 0 l 87 0 l 87 888 l 235 888 l 235 512 l 320 512 l 599 888 l 774 888 l 451 465 l 800 0 l 618 0 l 338 385 l 235 385 z "},"ķ":{"ha":652,"x_min":70,"x_max":653,"o":"m 218 289 l 218 0 l 70 0 l 70 952 l 218 952 l 218 408 l 279 408 l 446 661 l 621 661 l 403 360 l 653 0 l 481 0 l 284 289 l 218 289 z "},"Ĺ":{"ha":676,"x_min":86,"x_max":644,"o":"m 235 888 l 235 119 l 644 119 l 644 0 l 87 0 l 87 888 l 235 888 m 86 1046 l 205 1232 l 374 1232 l 205 1046 l 86 1046 z "},"ĺ":{"ha":319,"x_min":77,"x_max":366,"o":"m 227 952 l 227 0 l 79 0 l 79 952 l 227 952 m 77 1108 l 196 1293 l 366 1293 l 196 1108 l 77 1108 z "},"Ļ":{"ha":676,"x_min":87,"x_max":644,"o":"m 235 888 l 235 119 l 644 119 l 644 0 l 87 0 l 87 888 l 235 888 z "},"ļ":{"ha":319,"x_min":79,"x_max":227,"o":"m 227 952 l 227 0 l 79 0 l 79 952 l 227 952 z "},"Ľ":{"ha":676,"x_min":87,"x_max":644,"o":"m 235 888 l 235 119 l 644 119 l 644 0 l 87 0 l 87 888 l 235 888 z "},"ľ":{"ha":411,"x_min":79,"x_max":227,"o":"m 227 952 l 227 0 l 79 0 l 79 952 l 227 952 z "},"Ł":{"ha":686,"x_min":21,"x_max":658,"o":"m 254 888 l 254 532 l 397 575 l 397 486 l 254 442 l 254 123 l 658 123 l 658 0 l 100 0 l 100 395 l 21 371 l 21 461 l 100 485 l 100 888 l 254 888 z "},"ł":{"ha":361,"x_min":20,"x_max":340,"o":"m 250 937 l 250 543 l 340 575 l 340 486 l 250 454 l 250 0 l 102 0 l 102 400 l 20 372 l 20 461 l 102 490 l 102 937 l 250 937 z "},"Ń":{"ha":888,"x_min":88,"x_max":782,"o":"m 782 888 l 782 0 l 635 0 l 240 649 l 237 648 l 237 0 l 88 0 l 88 888 l 237 888 l 631 241 l 635 241 l 635 888 l 782 888 m 393 1046 l 511 1232 l 681 1232 l 511 1046 l 393 1046 z "},"ń":{"ha":695,"x_min":68,"x_max":624,"o":"m 405 673 q 567 609 511 673 q 624 415 624 545 l 624 0 l 475 0 l 475 414 q 445 519 475 488 q 351 551 415 551 q 217 479 265 551 l 217 0 l 68 0 l 68 661 l 204 660 l 213 564 q 405 673 281 673 m 290 836 l 408 1021 l 578 1021 l 408 836 l 290 836 z "},"Ņ":{"ha":888,"x_min":87,"x_max":781,"o":"m 781 888 l 781 0 l 633 0 l 239 649 l 235 648 l 235 0 l 87 0 l 87 888 l 235 888 l 629 241 l 633 241 l 633 888 l 781 888 z "},"ņ":{"ha":695,"x_min":68,"x_max":624,"o":"m 405 673 q 567 609 511 673 q 624 415 624 545 l 624 0 l 475 0 l 475 414 q 445 519 475 488 q 351 551 415 551 q 217 479 265 551 l 217 0 l 68 0 l 68 661 l 204 660 l 213 564 q 405 673 281 673 z "},"Ň":{"ha":888,"x_min":87,"x_max":781,"o":"m 781 888 l 781 0 l 633 0 l 239 649 l 235 648 l 235 0 l 87 0 l 87 888 l 235 888 l 629 241 l 633 241 l 633 888 l 781 888 m 666 1233 l 666 1227 l 496 1057 l 404 1057 l 235 1227 l 235 1233 l 361 1233 l 450 1139 l 539 1233 l 666 1233 z "},"ň":{"ha":695,"x_min":68,"x_max":624,"o":"m 405 673 q 567 609 511 673 q 624 415 624 545 l 624 0 l 475 0 l 475 414 q 445 519 475 488 q 351 551 415 551 q 217 479 265 551 l 217 0 l 68 0 l 68 661 l 204 660 l 213 564 q 405 673 281 673 m 564 1023 l 564 1017 l 394 846 l 302 846 l 134 1017 l 134 1023 l 259 1023 l 348 928 l 437 1023 l 564 1023 z "},"Ō":{"ha":863,"x_min":57,"x_max":784,"o":"m 636 363 l 636 524 q 576 708 636 637 q 417 778 516 778 q 262 708 319 778 q 205 524 205 637 l 205 363 q 262 178 205 249 q 418 107 319 107 q 577 178 517 107 q 636 363 636 248 m 784 523 l 784 363 q 682 92 784 198 q 418 -14 579 -14 q 157 92 257 -14 q 57 363 57 198 l 57 523 q 157 793 57 687 q 416 900 257 900 q 607 851 523 900 q 738 716 692 802 q 784 523 784 631 m 665 1190 l 665 1093 l 221 1093 l 221 1190 l 665 1190 z "},"ō":{"ha":711,"x_min":45,"x_max":651,"o":"m 194 321 q 232 163 194 223 q 349 103 270 103 q 465 163 427 103 q 505 321 505 224 l 505 334 q 465 489 505 429 q 349 551 427 551 q 232 490 270 551 q 193 334 193 429 l 194 321 m 45 334 q 126 576 45 481 q 348 671 207 671 q 570 576 490 671 q 651 335 651 483 l 651 322 q 570 80 651 173 q 348 -14 489 -14 q 127 81 206 -14 q 46 322 46 174 l 45 334 m 576 979 l 576 883 l 133 883 l 133 979 l 576 979 z "},"Ő":{"ha":863,"x_min":57,"x_max":784,"o":"m 636 363 l 636 524 q 576 708 636 637 q 417 778 516 778 q 262 708 319 778 q 205 524 205 637 l 205 363 q 262 178 205 249 q 418 107 319 107 q 577 178 517 107 q 636 363 636 248 m 784 523 l 784 363 q 682 92 784 198 q 418 -14 579 -14 q 157 92 257 -14 q 57 363 57 198 l 57 523 q 157 793 57 687 q 416 900 257 900 q 607 851 523 900 q 738 716 692 802 q 784 523 784 631 m 473 1046 l 610 1231 l 756 1231 l 593 1046 l 473 1046 m 279 1046 l 385 1231 l 528 1231 l 392 1046 l 279 1046 z "},"ő":{"ha":711,"x_min":45,"x_max":668,"o":"m 194 321 q 232 163 194 223 q 349 103 270 103 q 465 163 427 103 q 505 321 505 224 l 505 334 q 465 489 505 429 q 349 551 427 551 q 232 490 270 551 q 193 334 193 429 l 194 321 m 45 334 q 126 576 45 481 q 348 671 207 671 q 570 576 490 671 q 651 335 651 483 l 651 322 q 570 80 651 173 q 348 -14 489 -14 q 127 81 206 -14 q 46 322 46 174 l 45 334 m 385 836 l 522 1021 l 668 1021 l 505 836 l 385 836 m 191 836 l 297 1021 l 439 1021 l 304 836 l 191 836 z "},"Œ":{"ha":1204,"x_min":60,"x_max":1121,"o":"m 208 350 l 208 350 q 261 169 208 232 q 414 105 315 105 q 538 113 479 105 l 538 772 q 413 781 470 781 q 262 718 315 781 q 208 539 209 655 l 208 350 m 415 -14 q 232 31 313 -14 q 106 158 151 76 q 60 344 61 241 l 60 536 q 105 725 60 642 q 230 853 149 808 q 414 899 310 899 q 592 887 490 899 l 1117 887 l 1117 763 l 694 763 l 694 517 l 1059 517 l 1059 395 l 694 395 l 694 122 l 1121 122 l 1120 -1 l 591 -1 q 415 -14 488 -14 z "},"œ":{"ha":1129,"x_min":56,"x_max":1086,"o":"m 514 328 q 514 382 514 328 q 473 494 514 437 q 358 552 432 552 q 244 494 285 552 q 204 327 204 437 q 244 161 204 218 q 359 105 285 105 q 474 162 434 105 q 514 328 514 220 m 939 410 q 905 515 939 478 q 814 552 871 552 q 721 510 758 552 q 673 395 685 469 l 939 395 l 939 410 m 358 671 q 592 564 511 671 q 809 672 677 673 q 1014 593 941 672 q 1086 370 1086 515 l 1086 287 l 669 287 q 720 153 676 201 q 836 105 764 105 q 935 118 892 105 q 1021 161 978 131 l 1069 64 q 827 -14 980 -14 q 591 93 675 -14 q 359 -14 511 -14 q 138 78 220 -14 q 56 328 56 170 l 56 335 q 139 579 56 487 q 358 671 221 671 z "},"Ŕ":{"ha":780,"x_min":88,"x_max":772,"o":"m 434 369 l 237 369 l 237 0 l 88 0 l 88 888 l 416 888 q 647 822 566 888 q 728 630 728 755 q 588 431 728 492 q 729 221 729 387 l 729 147 q 772 14 729 50 l 772 0 l 619 0 q 581 149 581 33 l 581 220 q 542 329 581 289 q 434 369 503 369 m 237 770 l 237 488 l 409 488 q 539 522 498 488 q 580 625 580 555 q 539 732 580 695 q 416 770 498 770 l 237 770 m 310 1046 l 429 1232 l 598 1232 l 429 1046 l 310 1046 z "},"ŕ":{"ha":439,"x_min":70,"x_max":467,"o":"m 218 0 l 70 0 l 70 661 l 205 661 l 215 565 q 371 673 269 673 q 417 665 397 673 l 399 527 l 336 529 q 218 459 251 529 l 218 0 m 178 836 l 297 1021 l 467 1021 l 297 836 l 178 836 z "},"Ŗ":{"ha":780,"x_min":87,"x_max":770,"o":"m 433 369 l 235 369 l 235 0 l 87 0 l 87 888 l 415 888 q 646 822 565 888 q 726 630 726 755 q 587 431 726 492 q 728 221 728 387 l 728 147 q 770 14 728 50 l 770 0 l 618 0 q 579 149 579 33 l 579 220 q 540 329 579 289 q 433 369 501 369 m 235 770 l 235 488 l 408 488 q 537 522 496 488 q 578 625 578 555 q 537 732 578 695 q 415 770 496 770 l 235 770 z "},"ŗ":{"ha":439,"x_min":69,"x_max":416,"o":"m 218 0 l 69 0 l 69 661 l 205 661 l 214 565 q 370 673 269 673 q 416 665 396 673 l 398 527 l 335 529 q 218 459 250 529 l 218 0 z "},"Ř":{"ha":780,"x_min":87,"x_max":770,"o":"m 433 369 l 235 369 l 235 0 l 87 0 l 87 888 l 415 888 q 646 822 565 888 q 726 630 726 755 q 587 431 726 492 q 728 221 728 387 l 728 147 q 770 14 728 50 l 770 0 l 618 0 q 579 149 579 33 l 579 220 q 540 329 579 289 q 433 369 501 369 m 235 770 l 235 488 l 408 488 q 537 522 496 488 q 578 625 578 555 q 537 732 578 695 q 415 770 496 770 l 235 770 m 583 1233 l 583 1227 l 413 1057 l 321 1057 l 153 1227 l 153 1233 l 278 1233 l 367 1139 l 456 1233 l 583 1233 z "},"ř":{"ha":439,"x_min":26,"x_max":457,"o":"m 222 0 l 73 0 l 73 661 l 209 661 l 218 565 q 374 673 273 673 q 420 665 400 673 l 402 527 l 339 529 q 222 459 254 529 l 222 0 m 457 1023 l 457 1017 l 287 846 l 195 846 l 26 1017 l 26 1023 l 152 1023 l 241 928 l 330 1023 l 457 1023 z "},"Ś":{"ha":754,"x_min":52,"x_max":723,"o":"m 401 103 q 529 136 483 103 q 574 226 574 169 q 533 318 574 283 q 388 381 491 353 q 155 487 233 422 q 78 657 78 552 q 167 831 78 762 q 398 900 256 900 q 630 823 541 900 q 718 632 720 745 l 716 629 l 574 629 q 527 740 574 699 q 398 782 480 782 q 271 747 315 782 q 227 658 227 712 q 273 571 227 604 q 431 507 320 538 q 650 400 577 468 q 723 224 723 332 q 635 52 723 117 q 401 -14 547 -14 q 268 5 331 -14 q 156 59 204 24 q 80 146 108 94 q 54 261 52 199 l 55 264 l 198 264 q 252 145 198 186 q 400 104 307 104 l 401 103 m 334 1046 l 452 1232 l 622 1232 l 452 1046 l 334 1046 z "},"ś":{"ha":645,"x_min":45,"x_max":591,"o":"m 325 96 q 413 117 382 96 q 444 176 444 139 q 414 235 444 212 q 306 274 384 257 q 125 347 184 300 q 66 475 66 393 q 137 614 66 556 q 325 671 208 671 q 513 613 441 671 q 581 465 585 554 l 580 460 l 438 460 q 406 532 438 503 q 322 560 374 560 q 240 537 269 560 q 212 477 212 513 q 239 421 212 441 q 346 386 267 401 q 532 312 473 359 q 591 186 591 265 q 517 41 591 96 q 321 -14 444 -14 q 121 50 197 -14 q 49 203 45 113 l 50 207 l 188 207 q 228 124 191 151 q 324 97 264 97 l 325 96 m 277 836 l 395 1021 l 565 1021 l 395 836 l 277 836 z "},"Š":{"ha":754,"x_min":52,"x_max":723,"o":"m 401 103 q 529 136 483 103 q 574 226 574 169 q 533 318 574 283 q 388 381 491 353 q 155 487 233 422 q 78 657 78 552 q 167 831 78 762 q 398 900 256 900 q 630 823 541 900 q 718 632 720 745 l 716 629 l 574 629 q 527 740 574 699 q 398 782 480 782 q 271 747 315 782 q 227 658 227 712 q 273 571 227 604 q 431 507 320 538 q 650 400 577 468 q 723 224 723 332 q 635 52 723 117 q 401 -14 547 -14 q 268 5 331 -14 q 156 59 204 24 q 80 146 108 94 q 54 261 52 199 l 55 264 l 198 264 q 252 145 198 186 q 400 104 307 104 l 401 103 m 608 1233 l 608 1227 l 438 1057 l 347 1057 l 178 1227 l 178 1233 l 303 1233 l 392 1139 l 481 1233 l 608 1233 z "},"š":{"ha":645,"x_min":45,"x_max":591,"o":"m 325 96 q 413 117 382 96 q 444 176 444 139 q 414 235 444 212 q 306 274 384 257 q 125 347 184 300 q 66 475 66 393 q 137 614 66 556 q 325 671 208 671 q 513 613 441 671 q 581 465 585 554 l 580 460 l 438 460 q 406 532 438 503 q 322 560 374 560 q 240 537 269 560 q 212 477 212 513 q 239 421 212 441 q 346 386 267 401 q 532 312 473 359 q 591 186 591 265 q 517 41 591 96 q 321 -14 444 -14 q 121 50 197 -14 q 49 203 45 113 l 50 207 l 188 207 q 228 124 191 151 q 324 97 264 97 l 325 96 m 551 1023 l 551 1017 l 381 846 l 290 846 l 121 1017 l 121 1023 l 246 1023 l 335 928 l 425 1023 l 551 1023 z "},"Ť":{"ha":759,"x_min":16,"x_max":701,"o":"m 701 888 l 701 770 l 433 770 l 433 0 l 284 0 l 284 770 l 16 770 l 16 888 l 701 888 m 601 1233 l 601 1227 l 431 1057 l 339 1057 l 170 1227 l 170 1233 l 296 1233 l 385 1139 l 474 1233 l 601 1233 z "},"ť":{"ha":440,"x_min":14,"x_max":389,"o":"m 114 819 l 262 819 l 262 659 l 381 659 l 381 549 l 262 549 l 262 184 q 327 109 262 109 q 373 117 353 109 l 389 7 q 289 -14 347 -14 q 114 184 114 -14 l 114 549 l 14 549 l 14 659 l 114 659 l 114 819 z "},"Ū":{"ha":815,"x_min":73,"x_max":764,"o":"m 615 887 l 764 887 l 764 292 q 670 66 764 146 q 417 -14 575 -14 q 166 66 259 -14 q 73 292 73 146 l 73 887 l 221 887 l 221 292 q 272 152 221 199 q 416 104 323 104 q 562 152 509 104 q 615 292 615 199 l 615 887 m 635 1190 l 635 1093 l 191 1093 l 191 1190 l 635 1190 z "},"ū":{"ha":694,"x_min":66,"x_max":623,"o":"m 292 -14 q 125 55 183 -14 q 66 264 66 123 l 66 659 l 214 659 l 214 263 q 241 142 214 178 q 327 106 268 106 q 475 182 431 106 l 475 659 l 623 659 l 623 -1 l 494 -1 l 481 95 q 292 -14 415 -14 m 568 979 l 568 883 l 125 883 l 125 979 l 568 979 z "},"Ů":{"ha":815,"x_min":73,"x_max":764,"o":"m 615 887 l 764 887 l 764 292 q 670 66 764 146 q 417 -14 575 -14 q 166 66 259 -14 q 73 292 73 146 l 73 887 l 221 887 l 221 292 q 272 152 221 199 q 416 104 323 104 q 562 152 509 104 q 615 292 615 199 l 615 887 m 471 1210 q 461 1220 471 1210 q 422 1230 452 1230 q 373 1210 392 1230 q 353 1161 353 1190 q 373 1112 353 1132 q 422 1093 393 1093 q 471 1112 451 1093 q 490 1160 490 1131 q 471 1210 490 1190 m 421 1036 q 392 1036 421 1036 q 325 1072 363 1036 q 286 1161 286 1108 q 325 1251 286 1213 q 421 1288 364 1288 q 518 1251 479 1288 q 557 1161 557 1213 q 518 1072 557 1108 q 421 1036 480 1036 z "},"ů":{"ha":694,"x_min":66,"x_max":623,"o":"m 292 -14 q 125 55 183 -14 q 66 264 66 123 l 66 659 l 214 659 l 214 263 q 241 142 214 178 q 327 106 268 106 q 475 182 431 106 l 475 659 l 623 659 l 623 -1 l 494 -1 l 481 95 q 292 -14 415 -14 m 405 999 q 395 1009 405 999 q 355 1019 385 1019 q 306 999 326 1019 q 287 950 287 979 q 307 902 287 922 q 356 882 327 882 q 404 902 385 882 q 424 950 424 921 q 405 999 424 979 m 355 825 q 326 825 355 825 q 258 862 296 825 q 220 950 220 898 q 259 1040 220 1003 q 355 1078 298 1078 q 451 1040 412 1078 q 490 950 490 1003 q 452 862 490 898 q 355 825 414 825 z "},"Ű":{"ha":815,"x_min":73,"x_max":764,"o":"m 615 887 l 764 887 l 764 292 q 670 66 764 146 q 417 -14 575 -14 q 166 66 259 -14 q 73 292 73 146 l 73 887 l 221 887 l 221 292 q 272 152 221 199 q 416 104 323 104 q 562 152 509 104 q 615 292 615 199 l 615 887 m 444 1046 l 581 1231 l 726 1231 l 564 1046 l 444 1046 m 250 1046 l 355 1231 l 498 1231 l 362 1046 l 250 1046 z "},"ű":{"ha":694,"x_min":66,"x_max":660,"o":"m 292 -14 q 125 55 183 -14 q 66 264 66 123 l 66 659 l 214 659 l 214 263 q 241 142 214 178 q 327 106 268 106 q 475 182 431 106 l 475 659 l 623 659 l 623 -1 l 494 -1 l 481 95 q 292 -14 415 -14 m 377 836 l 514 1021 l 660 1021 l 497 836 l 377 836 m 183 836 l 289 1021 l 431 1021 l 296 836 l 183 836 z "},"Ų":{"ha":815,"x_min":77,"x_max":741,"o":"m 587 863 l 741 863 l 741 269 q 700 106 741 176 q 583 -1 659 37 q 519 -56 541 -28 q 497 -114 497 -83 q 541 -155 497 -155 q 595 -142 566 -155 l 607 -228 q 506 -255 564 -255 q 413 -221 448 -255 q 378 -134 378 -188 q 412 -38 378 -80 q 165 44 254 -38 q 77 269 77 125 l 77 863 l 230 863 l 230 269 q 275 132 230 179 q 408 85 321 85 q 587 274 587 85 l 587 863 z "},"ų":{"ha":694,"x_min":72,"x_max":620,"o":"m 620 -29 l 606 -29 q 531 -91 553 -62 q 508 -151 508 -120 q 551 -192 508 -192 q 606 -178 576 -192 l 618 -264 q 517 -292 574 -292 q 424 -258 459 -292 q 389 -169 389 -224 q 478 -24 389 -83 l 475 35 q 290 -41 410 -41 q 127 21 182 -41 q 72 203 72 83 l 72 631 l 220 631 l 220 205 q 325 79 220 79 q 471 157 433 79 l 471 631 l 620 631 l 620 -29 z "},"Ÿ":{"ha":762,"x_min":7,"x_max":766,"o":"m 458 0 l 311 0 l 311 320 l 7 888 l 173 888 l 387 456 l 601 888 l 766 888 l 458 312 l 458 0 m 611 1128 q 611 1112 611 1128 q 590 1076 611 1097 q 533 1056 569 1056 q 477 1076 498 1056 q 456 1128 456 1097 q 477 1179 456 1159 q 533 1200 498 1200 q 590 1179 569 1200 q 611 1128 611 1159 m 311 1077 q 300 1067 311 1077 q 254 1057 290 1057 q 198 1077 219 1057 q 178 1128 178 1097 q 198 1180 178 1160 q 254 1200 219 1200 q 311 1180 290 1200 q 332 1128 332 1160 q 311 1077 332 1097 z "},"Ź":{"ha":753,"x_min":48,"x_max":688,"o":"m 688 119 l 688 0 l 48 0 l 48 93 l 494 770 l 52 770 l 52 888 l 673 888 l 673 800 l 224 119 l 688 119 m 326 1046 l 444 1232 l 614 1232 l 444 1046 l 326 1046 z "},"ź":{"ha":629,"x_min":47,"x_max":584,"o":"m 584 119 l 584 0 l 47 0 l 47 97 l 380 541 l 54 541 l 54 661 l 568 661 l 568 566 l 231 119 l 584 119 m 256 836 l 374 1021 l 544 1021 l 374 836 l 256 836 z "},"Ż":{"ha":753,"x_min":49,"x_max":689,"o":"m 689 119 l 689 0 l 49 0 l 49 93 l 495 770 l 53 770 l 53 888 l 674 888 l 674 800 l 225 119 l 689 119 m 458 1083 q 448 1072 458 1083 q 399 1062 437 1062 q 340 1083 361 1062 q 319 1137 319 1103 q 340 1191 319 1170 q 399 1212 361 1212 q 458 1191 437 1212 q 479 1137 479 1170 q 458 1083 479 1103 z "},"ż":{"ha":629,"x_min":47,"x_max":584,"o":"m 584 119 l 584 0 l 47 0 l 47 97 l 380 541 l 54 541 l 54 661 l 568 661 l 568 566 l 231 119 l 584 119 m 388 872 q 377 862 388 872 q 329 852 367 852 q 270 872 291 852 q 249 926 249 893 q 270 981 249 960 q 329 1002 291 1002 q 388 981 367 1002 q 409 926 409 960 q 388 872 409 893 z "},"Ž":{"ha":753,"x_min":48,"x_max":688,"o":"m 688 119 l 688 0 l 48 0 l 48 93 l 494 770 l 52 770 l 52 888 l 673 888 l 673 800 l 224 119 l 688 119 m 600 1233 l 600 1227 l 430 1057 l 338 1057 l 170 1227 l 170 1233 l 295 1233 l 384 1139 l 473 1233 l 600 1233 z "},"ž":{"ha":629,"x_min":47,"x_max":584,"o":"m 584 119 l 584 0 l 47 0 l 47 97 l 380 541 l 54 541 l 54 661 l 568 661 l 568 566 l 231 119 l 584 119 m 530 1023 l 530 1017 l 360 846 l 269 846 l 100 1017 l 100 1023 l 225 1023 l 314 928 l 404 1023 l 530 1023 z "},"ƒ":{"ha":439,"x_min":-16,"x_max":441,"o":"m 271 521 l 271 -72 q 216 -238 271 -180 q 60 -296 161 -296 q -16 -286 20 -296 l -7 -170 q 18 -175 -3 -172 q 49 -178 39 -178 q 122 -71 122 -178 l 122 521 l 22 521 l 22 631 l 122 631 l 122 690 q 181 861 122 802 q 349 921 240 921 q 441 908 382 921 l 426 793 q 367 800 398 800 q 271 694 271 800 l 271 631 l 393 631 l 394 521 l 271 521 z "},"Ț":{"ha":759,"x_min":16,"x_max":702,"o":"m 702 888 l 702 770 l 433 770 l 433 0 l 285 0 l 285 770 l 16 770 l 16 888 l 702 888 z "},"ț":{"ha":416,"x_min":14,"x_max":389,"o":"m 114 819 l 262 819 l 262 659 l 381 659 l 381 549 l 262 549 l 262 184 q 327 109 262 109 q 373 117 353 109 l 389 7 q 289 -14 347 -14 q 114 184 114 -14 l 114 549 l 14 549 l 14 659 l 114 659 l 114 819 z "},"ʼ":{"ha":441,"x_min":113,"x_max":347,"o":"m 336 1015 l 347 994 l 236 684 l 113 684 l 177 1015 l 336 1015 z "},"ˆ":{"ha":609,"x_min":90,"x_max":510,"o":"m 510 846 l 391 846 l 299 941 l 208 846 l 90 846 l 90 854 l 256 1023 l 343 1023 l 510 853 l 510 846 z "},"ˇ":{"ha":576,"x_min":70,"x_max":500,"o":"m 500 1023 l 500 1017 l 330 846 l 239 846 l 70 1017 l 70 1023 l 195 1023 l 284 928 l 374 1023 l 500 1023 z "},"ˉ":{"ha":603,"x_min":73,"x_max":517,"o":"m 517 977 l 517 880 l 73 880 l 73 977 l 517 977 z "},"˘":{"ha":545,"x_min":71,"x_max":466,"o":"m 354 1005 l 466 1005 q 412 880 466 927 q 269 833 358 833 q 125 880 179 833 q 71 1005 71 927 l 182 1005 q 205 942 182 964 q 269 920 228 920 q 332 942 309 920 q 354 1005 354 964 z "},"˙":{"ha":319,"x_min":79,"x_max":239,"o":"m 218 866 q 207 856 218 866 q 159 846 197 846 q 100 866 121 846 q 79 920 79 887 q 100 975 79 954 q 159 996 121 996 q 218 975 197 996 q 239 920 239 954 q 218 866 239 887 z "},"˚":{"ha":421,"x_min":73,"x_max":344,"o":"m 258 964 q 248 974 258 964 q 209 984 239 984 q 160 964 179 984 q 140 915 140 944 q 160 867 140 886 q 209 847 180 847 q 258 866 238 847 q 277 915 277 886 q 258 964 277 944 m 209 790 q 179 790 209 790 q 112 826 150 790 q 73 915 73 863 q 112 1005 73 968 q 209 1042 151 1042 q 305 1005 266 1042 q 344 915 344 968 q 306 826 344 863 q 209 790 267 790 z "},"˛":{"ha":359,"x_min":25,"x_max":254,"o":"m 144 -151 q 186 -193 144 -193 q 241 -179 213 -193 l 254 -265 q 153 -292 210 -292 q 60 -259 96 -292 q 25 -170 25 -225 q 174 7 25 -60 l 241 -30 q 166 -92 189 -63 q 144 -151 144 -121 z "},"˜":{"ha":601,"x_min":75,"x_max":522,"o":"m 386 852 q 344 857 361 852 q 296 880 326 863 q 252 902 265 897 q 218 906 238 906 q 181 888 197 906 q 165 843 165 871 l 75 848 q 113 961 75 916 q 210 1006 152 1006 q 294 979 234 1006 q 376 951 354 951 q 415 969 399 951 q 431 1015 431 987 l 522 1008 q 483 896 522 940 q 386 852 444 852 z "},"˝":{"ha":488,"x_min":45,"x_max":522,"o":"m 239 836 l 376 1021 l 522 1021 l 359 836 l 239 836 m 45 836 l 151 1021 l 293 1021 l 157 836 l 45 836 z "},"π":{"ha":773,"x_min":28,"x_max":751,"o":"m 728 660 l 728 544 l 631 544 l 631 186 q 646 131 631 147 q 694 115 661 115 q 751 121 727 115 l 751 6 q 654 -8 709 -8 q 483 180 483 -8 l 483 544 l 280 544 l 280 -1 l 132 -1 l 132 544 l 28 544 l 28 660 l 728 660 z "},"ऀ":{"ha":0,"x_min":-640,"x_max":-136,"o":"m -455 938 l -455 1067 l -323 1067 l -323 938 l -455 938 m -157 1053 l -157 1053 q -157 1053 -157 1053 l -157 1053 m -393 1143 q -618 1059 -529 1143 l -640 1163 q -539 1232 -602 1206 q -400 1258 -477 1258 q -254 1231 -323 1258 q -136 1159 -185 1204 l -157 1053 q -269 1120 -208 1097 q -393 1143 -330 1143 z "},"ँ":{"ha":0,"x_min":-634,"x_max":-130,"o":"m -612 1148 l -613 1148 q -612 1147 -613 1148 l -612 1148 m -314 1263 l -314 1133 l -446 1133 l -446 1263 l -314 1263 m -376 1058 q -152 1141 -241 1058 l -130 1038 q -230 968 -168 994 q -370 943 -292 943 q -516 970 -447 943 q -634 1042 -585 997 l -612 1147 q -459 1068 -545 1088 q -376 1058 -418 1058 z "},"ं":{"ha":0,"x_min":-283,"x_max":-145,"o":"m -145 1122 l -145 986 l -283 986 l -283 1122 l -145 1122 z "},"ः":{"ha":368,"x_min":94,"x_max":239,"o":"m 239 226 l 239 87 l 94 87 l 94 226 l 239 226 m 239 659 l 239 520 l 94 520 l 94 659 l 239 659 z "},"ऄ":{"ha":983,"x_min":57,"x_max":1004,"o":"m 696 0 l 696 344 l 522 344 q 528 294 528 319 q 459 119 528 182 q 279 55 391 55 q 171 66 220 55 q 57 104 121 77 l 77 218 q 175 183 138 193 q 253 173 212 173 q 347 208 313 173 q 382 295 382 242 q 352 384 382 349 q 269 427 323 419 q 149 416 215 416 l 149 531 q 312 568 261 531 q 362 663 362 604 q 333 734 362 707 q 250 762 304 762 q 192 753 220 762 q 117 724 164 745 l 98 835 q 263 876 175 876 q 441 819 375 876 q 508 665 508 763 q 417 488 508 555 q 456 458 437 475 l 695 458 l 695 759 l 566 759 l 566 870 l 701 870 l 701 899 q 635 978 701 978 q 569 968 623 978 q 484 958 515 958 q 319 1026 397 958 l 358 1118 q 489 1070 420 1070 q 580 1086 512 1070 q 679 1102 648 1102 q 798 1052 755 1102 q 842 911 842 1002 l 842 870 l 1004 870 l 1004 759 l 842 759 l 842 0 l 696 0 z "},"अ":{"ha":983,"x_min":58,"x_max":1004,"o":"m 528 294 q 460 119 528 182 q 279 55 392 55 q 171 66 221 55 q 58 104 121 77 l 78 218 q 176 183 139 193 q 254 173 212 173 q 348 208 313 173 q 382 295 382 242 q 353 384 382 349 q 269 427 323 419 q 150 416 216 416 l 150 531 q 312 568 262 531 q 363 663 363 604 q 334 734 363 707 q 251 762 304 762 q 193 753 220 762 q 117 724 165 745 l 98 835 q 264 876 176 876 q 442 819 376 876 q 509 665 509 763 q 418 488 509 555 q 456 458 438 475 l 696 458 l 696 759 l 566 759 l 566 870 l 1004 870 l 1004 759 l 842 759 l 842 0 l 696 0 l 696 344 l 523 344 q 528 294 528 319 z "},"आ":{"ha":1364,"x_min":58,"x_max":1384,"o":"m 528 294 q 460 119 528 182 q 279 55 392 55 q 171 66 221 55 q 58 104 121 77 l 78 218 q 176 183 139 193 q 254 173 212 173 q 348 208 313 173 q 382 295 382 242 q 353 384 382 349 q 269 427 323 419 q 150 416 216 416 l 150 531 q 312 568 262 531 q 363 663 363 604 q 334 734 363 707 q 251 762 304 762 q 193 753 220 762 q 117 724 165 745 l 98 835 q 264 876 176 876 q 442 819 376 876 q 509 665 509 763 q 418 488 509 555 q 456 458 438 475 l 696 458 l 696 759 l 566 759 l 566 870 l 1384 870 l 1384 759 l 1221 759 l 1221 0 l 1076 0 l 1076 759 l 842 759 l 842 0 l 696 0 l 696 344 l 523 344 q 528 294 528 319 z "},"इ":{"ha":725,"x_min":-20,"x_max":745,"o":"m 264 9 q 136 37 184 9 q 88 109 88 64 q 118 182 88 153 q 193 212 148 212 q 274 192 239 212 q 350 125 309 172 q 463 156 422 125 q 504 229 504 186 q 479 292 504 271 q 408 314 454 314 q 329 305 361 315 q 262 272 297 295 l 245 272 q 119 353 169 296 q 70 481 70 410 q 128 599 70 553 q 294 646 186 646 l 438 646 l 438 758 l -20 758 l -20 869 l 745 869 l 745 758 l 583 758 l 583 534 l 300 534 q 234 514 257 534 q 210 460 210 494 q 250 395 210 419 q 410 429 321 429 q 585 374 521 429 q 650 231 650 318 q 587 88 650 144 q 414 20 524 32 l 521 -111 l 408 -166 l 267 9 l 264 9 z "},"ई":{"ha":725,"x_min":-20,"x_max":744,"o":"m 264 10 q 136 38 184 10 q 88 110 88 66 q 118 184 88 154 q 193 214 148 214 q 274 193 239 214 q 350 126 309 173 q 463 157 422 127 q 504 230 504 188 q 479 294 504 272 q 408 316 454 315 q 329 306 361 316 q 262 273 297 296 l 245 273 q 119 354 169 298 q 70 483 70 411 q 128 601 70 554 q 294 647 186 647 l 438 647 l 438 760 l -20 760 l -20 871 l 431 871 q 392 1029 391 959 q 447 1163 393 1113 q 596 1214 502 1214 q 716 1192 661 1214 l 705 1102 q 635 1112 667 1111 q 559 1082 589 1112 q 530 994 530 1053 q 560 869 530 936 l 744 869 l 744 758 l 582 758 l 582 534 l 299 534 q 232 514 256 534 q 209 460 209 494 q 248 395 209 419 q 409 429 320 429 q 584 374 519 429 q 648 231 648 318 q 586 88 648 144 q 413 20 523 32 l 519 -111 l 407 -166 l 267 10 l 264 10 z "},"उ":{"ha":656,"x_min":-20,"x_max":677,"o":"m 264 155 q 384 190 342 155 q 427 288 427 224 q 392 372 427 336 q 295 419 357 409 q 179 408 245 408 l 151 408 l 151 526 l 168 526 q 324 559 279 526 q 368 656 368 593 q 340 728 368 699 q 262 760 313 756 l -20 760 l -20 871 l 677 871 l 677 760 l 475 760 q 507 651 507 713 q 442 490 507 551 q 534 401 500 456 q 568 281 568 347 q 493 99 568 163 q 289 34 418 34 l 288 35 q 50 89 171 35 l 69 205 q 170 166 125 178 q 264 155 214 155 z "},"ऊ":{"ha":957,"x_min":-20,"x_max":977,"o":"m 567 281 q 492 99 567 163 q 294 34 418 34 q 50 87 171 34 l 69 204 q 170 165 125 176 q 264 153 214 153 q 384 188 342 153 q 427 287 427 223 q 392 371 427 334 q 295 418 357 408 q 179 407 245 407 l 151 407 l 151 524 l 168 524 q 324 558 279 524 q 368 654 368 591 q 340 726 368 698 q 262 759 313 755 l -20 759 l -20 870 l 977 870 l 977 759 l 475 759 q 507 646 507 711 q 475 530 507 581 q 635 561 550 561 q 821 492 748 561 q 893 314 893 423 q 806 79 893 187 l 669 105 q 747 315 747 214 q 713 409 747 373 q 624 444 679 444 q 524 416 569 444 q 568 281 568 355 l 567 281 z "},"ऋ":{"ha":1064,"x_min":-20,"x_max":1084,"o":"m 813 654 q 840 654 813 654 q 908 626 867 654 q 948 559 948 598 q 907 478 948 519 q 998 271 998 379 q 942 133 998 185 q 799 81 887 81 q 722 87 753 81 l 710 190 q 760 187 728 187 q 835 212 808 187 q 863 278 863 236 q 800 409 863 344 q 604 361 713 369 l 604 0 l 458 0 l 456 279 l 174 105 l 96 218 l 427 414 l 389 439 q 288 494 328 477 q 207 511 247 511 q 41 465 132 511 l 14 591 q 201 638 100 638 q 418 566 302 638 l 458 541 l 458 759 l -20 759 l -20 870 l 1084 870 l 1084 759 l 604 759 l 604 488 q 725 515 674 493 q 702 579 702 549 q 731 632 702 610 q 813 654 760 654 z "},"ऌ":{"ha":990,"x_min":-20,"x_max":1011,"o":"m 846 -43 l 846 -42 q 686 5 743 -42 q 629 132 629 52 q 669 238 629 195 q 779 291 710 280 q 785 342 785 322 q 759 442 785 406 q 682 478 733 478 q 597 429 631 478 q 564 285 564 380 l 564 193 l 420 193 l 420 313 q 379 430 414 389 q 296 471 343 471 q 221 435 250 471 q 192 333 192 399 q 219 204 192 267 q 307 63 246 140 l 190 18 q 50 352 50 177 q 113 532 50 464 q 276 600 176 600 q 395 574 342 600 q 484 504 449 549 q 675 600 557 600 q 702 598 686 600 l 702 759 l -20 759 l -20 870 l 1011 870 l 1011 759 l 848 759 l 848 540 q 926 349 926 471 q 899 198 926 289 l 859 198 q 784 178 809 198 q 760 124 760 158 q 785 73 760 91 q 857 54 810 54 q 943 73 903 54 l 958 -22 q 846 -43 912 -43 z "},"ऍ":{"ha":772,"x_min":-21,"x_max":792,"o":"m 104 487 l 104 759 l -21 759 l -21 870 l 792 870 l 792 759 l 644 759 l 644 548 q 500 292 644 368 l 409 374 q 498 562 498 438 l 498 759 l 250 759 l 250 492 q 341 208 250 298 q 624 118 431 118 l 598 1 q 233 131 361 1 q 104 487 104 261 m 151 1148 l 150 1148 q 151 1147 150 1148 l 151 1148 m 387 1058 q 611 1141 522 1058 l 633 1038 q 533 968 595 994 q 393 943 471 943 q 247 970 316 943 q 129 1042 178 997 l 151 1147 q 262 1081 201 1103 q 387 1058 323 1058 z "},"ऎ":{"ha":772,"x_min":-21,"x_max":793,"o":"m 598 1 q 233 131 361 1 q 104 487 104 261 l 104 759 l -21 759 l -21 870 l 496 870 l 496 899 q 431 978 496 978 q 364 968 418 978 q 279 958 311 958 q 114 1026 193 958 l 153 1118 q 284 1070 215 1070 q 375 1086 307 1070 q 474 1102 444 1102 q 593 1052 550 1102 q 637 911 637 1002 l 637 870 l 793 870 l 793 759 l 644 759 l 644 548 q 500 292 644 368 l 410 374 q 498 562 498 438 l 498 759 l 251 759 l 251 492 q 341 208 251 298 q 625 118 432 118 l 599 1 l 598 1 z "},"ए":{"ha":772,"x_min":-20,"x_max":793,"o":"m 105 487 l 105 759 l -20 759 l -20 870 l 793 870 l 793 759 l 644 759 l 644 548 q 500 292 644 368 l 410 374 q 498 562 498 438 l 498 759 l 251 759 l 251 492 q 341 208 251 298 q 625 118 432 118 l 599 1 q 233 131 361 1 q 105 487 105 261 z "},"ऐ":{"ha":772,"x_min":-20,"x_max":793,"o":"m 105 487 l 105 759 l -20 759 l -20 870 l 463 870 l 222 1149 l 340 1215 l 620 870 l 793 870 l 793 759 l 644 759 l 644 548 q 500 292 644 368 l 410 374 q 498 562 498 438 l 498 759 l 251 759 l 251 492 q 341 208 251 298 q 625 118 432 118 l 599 1 q 233 131 361 1 q 105 487 105 261 z "},"ऑ":{"ha":1364,"x_min":57,"x_max":1383,"o":"m 528 294 q 459 119 528 182 q 279 55 391 55 q 171 66 220 55 q 57 104 121 77 l 77 218 q 175 183 138 193 q 253 173 212 173 q 347 208 313 173 q 382 295 382 242 q 352 384 382 349 q 269 427 323 419 q 149 416 215 416 l 149 531 q 312 568 261 531 q 362 663 362 604 q 333 734 362 707 q 250 762 304 762 q 192 753 220 762 q 117 724 164 745 l 98 835 q 263 876 175 876 q 441 819 375 876 q 508 665 508 763 q 417 488 508 555 q 456 458 437 475 l 695 458 l 695 759 l 566 759 l 566 870 l 1383 870 l 1383 759 l 1221 759 l 1221 0 l 1075 0 l 1075 759 l 841 759 l 841 0 l 695 0 l 696 344 l 522 344 q 528 294 528 319 m 740 1148 l 739 1148 q 740 1147 739 1148 l 740 1148 m 976 1058 q 1200 1141 1112 1058 l 1223 1038 q 1122 968 1184 994 q 983 943 1060 943 q 837 970 905 943 q 718 1042 768 997 l 740 1147 q 893 1068 808 1088 q 976 1058 934 1058 z "},"ऒ":{"ha":1364,"x_min":57,"x_max":1384,"o":"m 696 0 l 696 344 l 522 344 q 528 294 528 319 q 459 119 528 182 q 279 55 391 55 q 171 66 220 55 q 57 104 121 77 l 77 218 q 175 183 138 193 q 253 173 212 173 q 347 208 313 173 q 382 295 382 242 q 352 384 382 349 q 269 427 323 419 q 149 416 215 416 l 149 531 q 312 568 261 531 q 362 663 362 604 q 333 734 362 707 q 250 762 304 762 q 192 753 220 762 q 117 724 164 745 l 98 835 q 263 876 175 876 q 441 819 375 876 q 508 665 508 763 q 417 488 508 555 q 456 458 437 475 l 695 458 l 695 759 l 566 759 l 566 870 l 1081 870 l 1081 899 q 1016 978 1081 978 q 949 968 1003 978 q 864 958 896 958 q 699 1026 778 958 l 739 1118 q 869 1070 800 1070 q 961 1086 892 1070 q 1059 1102 1029 1102 q 1179 1052 1135 1102 q 1222 911 1222 1002 l 1222 870 l 1384 870 l 1384 759 l 1221 759 l 1221 0 l 1076 0 l 1076 759 l 842 759 l 842 0 l 696 0 z "},"ओ":{"ha":1364,"x_min":58,"x_max":1384,"o":"m 528 294 q 460 119 528 182 q 279 55 392 55 q 171 66 221 55 q 58 104 121 77 l 78 218 q 176 183 139 193 q 254 173 212 173 q 348 208 313 173 q 382 295 382 242 q 353 384 382 349 q 269 427 323 419 q 150 416 216 416 l 150 531 q 312 568 262 531 q 363 663 363 604 q 334 734 363 707 q 251 762 304 762 q 193 753 220 762 q 117 724 165 745 l 98 835 q 264 876 176 876 q 442 819 376 876 q 509 665 509 763 q 418 488 509 555 q 456 458 438 475 l 696 458 l 696 759 l 566 759 l 566 870 l 1050 870 l 810 1149 l 928 1215 l 1207 870 l 1384 870 l 1384 759 l 1221 759 l 1221 0 l 1076 0 l 1076 759 l 842 759 l 842 0 l 696 0 l 696 344 l 523 344 q 528 294 528 319 z "},"औ":{"ha":1364,"x_min":58,"x_max":1384,"o":"m 528 294 q 460 119 528 182 q 279 55 392 55 q 171 66 221 55 q 58 104 121 77 l 78 218 q 176 183 139 193 q 254 173 212 173 q 348 208 313 173 q 382 295 382 242 q 353 384 382 349 q 269 427 323 419 q 150 416 216 416 l 150 531 q 312 568 262 531 q 363 663 363 604 q 334 734 363 707 q 251 762 304 762 q 193 753 220 762 q 117 724 165 745 l 98 835 q 264 876 176 876 q 442 819 376 876 q 509 665 509 763 q 418 488 509 555 q 456 458 438 475 l 696 458 l 696 759 l 566 759 l 566 870 l 965 870 l 681 1062 l 765 1158 l 1067 935 l 939 1218 l 1059 1254 l 1215 870 l 1384 870 l 1384 759 l 1221 759 l 1221 0 l 1076 0 l 1076 759 l 842 759 l 842 0 l 696 0 l 696 344 l 523 344 q 528 294 528 319 z "},"क":{"ha":1054,"x_min":-20,"x_max":1074,"o":"m 292 120 q 101 190 176 120 q 26 375 26 260 q 95 553 26 490 q 281 617 165 617 q 450 587 378 617 l 450 758 l -20 758 l -20 869 l 1074 869 l 1074 758 l 596 758 l 596 568 q 728 591 654 591 q 916 523 842 591 q 990 345 990 454 q 904 110 990 220 l 766 136 q 844 345 844 245 q 810 439 844 404 q 716 475 776 475 q 596 432 656 475 l 596 0 l 451 -1 l 451 160 q 292 120 389 120 m 294 237 q 450 301 388 237 l 450 462 q 302 502 384 502 q 207 468 241 502 q 172 371 172 433 q 207 272 172 308 q 294 237 241 237 z "},"ख":{"ha":1175,"x_min":-20,"x_max":1196,"o":"m 770 307 q 887 342 838 307 l 887 505 q 831 530 857 524 q 761 536 804 536 q 686 505 718 536 q 654 421 654 474 q 688 337 654 368 q 770 307 722 307 m 308 597 l 308 759 l -20 759 l -20 870 l 1196 870 l 1196 759 l 1034 759 l 1034 0 l 887 0 l 887 215 q 760 191 834 191 q 586 258 660 191 q 511 427 511 325 q 578 589 511 528 q 743 650 645 650 q 887 625 828 650 l 887 759 l 454 759 l 454 587 q 296 328 454 375 l 522 60 l 416 -16 l -4 488 l 97 566 l 211 457 q 285 495 262 463 q 308 597 308 528 z "},"ग":{"ha":836,"x_min":-20,"x_max":857,"o":"m 549 0 l 549 759 l 312 759 l 312 344 q 291 275 312 299 q 230 251 271 251 q 107 305 165 251 q 50 421 50 359 q 73 475 50 455 q 139 494 97 494 l 166 494 l 166 759 l -20 759 l -20 870 l 857 870 l 857 759 l 694 759 l 694 0 l 549 0 z "},"घ":{"ha":876,"x_min":-20,"x_max":896,"o":"m 587 759 l 353 759 q 271 735 298 759 q 243 669 243 711 q 270 602 243 627 q 345 574 296 577 q 378 576 366 576 l 451 576 l 460 461 l 390 461 q 271 431 310 461 q 233 349 233 401 q 274 264 233 296 q 383 233 315 233 q 587 294 498 233 l 587 759 m 587 0 l 587 153 q 376 115 498 115 q 160 181 238 115 q 82 353 81 247 q 178 523 82 460 q 94 680 94 581 q 111 759 94 722 l -20 759 l -20 870 l 896 870 l 896 759 l 733 759 l 733 0 l 587 0 z "},"ङ":{"ha":850,"x_min":-20,"x_max":871,"o":"m 376 19 q 204 42 287 19 q 60 101 121 65 l 94 217 q 228 157 153 182 q 372 133 304 133 q 482 159 439 133 q 525 226 525 184 q 499 289 525 267 q 425 311 473 311 q 273 269 342 311 l 256 269 q 130 350 178 294 q 81 479 81 406 q 137 599 81 553 q 300 645 194 645 l 457 645 l 457 759 l -20 759 l -20 870 l 871 870 l 871 759 l 602 759 l 602 534 l 309 534 q 218 459 218 534 q 262 391 218 414 q 429 426 345 426 q 605 370 541 426 q 669 223 669 315 q 591 75 669 131 q 376 19 513 19 m 802 522 l 802 400 l 664 400 l 664 522 l 802 522 z "},"च":{"ha":903,"x_min":-20,"x_max":923,"o":"m 614 0 l 614 159 q 441 119 541 119 q 240 185 319 119 q 162 363 162 252 q 189 471 162 425 l 24 471 l 24 586 l 508 586 l 508 471 l 457 471 q 347 439 383 471 q 311 354 311 406 q 347 271 311 301 q 445 241 384 241 q 614 302 540 241 l 614 759 l -20 759 l -20 870 l 923 870 l 923 759 l 760 759 l 760 0 l 614 0 z "},"छ":{"ha":989,"x_min":-20,"x_max":1010,"o":"m 365 539 l 389 540 l 450 540 l 459 425 l 399 425 q 294 391 331 425 q 258 296 258 357 q 316 181 258 225 q 473 138 374 137 l 475 139 q 683 211 601 140 q 764 397 764 282 q 740 491 764 458 q 680 524 715 524 q 576 490 627 524 l 545 597 q 691 639 618 639 l 701 639 l 701 758 l 357 758 q 273 731 302 758 q 245 653 245 703 q 276 571 245 604 q 358 539 308 539 l 365 539 m 478 22 l 478 21 q 208 98 310 20 q 106 304 106 176 q 197 485 106 418 q 122 562 149 515 q 95 663 95 609 q 116 758 95 716 l -20 758 l -20 869 l 1010 869 l 1010 758 l 847 758 l 847 570 q 903 395 903 503 q 851 204 903 288 q 702 71 800 121 q 478 22 604 22 z "},"ज":{"ha":941,"x_min":-20,"x_max":962,"o":"m 654 0 l 654 472 l 434 472 q 505 301 505 406 q 437 129 505 196 q 245 62 369 62 q 36 111 145 62 l 61 224 q 144 191 108 200 q 218 182 180 182 q 321 218 284 184 q 358 319 358 253 q 306 429 358 385 q 168 473 254 473 l 121 473 l 121 587 l 654 587 l 654 759 l -20 759 l -20 870 l 962 870 l 962 759 l 800 759 l 800 0 l 654 0 z "},"झ":{"ha":1101,"x_min":-20,"x_max":1122,"o":"m 264 9 q 136 37 184 9 q 88 109 88 64 q 118 182 88 153 q 193 212 148 212 q 274 192 239 212 q 350 125 309 172 q 463 156 422 125 q 504 229 504 186 q 479 292 504 271 q 408 314 454 314 q 329 305 361 315 q 262 272 297 295 l 245 272 q 119 353 169 296 q 70 481 70 410 q 128 599 70 553 q 294 646 186 646 l 438 646 l 438 758 l -20 758 l -20 869 l 1122 869 l 1122 758 l 960 758 l 960 -1 l 814 -1 l 814 219 l 650 219 q 584 85 646 138 q 414 20 522 31 l 521 -112 l 408 -167 l 267 9 l 264 9 m 410 429 l 410 429 q 537 404 483 429 q 620 334 591 378 l 814 334 l 814 758 l 583 758 l 583 534 l 300 534 q 234 514 257 534 q 210 460 210 494 q 250 395 210 419 q 410 429 321 429 z "},"ञ":{"ha":1006,"x_min":-20,"x_max":1027,"o":"m 718 0 l 718 340 l 545 340 q 461 178 532 239 q 282 117 389 117 q 34 189 151 117 l 61 303 q 170 255 130 267 q 258 243 211 243 q 361 281 321 243 q 401 382 401 319 q 362 483 401 445 q 251 520 323 520 q 106 484 178 520 l 81 597 q 265 640 168 640 q 435 591 362 640 q 534 460 508 542 l 718 460 l 718 759 l -20 759 l -20 870 l 1027 870 l 1027 759 l 864 759 l 864 0 l 718 0 z "},"ट":{"ha":715,"x_min":-21,"x_max":735,"o":"m 421 50 l 421 50 q 151 128 252 50 q 52 334 51 206 q 137 535 52 462 q 372 609 222 609 l 427 609 l 427 758 l -21 758 l -21 869 l 735 869 l 735 758 l 572 758 l 572 494 l 401 494 q 252 450 304 494 q 200 332 200 406 q 259 216 200 258 q 416 174 318 174 q 508 180 471 173 q 597 203 545 186 l 610 81 q 520 57 561 64 q 421 50 479 50 z "},"ठ":{"ha":819,"x_min":-20,"x_max":839,"o":"m 191 326 q 191 287 191 326 q 248 202 191 248 q 396 157 304 157 q 543 203 487 157 q 598 328 598 250 q 522 491 598 437 l 412 491 q 248 447 304 491 q 191 326 191 404 m 405 38 l 405 37 q 143 120 241 37 q 45 338 45 203 q 139 532 45 458 q 380 606 232 606 l 531 606 l 531 759 l -20 759 l -20 870 l 839 870 l 839 759 l 677 759 l 677 526 q 739 322 739 446 q 650 118 740 198 q 405 38 559 38 z "},"ड":{"ha":745,"x_min":-20,"x_max":765,"o":"m 376 19 q 204 42 287 19 q 60 101 121 65 l 94 217 q 228 157 153 182 q 372 133 304 133 q 482 159 439 133 q 525 226 525 184 q 499 289 525 267 q 425 311 473 311 q 273 269 342 311 l 256 269 q 130 350 178 294 q 81 479 81 406 q 137 599 81 553 q 300 645 194 645 l 457 645 l 457 759 l -20 759 l -20 870 l 765 870 l 765 759 l 602 759 l 602 534 l 309 534 q 218 459 218 534 q 262 391 218 414 q 429 426 345 426 q 605 370 541 426 q 669 223 669 315 q 591 75 669 131 q 376 19 513 19 z "},"ढ":{"ha":746,"x_min":-20,"x_max":767,"o":"m 374 611 l 458 611 l 458 759 l -20 759 l -20 870 l 767 870 l 767 759 l 604 759 l 604 497 l 392 497 q 244 452 297 497 q 192 328 192 406 q 256 182 192 233 q 424 132 320 132 q 526 157 490 132 q 562 222 562 182 q 475 288 562 288 q 338 228 414 288 l 288 324 q 482 399 371 399 q 638 350 581 399 q 694 222 694 300 q 600 60 694 115 q 424 22 534 22 q 229 61 314 22 q 96 172 143 100 q 48 340 48 244 q 134 537 48 464 q 374 611 220 611 z "},"ण":{"ha":1025,"x_min":-20,"x_max":1046,"o":"m 323 370 q 422 501 422 370 l 422 759 l 229 759 l 229 501 q 254 404 229 438 q 323 370 279 370 m 738 0 l 738 759 l 568 759 l 568 505 q 505 318 568 385 q 330 251 443 251 q 150 318 218 251 q 83 507 83 386 l 83 759 l -20 759 l -20 870 l 1046 870 l 1046 759 l 884 759 l 884 0 l 738 0 z "},"त":{"ha":785,"x_min":-20,"x_max":805,"o":"m 201 -4 l 202 -4 l 201 -4 m 350 597 l 496 597 l 496 759 l -20 759 l -20 870 l 805 870 l 805 759 l 642 759 l 642 0 l 496 0 l 496 479 l 385 479 q 251 434 297 479 q 205 316 205 389 q 321 43 205 185 l 202 -4 q 97 165 134 76 q 61 341 60 255 q 137 527 62 458 q 350 597 212 597 z "},"थ":{"ha":878,"x_min":18,"x_max":898,"o":"m 589 174 q 419 142 512 142 q 249 176 326 142 q 111 281 172 209 q 18 460 50 353 l 22 484 q 278 541 205 491 q 328 592 313 565 q 342 660 342 620 q 318 726 342 701 q 257 751 294 751 q 199 728 220 751 q 178 669 178 705 q 186 615 178 649 l 77 602 q 59 701 58 647 q 113 816 60 770 q 258 862 165 862 q 409 804 351 862 q 467 655 467 745 q 390 474 467 545 q 186 393 313 402 q 276 295 216 329 q 405 260 336 260 q 589 317 514 260 l 589 759 l 532 759 l 532 870 l 898 870 l 898 759 l 735 759 l 735 0 l 589 0 l 589 174 z "},"द":{"ha":724,"x_min":-21,"x_max":743,"o":"m 405 84 q 153 161 252 84 q 54 364 54 238 q 137 543 54 477 q 364 608 219 608 l 435 608 l 435 758 l -21 758 l -21 869 l 743 869 l 743 758 l 581 758 l 581 494 l 391 494 q 246 455 294 494 q 199 350 199 416 q 250 241 199 283 q 380 200 301 200 l 386 200 q 382 234 382 213 q 412 296 382 271 q 501 321 441 321 q 602 287 561 321 q 644 208 644 252 q 560 108 644 139 l 642 -93 l 509 -119 l 432 85 q 405 84 424 84 z "},"ध":{"ha":882,"x_min":64,"x_max":902,"o":"m 357 575 l 382 576 l 457 576 l 467 461 l 395 461 q 276 431 315 461 q 237 349 237 401 q 278 264 237 296 q 388 233 319 233 q 594 294 505 233 l 594 759 l 535 759 l 535 870 l 902 870 l 902 759 l 740 759 l 740 0 l 594 -1 l 594 155 q 374 113 505 113 q 165 180 243 113 q 86 353 86 247 q 179 522 87 459 q 96 599 127 553 q 64 702 64 646 q 122 829 64 779 q 268 879 179 879 q 414 851 356 879 l 397 751 q 304 768 351 768 q 234 745 258 768 q 210 680 210 722 q 252 606 210 637 q 349 575 294 575 l 357 575 z "},"न":{"ha":775,"x_min":-20,"x_max":795,"o":"m 488 0 l 488 433 l 256 433 l 256 329 q 181 241 256 241 q 84 304 127 241 q 41 446 41 368 q 168 554 41 554 l 488 554 l 488 759 l -20 759 l -20 870 l 795 870 l 795 759 l 633 759 l 633 0 l 488 0 z "},"ऩ":{"ha":775,"x_min":-20,"x_max":795,"o":"m 264 54 l 264 -64 l 129 -64 l 129 54 l 264 54 m 488 0 l 488 433 l 256 433 l 256 329 q 181 241 256 241 q 84 304 127 241 q 41 446 41 368 q 168 554 41 554 l 488 554 l 488 759 l -20 759 l -20 870 l 795 870 l 795 759 l 633 759 l 633 0 l 488 0 z "},"प":{"ha":754,"x_min":-20,"x_max":774,"o":"m 466 0 l 466 295 q 339 267 415 267 q 149 341 220 267 q 79 559 79 416 l 79 759 l -20 759 l -20 870 l 774 870 l 774 759 l 612 759 l 612 0 l 466 0 m 465 759 l 224 759 l 224 525 q 253 417 224 452 q 336 382 283 382 q 465 432 415 382 l 465 759 z "},"फ":{"ha":1071,"x_min":-21,"x_max":1090,"o":"m 338 267 q 149 341 219 267 q 78 559 78 415 l 78 758 l -21 758 l -21 869 l 1090 869 l 1090 758 l 611 758 l 611 568 q 747 591 671 591 q 933 523 861 591 q 1006 345 1006 454 q 919 110 1006 218 l 781 136 q 859 345 859 245 q 825 439 859 404 q 731 475 791 475 q 611 432 671 475 l 611 0 l 465 -1 l 465 294 q 338 267 414 267 m 465 759 l 224 759 l 224 525 q 253 417 224 452 q 336 382 283 382 q 465 432 415 382 l 465 759 z "},"ब":{"ha":768,"x_min":-20,"x_max":789,"o":"m 330 248 q 367 251 350 248 l 232 497 q 182 389 182 458 q 222 284 182 320 q 330 248 262 248 m 332 527 l 332 528 q 308 526 323 528 l 446 277 q 481 301 462 286 l 481 489 q 332 527 416 527 m 481 0 l 481 169 q 323 132 416 132 q 118 207 199 132 q 37 394 37 281 q 111 574 37 507 q 311 641 186 641 q 481 610 406 641 l 481 759 l -20 759 l -20 870 l 789 870 l 789 759 l 627 759 l 627 0 l 481 0 z "},"भ":{"ha":796,"x_min":-15,"x_max":817,"o":"m 303 353 l 303 315 q 229 231 303 231 q 105 285 163 231 q 46 400 46 338 q 70 453 46 433 q 135 473 94 473 l 157 473 l 157 650 q 138 735 157 708 q 85 762 118 762 q 45 756 61 762 q 3 734 30 751 l -15 842 q 116 879 33 879 q 251 821 200 879 q 302 652 302 762 l 302 473 l 508 473 l 508 759 l 449 759 l 449 870 l 817 870 l 817 759 l 654 759 l 654 0 l 508 0 l 509 353 l 303 353 z "},"म":{"ha":819,"x_min":-20,"x_max":839,"o":"m 530 0 l 530 353 l 304 353 l 304 315 q 229 231 304 231 q 104 284 161 231 q 47 400 47 336 q 72 453 47 433 q 136 473 96 473 l 159 473 l 159 759 l -20 759 l -20 870 l 839 870 l 839 759 l 676 759 l 676 0 l 530 0 m 530 759 l 304 759 l 304 473 l 530 473 l 530 759 z "},"य":{"ha":822,"x_min":-20,"x_max":842,"o":"m 390 300 q 534 347 476 300 l 534 759 l 309 759 q 353 690 336 729 q 370 612 370 651 q 325 484 370 538 q 207 416 279 430 q 285 330 237 361 q 390 300 334 300 m 534 0 l 534 205 q 394 181 476 182 q 176 261 278 181 q 34 468 73 341 l 37 490 q 223 627 223 512 q 151 759 223 705 l -20 759 l -20 870 l 842 870 l 842 759 l 680 759 l 680 0 l 534 0 z "},"र":{"ha":587,"x_min":-20,"x_max":607,"o":"m 308 597 l 308 759 l -20 759 l -20 870 l 607 870 l 607 759 l 454 759 l 454 587 q 296 328 454 375 l 522 60 l 416 -16 l -4 488 l 97 566 l 211 457 q 285 495 262 463 q 308 597 308 528 z "},"ऱ":{"ha":592,"x_min":-20,"x_max":607,"o":"m 175 54 l 175 -64 l 39 -64 l 39 54 l 175 54 m 308 597 l 308 759 l -20 759 l -20 870 l 607 870 l 607 759 l 454 759 l 454 587 q 296 328 454 375 l 522 60 l 416 -16 l -4 488 l 97 566 l 211 457 q 285 495 262 463 q 308 597 308 528 z "},"ल":{"ha":1056,"x_min":-20,"x_max":1076,"o":"m 688 478 q 602 429 635 478 q 568 286 568 380 l 568 195 l 425 195 l 425 288 q 388 424 425 376 q 296 472 351 472 q 221 436 251 472 q 192 334 192 399 q 219 205 192 269 q 306 65 245 142 l 188 20 q 49 353 49 180 q 112 534 49 465 q 276 603 175 603 q 488 507 413 603 q 572 577 523 552 q 672 603 621 603 q 767 589 724 603 l 767 759 l -20 759 l -20 870 l 1076 870 l 1076 759 l 913 759 l 913 0 l 767 0 l 768 453 q 688 478 731 478 z "},"ळ":{"ha":1082,"x_min":-20,"x_max":1102,"o":"m 184 329 q 184 286 184 329 q 221 199 184 243 q 318 155 258 155 q 414 199 378 155 q 450 331 450 243 q 415 461 450 420 q 317 503 380 503 q 219 458 254 503 q 184 329 184 414 m 884 334 q 884 375 884 334 q 849 460 884 417 q 757 503 814 503 q 665 460 700 503 q 629 332 629 417 q 665 203 629 247 q 758 159 700 159 q 850 205 817 159 q 884 334 884 250 m 319 45 q 125 123 200 43 q 50 333 50 203 q 119 538 50 463 q 309 614 188 614 q 440 584 382 614 q 536 504 499 554 q 628 586 572 557 q 747 614 684 614 q 793 612 774 614 l 793 759 l -20 759 l -20 870 l 1102 870 l 1102 759 l 939 759 l 939 543 q 1016 333 1016 465 q 947 123 1016 201 q 762 44 879 44 l 762 44 l 762 44 q 637 72 695 44 q 541 150 579 99 q 454 75 511 102 q 319 45 397 47 z "},"ऴ":{"ha":1082,"x_min":-20,"x_max":1102,"o":"m 284 -20 l 284 -138 l 149 -138 l 149 -20 l 284 -20 m 184 329 q 184 286 184 329 q 221 199 184 243 q 318 155 258 155 q 414 199 378 155 q 450 331 450 243 q 415 461 450 420 q 317 503 380 503 q 219 458 254 503 q 184 329 184 414 m 884 334 q 884 375 884 334 q 849 460 884 417 q 757 503 814 503 q 665 460 700 503 q 629 332 629 417 q 665 203 629 247 q 758 159 700 159 q 850 205 817 159 q 884 334 884 250 m 319 45 q 125 123 200 43 q 50 333 50 203 q 119 538 50 463 q 309 614 188 614 q 440 584 382 614 q 536 504 499 554 q 628 586 572 557 q 747 614 684 614 q 793 612 774 614 l 793 759 l -20 759 l -20 870 l 1102 870 l 1102 759 l 939 759 l 939 543 q 1016 333 1016 465 q 947 123 1016 201 q 762 44 879 44 l 762 44 l 762 44 q 637 72 695 44 q 541 150 579 99 q 454 75 511 102 q 319 45 397 47 z "},"व":{"ha":768,"x_min":-20,"x_max":789,"o":"m 330 248 q 481 301 420 248 l 481 489 q 332 527 416 527 q 223 489 264 527 q 182 386 182 452 q 222 283 182 319 q 330 248 262 248 m 481 0 l 481 169 q 323 132 416 132 q 118 207 199 132 q 37 394 37 281 q 111 574 37 507 q 311 641 186 641 q 481 610 406 641 l 481 759 l -20 759 l -20 870 l 789 870 l 789 759 l 627 759 l 627 0 l 481 0 z "},"श":{"ha":1006,"x_min":85,"x_max":1026,"o":"m 271 239 q 189 228 233 228 q 115 254 145 228 q 85 334 85 280 q 120 427 85 388 q 202 466 155 466 q 302 411 259 466 q 435 616 435 472 q 402 720 435 682 q 321 758 370 758 q 244 727 273 758 q 217 648 216 696 q 226 585 217 624 l 109 566 q 87 676 87 622 q 151 821 87 764 q 323 879 214 879 q 504 805 433 879 q 576 608 576 732 q 522 428 576 512 q 385 290 468 344 l 557 62 l 441 0 l 271 239 m 717 0 l 717 759 l 658 759 l 658 870 l 1026 870 l 1026 759 l 863 759 l 863 0 l 717 0 z "},"ष":{"ha":754,"x_min":-20,"x_max":774,"o":"m 466 759 l 291 759 l 466 445 l 466 759 m 466 0 l 466 295 q 339 267 415 267 q 149 341 220 267 q 79 559 79 416 l 79 759 l -20 759 l -20 870 l 774 870 l 774 759 l 612 759 l 612 0 l 466 0 m 224 525 q 336 382 224 383 q 401 392 368 382 l 224 712 l 224 525 z "},"स":{"ha":934,"x_min":-20,"x_max":954,"o":"m 283 597 l 283 759 l -20 759 l -20 870 l 954 870 l 954 759 l 792 759 l 792 0 l 646 0 l 646 347 l 319 347 q 279 331 294 334 l 474 54 l 361 -9 l -2 500 l 98 572 l 205 458 q 264 501 245 467 q 283 597 283 534 m 429 581 q 413 463 429 512 l 646 463 l 646 759 l 429 759 l 429 581 z "},"ह":{"ha":743,"x_min":-20,"x_max":764,"o":"m 94 140 q 159 300 94 234 q 66 468 66 371 q 125 591 66 545 q 288 637 184 637 l 455 637 l 455 758 l -20 758 l -20 869 l 764 869 l 764 758 l 601 758 l 601 523 l 311 523 q 236 503 261 523 q 211 448 211 484 q 264 368 211 397 q 380 387 315 387 q 578 322 502 387 q 654 169 654 258 q 636 64 654 123 l 500 77 q 512 157 512 123 q 478 237 512 205 q 382 269 445 269 q 279 229 319 269 q 240 127 240 189 q 320 -14 240 35 q 581 -63 399 -62 l 564 -177 q 214 -92 333 -177 q 94 140 94 -7 z "},"ऺ":{"ha":0,"x_min":-286,"x_max":-141,"o":"m -286 998 l -141 998 l -141 797 l -286 797 l -286 998 z "},"ऻ":{"ha":393,"x_min":-20,"x_max":414,"o":"m 105 0 l 105 759 l -20 759 l -20 870 l 104 870 l 104 998 l 250 998 l 250 870 l 414 870 l 414 759 l 251 759 l 251 0 l 105 0 z "},"़":{"ha":0,"x_min":-600,"x_max":-465,"o":"m -465 54 l -465 -64 l -600 -64 l -600 54 l -465 54 z "},"ऽ":{"ha":695,"x_min":74,"x_max":600,"o":"m 338 52 q 207 67 266 52 q 74 122 149 83 l 102 245 q 326 178 224 178 q 420 206 387 178 q 452 282 452 233 q 415 370 452 331 q 280 452 378 409 q 80 685 80 539 q 139 820 80 770 q 309 870 197 870 l 565 870 l 565 759 l 322 759 q 251 736 275 759 q 227 678 227 714 q 256 615 227 642 q 368 554 285 589 q 542 436 484 503 q 600 279 600 369 l 599 279 q 529 115 599 177 q 338 52 458 52 z "},"ा":{"ha":393,"x_min":-20,"x_max":414,"o":"m 105 0 l 105 759 l -20 759 l -20 870 l 414 870 l 414 759 l 251 759 l 251 0 l 105 0 z "},"ि":{"ha":393,"x_min":-20,"x_max":940,"o":"m 105 0 l 105 758 l -20 758 l -20 869 l 105 869 l 105 901 q 204 1103 105 1027 q 496 1177 303 1178 q 721 1150 600 1177 q 940 1077 843 1123 l 914 972 q 505 1055 705 1055 q 315 1010 379 1055 q 251 891 251 966 l 251 870 l 414 870 l 414 759 l 251 759 l 251 0 l 105 0 z "},"ी":{"ha":393,"x_min":-332,"x_max":414,"o":"m 105 0 l 105 758 l -20 758 l -20 869 l 89 869 q -6 1010 46 961 q -114 1060 -58 1060 q -172 1040 -152 1060 q -191 981 -191 1019 q -136 842 -191 910 l -286 842 q -319 914 -305 871 q -332 1004 -332 958 q -280 1131 -332 1083 q -134 1178 -227 1178 q 76 1103 -16 1178 q 234 870 167 1027 l 414 870 l 414 759 l 251 759 l 251 0 l 105 0 z "},"ु":{"ha":0,"x_min":-584,"x_max":7,"o":"m -229 30 q -55 -26 -117 30 q 7 -168 7 -81 q -58 -307 7 -254 q -238 -359 -122 -359 q -584 -220 -416 -361 l -537 -114 q -252 -245 -384 -245 q -156 -223 -189 -245 q -124 -162 -124 -201 q -152 -102 -124 -123 q -241 -81 -179 -81 q -367 -117 -302 -81 l -399 -17 q -320 17 -366 5 q -229 30 -273 30 z "},"ू":{"ha":0,"x_min":-451,"x_max":159,"o":"m -205 -367 q -382 -311 -313 -367 q -451 -169 -451 -256 q -390 -30 -451 -82 q -221 22 -329 22 q 159 -241 -5 22 l 82 -321 q -72 -144 0 -195 q -214 -94 -144 -94 q -293 -117 -266 -94 q -320 -179 -320 -140 q -289 -240 -320 -218 q -207 -262 -257 -262 q -110 -251 -157 -262 l -96 -354 q -205 -367 -136 -367 z "},"ृ":{"ha":0,"x_min":-453,"x_max":-90,"o":"m -214 -348 q -388 -294 -323 -348 q -453 -155 -453 -239 q -392 -20 -453 -70 q -229 30 -331 30 l -142 30 l -142 -67 l -200 -67 q -288 -93 -258 -67 q -319 -160 -319 -119 q -290 -225 -319 -201 q -208 -250 -260 -250 q -104 -232 -156 -250 l -90 -326 q -214 -348 -135 -348 z "},"ॄ":{"ha":0,"x_min":-418,"x_max":-90,"o":"m -372 -297 q -346 -231 -372 -260 q -399 -179 -380 -210 q -418 -112 -418 -148 q -366 -9 -418 -49 q -228 30 -314 30 l -142 30 l -142 -67 l -201 -67 q -278 -80 -257 -67 q -299 -118 -299 -92 q -276 -159 -299 -144 q -214 -173 -254 -173 q -125 -161 -175 -173 l -106 -241 q -218 -262 -155 -262 l -230 -262 q -269 -305 -269 -272 q -201 -351 -269 -351 q -106 -332 -162 -351 l -90 -408 q -201 -433 -140 -433 q -327 -395 -281 -433 q -372 -297 -372 -358 z "},"ॅ":{"ha":0,"x_min":-653,"x_max":-149,"o":"m -631 1148 l -632 1148 q -631 1147 -632 1148 l -631 1148 m -395 1058 q -171 1141 -260 1058 l -149 1038 q -249 968 -187 994 q -389 943 -311 943 q -535 970 -466 943 q -653 1042 -604 997 l -631 1147 q -519 1081 -581 1103 q -395 1058 -458 1058 z "},"ॆ":{"ha":0,"x_min":-666,"x_max":-143,"o":"m -143 828 l -284 828 l -284 899 q -349 978 -284 978 q -416 968 -362 978 q -501 958 -469 958 q -666 1026 -587 958 l -627 1118 q -496 1070 -565 1070 q -405 1086 -473 1070 q -306 1102 -336 1102 q -186 1052 -230 1102 q -143 911 -143 1002 l -143 828 z "},"े":{"ha":0,"x_min":-555,"x_max":-130,"o":"m -130 836 l -285 836 l -555 1149 l -437 1215 l -130 836 z "},"ै":{"ha":0,"x_min":-690,"x_max":-141,"o":"m -354 836 l -690 1062 l -606 1158 l -303 935 l -431 1218 l -311 1254 l -141 836 l -354 836 z "},"ॉ":{"ha":393,"x_min":-78,"x_max":427,"o":"m 104 0 l 104 759 l -21 759 l -21 870 l 413 870 l 413 759 l 250 759 l 250 0 l 104 0 m -56 1149 l -57 1149 q -56 1148 -57 1149 l -56 1149 m 180 1059 q 404 1142 315 1059 l 427 1038 q 326 969 388 995 q 186 943 264 943 q 40 970 109 943 q -78 1042 -28 998 l -56 1148 q 56 1081 -5 1104 q 180 1059 117 1059 z "},"ॊ":{"ha":393,"x_min":-283,"x_max":414,"o":"m -21 759 l -21 870 l 98 870 l 98 899 q 33 978 98 978 q -33 968 20 978 q -119 958 -87 958 q -283 1026 -205 958 l -244 1118 q -113 1070 -182 1070 q -22 1086 -90 1070 q 77 1102 46 1102 q 196 1052 153 1102 q 239 911 239 1002 l 239 870 l 414 870 l 414 759 l 251 759 l 251 0 l 105 0 l 104 759 l -21 759 z "},"ो":{"ha":393,"x_min":-164,"x_max":414,"o":"m 105 0 l 105 759 l -20 759 l -20 870 l 76 870 l -164 1149 l -46 1215 l 233 870 l 414 870 l 414 759 l 251 759 l 251 0 l 105 0 z "},"ौ":{"ha":393,"x_min":-292,"x_max":414,"o":"m 105 0 l 105 759 l -20 759 l -20 870 l -7 870 l -292 1062 l -208 1158 l 95 935 l -33 1218 l 87 1254 l 243 870 l 414 870 l 414 759 l 251 759 l 251 0 l 105 0 z "},"्":{"ha":0,"x_min":-342,"x_max":48,"o":"m -342 -163 l -288 -62 l 48 -230 l -9 -329 l -342 -163 z "},"ॎ":{"ha":389,"x_min":104,"x_max":409,"o":"m 104 0 l 104 870 l 409 870 l 409 759 l 250 759 l 250 0 l 104 0 z "},"ॏ":{"ha":393,"x_min":-315,"x_max":414,"o":"m -22 760 l -22 871 l 51 871 l 48 875 q 12 915 31 903 q -30 927 -7 927 q -97 918 -52 927 q -167 908 -142 908 q -315 962 -243 908 l -284 1047 q -172 1006 -229 1006 q -96 1020 -153 1006 q -14 1034 -39 1034 q 134 948 73 1034 l 134 1012 q 119 1060 134 1043 q 84 1077 104 1077 q 21 1068 64 1077 q -46 1059 -22 1059 q -204 1126 -133 1059 l -168 1209 q -46 1160 -106 1160 q 34 1173 -22 1160 q 114 1187 90 1187 q 213 1145 176 1187 q 251 1025 251 1104 l 251 871 l 414 871 l 414 760 l 251 760 l 251 1 l 105 1 l 103 760 l -22 760 z "},"ॐ":{"ha":1261,"x_min":94,"x_max":1176,"o":"m 315 55 q 207 66 257 55 q 94 104 157 77 l 114 218 q 212 183 175 193 q 290 173 248 173 q 384 208 349 173 q 418 295 418 242 q 389 384 418 349 q 305 427 359 419 q 186 416 252 416 l 186 531 q 348 568 298 531 q 399 663 399 604 q 370 734 399 707 q 288 762 340 762 q 229 753 256 762 q 154 724 201 745 l 135 835 q 300 876 212 876 q 479 819 412 876 q 546 665 546 763 q 455 488 546 553 q 532 412 503 458 q 565 308 562 366 q 602 306 575 306 q 668 333 642 306 q 707 425 694 360 q 794 610 735 551 q 951 669 853 669 q 1112 596 1048 669 q 1176 410 1176 524 q 1115 228 1176 297 q 951 159 1055 159 q 844 176 905 159 l 859 278 q 945 267 903 267 q 1015 303 987 267 q 1042 413 1042 340 q 1018 522 1042 487 q 954 557 994 557 q 842 407 869 557 q 766 244 820 294 q 616 194 711 194 l 615 195 q 550 201 579 195 q 463 93 525 131 q 315 55 401 55 m 569 935 l 568 935 q 569 934 568 935 l 569 935 m 867 1049 l 867 920 l 736 920 l 736 1049 l 867 1049 m 805 844 q 1029 928 941 844 l 1052 824 q 951 755 1013 781 q 812 729 889 729 q 666 756 734 729 q 547 828 597 783 l 569 934 q 681 867 620 890 q 805 844 742 844 z "},"॑":{"ha":0,"x_min":-286,"x_max":-141,"o":"m -286 1161 l -141 1161 l -141 960 l -286 960 l -286 1161 z "},"॒":{"ha":0,"x_min":-629,"x_max":-140,"o":"m -140 -155 l -629 -155 l -629 -48 l -140 -48 l -140 -155 z "},"॓":{"ha":0,"x_min":-422,"x_max":-148,"o":"m -241 1221 l -148 963 l -275 963 l -422 1221 l -241 1221 z "},"॔":{"ha":0,"x_min":-280,"x_max":-7,"o":"m -280 963 l -186 1221 l -7 1221 l -153 963 l -280 963 z "},"ॕ":{"ha":0,"x_min":-648,"x_max":-144,"o":"m -145 935 l -635 935 l -635 1036 l -145 1036 l -145 935 m -627 1266 l -627 1266 q -627 1265 -627 1266 l -627 1266 m -166 1260 l -144 1168 q -389 1083 -229 1083 q -530 1107 -461 1083 q -648 1171 -599 1132 l -627 1265 q -390 1186 -525 1186 q -166 1260 -254 1186 z "},"ॖ":{"ha":0,"x_min":-482,"x_max":71,"o":"m 71 -131 q -196 -223 -36 -223 q -482 -135 -357 -223 l -450 -39 q -202 -116 -341 -116 q 33 -36 -62 -116 l 71 -131 z "},"ॗ":{"ha":0,"x_min":-495,"x_max":85,"o":"m 85 -292 q -196 -374 -28 -374 q -495 -296 -365 -374 l -460 -210 q -199 -279 -345 -279 q 46 -208 -53 -279 l 85 -292 m 71 -126 q -198 -210 -36 -210 q -482 -130 -359 -210 l -450 -41 q -202 -113 -340 -113 q 33 -39 -64 -113 l 71 -126 z "},"क़":{"ha":1054,"x_min":-20,"x_max":1074,"o":"m 184 54 l 184 -65 l 48 -65 l 48 54 l 184 54 m 292 120 q 101 190 176 120 q 26 375 26 260 q 95 553 26 490 q 281 617 165 617 q 450 587 378 617 l 450 758 l -20 758 l -20 869 l 1074 869 l 1074 758 l 596 758 l 596 568 q 728 591 654 591 q 916 523 842 591 q 990 345 990 454 q 904 110 990 220 l 766 136 q 844 345 844 245 q 810 439 844 404 q 716 475 776 475 q 596 432 656 475 l 596 0 l 451 -1 l 451 160 q 292 120 389 120 m 294 237 q 450 301 388 237 l 450 462 q 302 502 384 502 q 207 468 241 502 q 172 371 172 433 q 207 272 172 308 q 294 237 241 237 z "},"ख़":{"ha":1175,"x_min":-20,"x_max":1196,"o":"m 237 54 l 237 -64 l 102 -64 l 102 54 l 237 54 m 770 307 q 887 342 838 307 l 887 505 q 831 530 857 524 q 761 536 804 536 q 686 505 718 536 q 654 421 654 474 q 688 337 654 368 q 770 307 722 307 m 308 597 l 308 759 l -20 759 l -20 870 l 1196 870 l 1196 759 l 1034 759 l 1034 0 l 887 0 l 887 215 q 760 191 834 191 q 586 258 660 191 q 511 427 511 325 q 578 589 511 528 q 743 650 645 650 q 887 625 828 650 l 887 759 l 454 759 l 454 587 q 296 328 454 375 l 522 60 l 416 -16 l -4 488 l 97 566 l 211 457 q 285 495 262 463 q 308 597 308 528 z "},"ग़":{"ha":836,"x_min":-20,"x_max":857,"o":"m 271 54 l 271 -64 l 136 -64 l 136 54 l 271 54 m 549 0 l 549 759 l 312 759 l 312 344 q 291 275 312 299 q 230 251 271 251 q 107 305 165 251 q 50 421 50 359 q 73 475 50 455 q 139 494 97 494 l 166 494 l 166 759 l -20 759 l -20 870 l 857 870 l 857 759 l 694 759 l 694 0 l 549 0 z "},"ज़":{"ha":941,"x_min":-20,"x_max":962,"o":"m 214 0 l 214 -119 l 78 -119 l 78 0 l 214 0 m 654 0 l 654 472 l 434 472 q 505 301 505 406 q 437 129 505 196 q 245 62 369 62 q 36 111 145 62 l 61 224 q 144 191 108 200 q 218 182 180 182 q 321 218 284 184 q 358 319 358 253 q 306 429 358 385 q 168 473 254 473 l 121 473 l 121 587 l 654 587 l 654 759 l -20 759 l -20 870 l 962 870 l 962 759 l 800 759 l 800 0 l 654 0 z "},"ड़":{"ha":745,"x_min":-20,"x_max":765,"o":"m 447 -62 l 447 -180 l 311 -180 l 311 -62 l 447 -62 m 376 19 q 204 42 287 19 q 60 101 121 65 l 94 217 q 228 157 153 182 q 372 133 304 133 q 482 159 439 133 q 525 226 525 184 q 499 289 525 267 q 425 311 473 311 q 273 269 342 311 l 256 269 q 130 350 178 294 q 81 479 81 406 q 137 599 81 553 q 300 645 194 645 l 457 645 l 457 759 l -20 759 l -20 870 l 765 870 l 765 759 l 602 759 l 602 534 l 309 534 q 218 459 218 534 q 262 391 218 414 q 429 426 345 426 q 605 370 541 426 q 669 223 669 315 q 591 75 669 131 q 376 19 513 19 z "},"ढ़":{"ha":746,"x_min":-20,"x_max":767,"o":"m 464 -64 l 464 -182 l 328 -182 l 328 -64 l 464 -64 m 374 611 l 458 611 l 458 759 l -20 759 l -20 870 l 767 870 l 767 759 l 604 759 l 604 497 l 392 497 q 244 452 297 497 q 192 328 192 406 q 256 182 192 233 q 424 132 320 132 q 526 157 490 132 q 562 222 562 182 q 475 288 562 288 q 338 228 414 288 l 288 324 q 482 399 371 399 q 638 350 581 399 q 694 222 694 300 q 600 60 694 115 q 424 22 534 22 q 229 61 314 22 q 96 172 143 100 q 48 340 48 244 q 134 537 48 464 q 374 611 220 611 z "},"फ़":{"ha":1071,"x_min":-21,"x_max":1090,"o":"m 264 54 l 264 -65 l 128 -65 l 128 54 l 264 54 m 338 267 q 149 341 219 267 q 78 559 78 415 l 78 758 l -21 758 l -21 869 l 1090 869 l 1090 758 l 611 758 l 611 568 q 747 591 671 591 q 933 523 861 591 q 1006 345 1006 454 q 919 110 1006 218 l 781 136 q 859 345 859 245 q 825 439 859 404 q 731 475 791 475 q 611 432 671 475 l 611 0 l 465 -1 l 465 294 q 338 267 414 267 m 465 759 l 224 759 l 224 525 q 253 417 224 452 q 336 382 283 382 q 465 432 415 382 l 465 759 z "},"य़":{"ha":822,"x_min":-20,"x_max":842,"o":"m 292 54 l 292 -64 l 156 -64 l 156 54 l 292 54 m 390 300 q 534 347 476 300 l 534 759 l 309 759 q 353 690 336 729 q 370 612 370 651 q 325 484 370 538 q 207 416 279 430 q 285 330 237 361 q 390 300 334 300 m 534 0 l 534 205 q 394 181 476 182 q 176 261 278 181 q 34 468 73 341 l 37 490 q 223 627 223 512 q 151 759 223 705 l -20 759 l -20 870 l 842 870 l 842 759 l 680 759 l 680 0 l 534 0 z "},"ॠ":{"ha":1068,"x_min":-20,"x_max":1088,"o":"m 207 512 q 41 465 132 512 l 14 592 q 201 639 100 639 q 418 566 302 639 l 458 541 l 458 760 l -20 760 l -20 871 l 1088 871 l 1088 760 l 604 760 l 604 488 q 725 516 674 494 q 702 580 702 549 q 731 633 702 611 q 813 655 760 655 q 908 627 867 655 q 948 559 948 599 q 909 481 948 520 l 901 473 l 990 316 l 985 272 q 882 228 908 248 q 857 180 857 207 q 873 139 857 153 q 925 125 890 125 q 992 136 960 125 l 1004 39 q 907 24 954 24 q 773 67 823 24 q 723 183 723 111 q 838 330 723 277 l 793 406 q 604 361 706 369 l 604 0 l 456 1 l 456 280 l 174 106 l 96 219 l 427 415 l 389 439 q 288 495 328 478 q 207 512 247 512 z "},"ॡ":{"ha":990,"x_min":-20,"x_max":1010,"o":"m 964 -143 l 964 -142 l 964 -143 m 682 -31 q 707 35 682 6 q 654 86 672 55 q 635 154 635 117 q 675 244 635 208 q 782 289 715 280 q 784 342 784 305 q 758 442 784 406 q 681 478 732 478 q 597 429 630 478 q 564 285 564 380 l 564 193 l 420 193 l 420 313 q 378 430 414 389 q 296 471 342 471 q 220 435 249 471 q 191 333 191 399 q 218 204 191 267 q 307 63 245 140 l 189 18 q 50 352 50 177 q 112 532 50 464 q 275 600 175 600 q 395 574 341 600 q 484 504 448 549 q 675 600 556 600 q 701 598 685 600 l 701 759 l -20 759 l -20 870 l 1010 870 l 1010 759 l 848 759 l 848 540 q 925 349 925 471 q 904 198 925 281 l 860 198 q 779 185 802 198 q 757 145 757 172 q 779 105 757 119 q 840 91 801 91 q 929 102 879 91 l 947 23 q 836 2 899 2 l 821 2 q 787 -40 787 -8 q 853 -85 787 -85 q 947 -67 894 -85 l 964 -142 q 852 -167 913 -167 q 727 -130 772 -167 q 682 -31 682 -92 z "},"ॢ":{"ha":0,"x_min":-479,"x_max":56,"o":"m -9 -247 q -101 -224 -67 -247 q -135 -171 -135 -202 q -113 -119 -135 -139 q -60 -94 -92 -100 q -58 -75 -58 -81 q -72 -43 -58 -56 q -109 -31 -85 -31 q -147 -50 -134 -31 q -161 -95 -161 -68 l -161 -140 l -273 -140 l -273 -96 q -290 -51 -273 -70 q -332 -31 -307 -31 q -370 -44 -357 -31 q -382 -78 -382 -57 q -309 -204 -382 -130 l -393 -230 q -455 -153 -432 -195 q -479 -63 -479 -110 q -442 16 -479 -16 q -340 49 -406 49 q -222 8 -274 49 q -108 49 -172 49 q -5 15 -43 49 q 33 -71 33 -20 q 20 -140 33 -107 l -2 -140 q -54 -169 -54 -140 q -41 -190 -54 -182 q -9 -197 -28 -197 q 47 -189 9 -197 l 56 -238 q -10 -248 28 -248 l -9 -247 z "},"ॣ":{"ha":0,"x_min":-474,"x_max":65,"o":"m -54 -92 l -54 -75 q -67 -43 -54 -56 q -104 -31 -80 -31 q -142 -50 -129 -31 q -156 -96 -156 -68 l -156 -140 l -269 -140 l -269 -97 q -286 -51 -269 -70 q -327 -32 -302 -32 q -365 -44 -352 -32 q -378 -79 -378 -57 q -304 -205 -378 -130 l -388 -231 q -451 -153 -427 -195 q -474 -63 -474 -110 q -437 16 -474 -16 q -335 49 -401 49 q -217 8 -269 49 q -103 49 -168 49 q -1 14 -39 49 q 37 -71 37 -20 q 25 -134 37 -102 l 3 -134 q -38 -139 -26 -134 q -49 -157 -49 -144 q -7 -179 -49 -179 q 43 -174 10 -179 l 53 -215 q -10 -224 26 -224 l -12 -224 q -30 -241 -30 -229 q -20 -256 -30 -251 q 8 -262 -11 -262 q 53 -254 26 -262 l 64 -293 l 65 -293 q -7 -302 34 -302 q -74 -286 -48 -302 q -100 -242 -100 -270 q -85 -212 -100 -226 q -130 -155 -130 -193 q -110 -114 -130 -130 q -54 -92 -89 -97 z "},"।":{"ha":578,"x_min":216,"x_max":362,"o":"m 362 -109 l 216 -109 l 216 941 l 362 941 l 362 -109 z "},"॥":{"ha":847,"x_min":216,"x_max":631,"o":"m 631 -109 l 486 -109 l 486 941 l 631 941 l 631 -109 m 362 -109 l 216 -109 l 216 941 l 362 941 l 362 -109 z "},"०":{"ha":751,"x_min":64,"x_max":685,"o":"m 373 259 l 373 260 q 494 310 448 260 q 539 445 539 361 q 493 581 539 529 q 373 633 446 633 q 255 581 300 633 q 210 445 210 528 q 258 311 210 362 q 373 259 305 259 m 64 444 q 64 509 64 444 q 150 661 64 575 q 373 746 235 746 q 598 661 511 746 q 685 445 685 576 q 600 229 685 313 q 377 145 514 145 q 152 229 240 145 q 64 444 64 312 z "},"१":{"ha":590,"x_min":49,"x_max":542,"o":"m 186 651 l 187 651 q 230 564 187 597 q 350 526 272 532 q 395 586 381 557 q 410 654 410 614 q 377 726 410 694 q 296 758 345 758 q 217 727 248 758 q 186 651 186 696 m 368 15 l 368 48 q 360 99 368 83 q 326 130 353 114 l 83 272 l 81 302 l 245 438 q 103 518 157 460 q 49 662 49 577 q 116 808 49 747 q 293 869 182 869 q 473 805 404 869 q 542 650 542 741 q 514 537 542 587 q 407 416 487 486 l 270 296 l 431 200 q 492 142 474 174 q 510 59 510 111 l 510 15 l 368 15 z "},"२":{"ha":623,"x_min":66,"x_max":559,"o":"m 250 255 q 173 247 214 247 q 102 272 132 247 q 73 351 73 297 q 107 444 73 404 q 189 483 142 483 q 298 422 251 483 q 384 494 352 449 q 416 597 416 538 q 369 699 416 656 q 248 741 321 741 q 167 732 203 741 q 83 705 132 724 l 66 822 q 248 861 150 861 q 474 785 390 861 q 559 591 559 709 q 506 426 559 503 q 370 302 453 350 l 552 58 l 435 -7 l 250 255 z "},"३":{"ha":631,"x_min":65,"x_max":548,"o":"m 240 131 q 113 159 161 131 q 65 230 65 186 q 95 304 65 274 q 172 334 124 334 q 319 254 243 334 q 380 286 358 261 q 402 352 402 311 q 374 423 402 393 q 292 461 345 453 q 218 456 255 456 l 165 456 l 165 570 l 187 570 q 330 597 281 570 q 379 669 379 625 q 350 735 379 712 q 262 758 320 758 q 121 718 205 758 l 104 827 q 184 856 140 845 q 266 866 229 866 q 457 812 389 866 q 525 669 525 758 q 444 520 525 581 q 520 444 492 490 q 548 345 548 398 q 503 220 548 273 q 387 144 458 167 l 496 9 l 384 -46 l 243 131 l 240 131 z "},"४":{"ha":696,"x_min":58,"x_max":659,"o":"m 270 254 q 297 192 270 215 q 362 170 323 170 q 426 192 401 170 q 451 247 451 214 q 433 304 451 279 q 356 365 414 330 q 270 254 270 313 m 360 58 l 360 57 q 196 113 262 57 q 130 252 130 170 q 242 435 130 351 q 111 566 163 492 q 58 724 58 640 q 86 852 58 789 l 220 822 q 199 714 199 770 q 357 507 199 610 q 487 611 454 565 q 520 716 520 658 q 517 769 520 749 q 499 829 513 790 l 630 848 q 659 719 659 771 q 471 431 659 554 q 585 246 585 343 q 523 110 585 161 q 360 58 461 58 z "},"५":{"ha":678,"x_min":50,"x_max":680,"o":"m 351 249 q 136 325 222 249 q 50 522 50 400 q 115 716 50 625 q 303 871 180 808 l 401 785 q 194 516 194 673 q 236 410 194 450 q 339 370 279 370 q 377 373 361 370 q 367 432 367 395 q 397 496 367 469 q 484 524 427 524 q 583 490 542 524 q 624 410 624 457 q 554 301 624 347 l 680 43 l 556 -3 l 437 256 q 351 249 400 249 z "},"६":{"ha":641,"x_min":86,"x_max":621,"o":"m 368 115 q 164 174 241 115 q 86 340 86 234 q 188 519 86 456 q 98 674 98 574 q 163 813 98 763 q 349 863 229 863 q 536 830 451 863 l 517 724 q 373 753 438 753 q 275 728 307 753 q 243 664 243 704 q 276 599 243 623 q 363 572 309 574 q 431 574 391 574 l 482 574 l 482 460 l 437 460 q 233 336 233 460 q 266 259 233 287 q 345 231 299 231 q 359 232 354 231 q 353 274 353 250 q 378 331 353 310 q 457 353 403 353 q 557 321 511 353 q 604 241 604 290 q 544 154 604 192 l 621 15 l 498 -31 l 421 117 q 368 115 399 115 z "},"७":{"ha":779,"x_min":69,"x_max":733,"o":"m 512 588 q 493 588 512 588 q 451 563 474 588 q 429 491 429 538 q 468 410 429 445 q 591 359 507 374 q 602 453 602 405 q 576 554 602 521 q 512 588 550 588 m 208 476 q 265 267 208 336 q 408 199 322 199 q 545 261 494 199 q 365 343 431 279 q 298 497 298 408 q 353 642 298 587 q 498 698 408 698 q 668 629 602 698 q 733 448 733 561 q 650 197 733 296 q 412 87 559 87 q 208 153 293 87 q 86 342 119 221 q 69 491 69 406 q 98 675 69 577 q 174 852 126 774 l 310 823 q 237 650 267 749 q 208 476 208 551 z "},"८":{"ha":632,"x_min":56,"x_max":573,"o":"m 204 357 q 250 255 204 292 q 360 219 295 218 q 460 227 426 220 q 555 255 495 234 l 573 136 q 470 108 518 117 q 357 99 422 99 q 142 172 228 99 q 56 363 56 245 q 195 629 56 496 l 443 864 l 548 782 l 304 543 q 204 357 204 445 z "},"९":{"ha":637,"x_min":52,"x_max":569,"o":"m 429 635 q 430 664 429 635 q 396 724 431 692 q 311 757 362 757 q 228 722 260 757 q 195 629 195 687 q 209 568 195 594 q 264 496 222 542 q 385 541 342 503 q 429 635 427 579 m 415 22 l 415 80 q 400 154 415 123 q 348 221 385 184 l 165 406 q 52 637 52 520 q 121 806 52 739 q 306 873 190 873 q 495 805 421 873 q 569 635 569 737 q 513 480 569 545 q 358 398 456 415 l 469 282 q 538 187 517 233 q 559 88 559 141 l 559 22 l 415 22 z "},"॰":{"ha":522,"x_min":34,"x_max":476,"o":"m 356 449 q 356 473 356 449 q 327 527 356 496 q 255 557 298 557 q 182 527 211 557 q 153 449 153 496 q 182 371 153 401 q 254 341 212 341 q 326 371 296 341 q 356 449 356 401 m 476 447 q 476 402 476 447 q 414 298 476 357 q 257 239 351 239 q 99 301 163 239 q 34 452 34 363 q 95 600 34 542 q 252 659 156 659 q 412 597 347 659 q 476 447 476 536 z "},"ॱ":{"ha":466,"x_min":153,"x_max":292,"o":"m 292 879 l 292 743 l 153 743 l 153 879 l 292 879 z "},"ॲ":{"ha":983,"x_min":57,"x_max":1011,"o":"m 528 294 q 459 119 528 182 q 279 55 391 55 q 171 66 220 55 q 57 104 121 77 l 77 218 q 175 183 138 193 q 253 173 212 173 q 347 208 313 173 q 382 295 382 242 q 352 384 382 349 q 269 427 323 419 q 149 416 215 416 l 149 531 q 312 568 261 531 q 362 663 362 604 q 333 734 362 707 q 250 762 304 762 q 192 753 220 762 q 117 724 164 745 l 98 835 q 263 876 175 876 q 441 819 375 876 q 508 665 508 763 q 417 488 508 555 q 456 458 437 475 l 695 458 l 695 759 l 566 759 l 566 870 l 1003 870 l 1003 759 l 841 759 l 841 0 l 695 0 l 696 344 l 522 344 q 528 294 528 319 m 528 1148 l 528 1148 q 528 1147 528 1148 l 528 1148 m 764 1058 q 989 1141 900 1058 l 1011 1038 q 910 968 972 994 q 771 943 848 943 q 625 970 694 943 q 507 1042 556 997 l 528 1147 q 640 1081 579 1103 q 764 1058 701 1058 z "},"ॳ":{"ha":983,"x_min":58,"x_max":1004,"o":"m 528 294 q 460 119 528 182 q 279 55 392 55 q 171 66 221 55 q 58 104 121 77 l 78 218 q 176 183 139 193 q 254 173 212 173 q 348 208 313 173 q 382 295 382 242 q 353 384 382 349 q 269 427 323 419 q 150 416 216 416 l 150 531 q 312 568 262 531 q 363 663 363 604 q 334 734 363 707 q 251 762 304 762 q 193 753 220 762 q 117 724 165 745 l 98 835 q 264 876 176 876 q 442 819 376 876 q 509 665 509 763 q 418 488 509 555 q 456 458 438 475 l 696 458 l 696 759 l 566 759 l 566 870 l 690 870 l 690 998 l 836 998 l 836 870 l 1004 870 l 1004 759 l 842 759 l 842 0 l 696 0 l 696 344 l 523 344 q 528 294 528 319 z "},"ॴ":{"ha":1364,"x_min":58,"x_max":1384,"o":"m 528 294 q 460 119 528 182 q 279 55 392 55 q 171 66 221 55 q 58 104 121 77 l 78 218 q 176 183 139 193 q 254 173 212 173 q 348 208 313 173 q 382 295 382 242 q 353 384 382 349 q 269 427 323 419 q 150 416 216 416 l 150 531 q 312 568 262 531 q 363 663 363 604 q 334 734 363 707 q 251 762 304 762 q 193 753 220 762 q 117 724 165 745 l 98 835 q 264 876 176 876 q 442 819 376 876 q 509 665 509 763 q 418 488 509 555 q 456 458 438 475 l 696 458 l 696 759 l 566 759 l 566 870 l 1070 870 l 1070 998 l 1215 998 l 1215 870 l 1384 870 l 1384 759 l 1221 759 l 1221 0 l 1076 0 l 1076 759 l 842 759 l 842 0 l 696 0 l 696 344 l 523 344 q 528 294 528 319 z "},"ॵ":{"ha":1364,"x_min":56,"x_max":1384,"o":"m 526 294 q 458 119 526 182 q 277 55 390 55 q 169 66 219 55 q 56 104 119 77 l 76 218 q 174 183 137 193 q 252 173 210 173 q 346 208 311 173 q 380 295 380 242 q 351 384 380 349 q 267 427 321 419 q 148 416 214 416 l 148 531 q 310 568 260 531 q 361 663 361 604 q 332 734 361 707 q 249 762 302 762 q 191 753 218 762 q 115 724 163 745 l 96 835 q 262 876 174 876 q 440 819 374 876 q 507 665 507 763 q 416 488 507 555 q 454 458 436 475 l 694 458 l 694 759 l 564 759 l 564 870 l 1021 870 q 982 915 1002 902 q 940 927 962 927 q 873 918 918 927 q 803 908 827 908 q 655 962 727 908 l 686 1047 q 798 1006 741 1006 q 873 1020 817 1006 q 956 1034 930 1034 q 1104 948 1043 1034 l 1104 1012 q 1089 1060 1104 1043 q 1054 1077 1074 1077 q 991 1068 1034 1077 q 924 1059 948 1059 q 766 1126 837 1059 l 802 1209 q 924 1160 863 1160 q 1003 1173 947 1160 q 1084 1187 1059 1187 q 1183 1145 1145 1187 q 1221 1025 1221 1104 l 1221 870 l 1384 870 l 1384 759 l 1221 759 l 1221 0 l 1076 0 l 1076 759 l 842 759 l 842 0 l 696 0 l 694 344 l 521 344 q 526 294 526 319 z "},"ॶ":{"ha":983,"x_min":58,"x_max":1004,"o":"m 758 -130 q 491 -222 651 -222 q 205 -134 330 -222 l 237 -38 q 485 -115 346 -115 q 720 -35 625 -115 l 758 -130 m 528 294 q 460 119 528 182 q 279 55 392 55 q 171 66 221 55 q 58 104 121 77 l 78 218 q 176 183 139 193 q 254 173 212 173 q 348 208 313 173 q 382 295 382 242 q 353 384 382 349 q 269 427 323 419 q 150 416 216 416 l 150 531 q 312 568 262 531 q 363 663 363 604 q 334 734 363 707 q 251 762 304 762 q 193 753 220 762 q 117 724 165 745 l 98 835 q 264 876 176 876 q 442 819 376 876 q 509 665 509 763 q 418 488 509 555 q 456 458 438 475 l 696 458 l 696 759 l 566 759 l 566 870 l 1004 870 l 1004 759 l 842 759 l 842 0 l 696 0 l 696 344 l 523 344 q 528 294 528 319 z "},"ॷ":{"ha":983,"x_min":58,"x_max":1004,"o":"m 764 -292 q 483 -374 651 -374 q 184 -295 314 -374 l 218 -210 q 480 -278 334 -278 q 725 -207 626 -278 l 764 -292 m 749 -125 q 481 -210 643 -210 q 197 -129 319 -210 l 229 -41 q 477 -112 338 -112 q 711 -39 615 -112 l 749 -125 m 528 294 q 460 119 528 182 q 279 55 392 55 q 171 66 221 55 q 58 104 121 77 l 78 218 q 176 183 139 193 q 254 173 212 173 q 348 208 313 173 q 382 295 382 242 q 353 384 382 349 q 269 427 323 419 q 150 416 216 416 l 150 531 q 312 568 262 531 q 363 663 363 604 q 334 734 363 707 q 251 762 304 762 q 193 753 220 762 q 117 724 165 745 l 98 835 q 264 876 176 876 q 442 819 376 876 q 509 665 509 763 q 418 488 509 555 q 456 458 438 475 l 696 458 l 696 759 l 566 759 l 566 870 l 1004 870 l 1004 759 l 842 759 l 842 0 l 696 0 l 696 344 l 523 344 q 528 294 528 319 z "},"ॸ":{"ha":753,"x_min":-20,"x_max":773,"o":"m 543 279 q 508 366 543 332 q 413 400 473 400 q 304 382 353 400 l 304 315 q 283 253 304 275 q 224 231 262 231 q 102 281 157 231 q 48 395 48 332 q 72 449 48 428 q 136 476 96 471 l 159 479 l 159 759 l -20 759 l -20 870 l 773 870 l 773 759 l 304 759 l 304 514 q 416 524 348 524 q 616 456 543 524 q 688 279 688 388 q 666 158 688 220 q 602 44 644 95 l 465 70 q 543 279 543 179 z "},"ॹ":{"ha":941,"x_min":-20,"x_max":962,"o":"m 337 -94 l 337 -213 l 201 -213 l 201 -94 l 337 -94 m 497 14 l 497 -105 l 361 -105 l 361 14 l 497 14 m 173 14 l 173 -105 l 37 -105 l 37 14 l 173 14 m 654 0 l 654 472 l 434 472 q 505 301 505 406 q 437 129 505 196 q 245 62 369 62 q 36 111 145 62 l 61 224 q 144 191 108 200 q 218 182 180 182 q 321 218 284 184 q 358 319 358 253 q 306 429 358 385 q 168 473 254 473 l 121 473 l 121 587 l 654 587 l 654 759 l -20 759 l -20 870 l 962 870 l 962 759 l 800 759 l 800 0 l 654 0 z "},"ॺ":{"ha":822,"x_min":-20,"x_max":842,"o":"m 534 759 l 326 759 l 534 416 l 534 759 m 534 0 l 534 205 q 394 181 476 182 q 176 261 278 181 q 34 468 73 341 l 37 490 q 223 627 223 512 q 151 759 223 705 l -20 759 l -20 870 l 842 870 l 842 759 l 680 759 l 680 0 l 534 0 m 207 416 q 285 330 237 361 q 392 300 334 300 q 493 320 450 300 l 359 545 q 301 460 341 494 q 207 416 261 427 z "},"ॻ":{"ha":836,"x_min":-20,"x_max":857,"o":"m 136 -81 l 136 23 l 549 23 l 549 759 l 312 759 l 312 344 q 291 275 312 299 q 230 251 271 251 q 107 305 165 251 q 50 421 50 359 q 73 475 50 455 q 139 494 97 494 l 166 494 l 166 759 l -20 759 l -20 870 l 857 870 l 857 759 l 694 759 l 694 -81 l 136 -81 z "},"ॼ":{"ha":941,"x_min":-20,"x_max":962,"o":"m 40 -92 l 40 12 l 654 12 l 654 472 l 434 472 q 505 301 505 406 q 437 129 505 196 q 245 62 369 62 q 36 111 145 62 l 61 224 q 144 191 108 200 q 218 182 180 182 q 321 218 284 184 q 358 319 358 253 q 306 429 358 385 q 168 473 254 473 l 121 473 l 121 587 l 654 587 l 654 759 l -20 759 l -20 870 l 962 870 l 962 759 l 800 759 l 800 -92 l 40 -92 z "},"ॽ":{"ha":678,"x_min":123,"x_max":606,"o":"m 229 458 q 393 501 332 458 q 453 623 453 545 q 412 723 453 684 q 308 762 371 762 q 231 753 264 762 q 153 721 199 745 l 123 836 q 315 878 214 878 q 526 807 446 878 q 606 622 606 736 q 529 436 606 508 q 340 353 452 363 l 340 0 l 195 0 l 194 458 l 229 458 z "},"ॾ":{"ha":745,"x_min":-20,"x_max":765,"o":"m 644 -54 l 644 -158 l 117 -158 l 117 -54 l 644 -54 m 376 19 q 204 42 287 19 q 60 101 121 65 l 94 217 q 228 157 153 182 q 372 133 304 133 q 482 159 439 133 q 525 226 525 184 q 499 289 525 267 q 425 311 473 311 q 273 269 342 311 l 256 269 q 130 350 178 294 q 81 479 81 406 q 137 599 81 553 q 300 645 194 645 l 457 645 l 457 759 l -20 759 l -20 870 l 765 870 l 765 759 l 602 759 l 602 534 l 309 534 q 218 459 218 534 q 262 391 218 414 q 429 426 345 426 q 605 370 541 426 q 669 223 669 315 q 591 75 669 131 q 376 19 513 19 z "},"ॿ":{"ha":768,"x_min":-20,"x_max":789,"o":"m 113 -80 l 113 24 l 481 24 l 481 170 q 323 132 416 132 q 118 207 199 132 q 37 395 37 282 q 111 574 37 507 q 311 642 186 642 q 481 610 406 642 l 481 760 l -20 760 l -20 871 l 789 871 l 789 760 l 627 760 l 627 -80 l 113 -80 m 330 248 q 367 251 350 248 l 232 497 q 182 389 182 458 q 222 284 182 320 q 330 248 262 248 m 332 527 l 332 528 q 308 526 323 528 l 446 277 q 481 301 462 286 l 481 489 q 332 527 416 527 z "},"​":{"ha":0,"x_min":0,"x_max":0,"o":""},"‌":{"ha":0,"x_min":-26,"x_max":26,"o":"m 26 -237 l -26 -237 l -26 1101 l 26 1101 l 26 -237 z "},"‍":{"ha":0,"x_min":-184,"x_max":184,"o":"m 26 -236 l -26 -236 l -26 849 l -149 723 l -184 758 l -34 911 l -182 1063 l -149 1097 l 0 945 l 148 1097 l 184 1063 l 35 911 l 184 758 l 148 724 l 26 850 l 26 -236 z "},"–":{"ha":864,"x_min":90,"x_max":686,"o":"m 686 528 l 686 421 l 90 421 l 90 528 l 686 528 z "},"—":{"ha":1017,"x_min":90,"x_max":824,"o":"m 824 528 l 824 421 l 90 421 l 90 528 l 824 528 z "},"―":{"ha":1187,"x_min":0,"x_max":0,"o":""},"‘":{"ha":404,"x_min":117,"x_max":287,"o":"m 117 622 l 117 736 l 215 952 l 287 952 l 250 734 l 250 622 l 117 622 z "},"’":{"ha":404,"x_min":119,"x_max":289,"o":"m 289 952 l 289 834 l 191 623 l 119 623 l 155 833 l 155 952 l 289 952 z "},"‚":{"ha":282,"x_min":31,"x_max":217,"o":"m 217 22 q 186 -99 217 -35 q 106 -202 155 -162 l 31 -155 q 84 14 83 -76 l 84 103 l 217 103 l 217 22 z "},"“":{"ha":606,"x_min":117,"x_max":490,"o":"m 117 622 l 117 736 l 215 952 l 287 952 l 250 734 l 250 622 l 117 622 m 319 622 l 319 736 l 418 952 l 490 952 l 453 734 l 453 622 l 319 622 z "},"”":{"ha":611,"x_min":117,"x_max":494,"o":"m 288 952 l 288 834 l 189 623 l 117 623 l 154 833 l 154 952 l 288 952 m 494 952 l 494 834 l 396 623 l 324 623 l 361 833 l 361 952 l 494 952 z "},"„":{"ha":473,"x_min":31,"x_max":416,"o":"m 85 134 l 218 134 l 218 20 q 183 -115 218 -44 l 184 -115 q 109 -216 154 -177 l 31 -168 q 85 12 84 -83 l 85 134 m 416 23 q 385 -105 416 -38 q 304 -216 354 -172 l 227 -168 q 283 10 281 -80 l 283 134 l 416 134 l 416 23 z "},"†":{"ha":682,"x_min":39,"x_max":644,"o":"m 644 661 l 644 538 l 414 538 l 414 0 l 266 0 l 266 538 l 39 538 l 39 661 l 266 661 l 266 888 l 414 888 l 414 661 l 644 661 z "},"‡":{"ha":718,"x_min":56,"x_max":660,"o":"m 660 90 l 660 -28 l 431 -28 l 431 -282 l 282 -282 l 282 -28 l 56 -28 l 56 90 l 282 90 l 282 513 l 56 513 l 56 632 l 282 632 l 282 861 l 431 861 l 431 632 l 660 632 l 660 513 l 431 513 l 431 90 l 660 90 z "},"•":{"ha":437,"x_min":83,"x_max":354,"o":"m 83 477 l 83 524 q 119 618 83 582 q 218 655 156 655 q 317 619 280 655 q 354 524 354 583 l 354 477 q 317 382 354 417 q 219 347 281 347 q 120 382 157 347 q 83 477 83 418 z "},"…":{"ha":882,"x_min":84,"x_max":744,"o":"m 217 128 l 217 0 l 84 0 l 84 128 l 217 128 m 488 128 l 488 0 l 355 0 l 355 128 l 488 128 m 744 128 l 744 0 l 611 0 l 611 128 l 744 128 z "},"‰":{"ha":1196,"x_min":45,"x_max":1152,"o":"m 602 214 l 602 169 q 626 101 602 127 q 688 75 650 75 q 749 100 727 75 q 772 171 772 125 l 772 216 q 748 285 772 259 q 686 311 724 311 q 625 285 648 311 q 602 214 602 259 m 879 214 l 879 169 q 903 101 879 127 q 966 75 927 75 q 1027 99 1005 75 q 1049 171 1049 124 l 1049 216 q 1025 285 1049 259 q 963 311 1002 311 q 902 285 925 311 q 879 214 879 259 m 498 216 q 551 348 498 296 q 690 399 603 399 q 825 332 778 399 q 960 399 873 399 q 1100 348 1047 399 q 1152 212 1152 297 l 1152 169 q 1100 38 1152 90 q 961 -14 1048 -14 q 825 54 873 -14 q 690 -14 777 -14 q 550 38 602 -14 q 498 172 498 90 l 498 216 m 708 760 l 274 65 l 198 109 l 632 804 l 708 760 m 144 713 l 144 669 q 168 602 144 627 q 230 576 192 576 q 292 602 269 576 q 315 672 315 628 l 315 716 q 291 785 315 759 q 229 811 267 811 q 168 785 191 811 q 144 713 144 758 m 45 673 l 45 716 q 97 848 45 796 q 231 899 148 899 q 366 848 314 899 q 418 712 418 796 l 418 669 q 366 538 418 589 q 231 487 313 487 q 97 538 149 487 q 45 673 45 590 z "},"‹":{"ha":382,"x_min":66,"x_max":344,"o":"m 344 581 l 193 337 l 344 94 l 241 94 l 66 332 l 66 343 l 241 581 l 344 581 z "},"›":{"ha":376,"x_min":52,"x_max":329,"o":"m 52 581 l 153 581 l 329 343 l 329 332 l 153 94 l 52 94 l 202 337 l 52 581 z "},"⁄":{"ha":564,"x_min":28,"x_max":538,"o":"m 538 768 l 104 74 l 28 118 l 461 812 l 538 768 z "},"€":{"ha":711,"x_min":58,"x_max":654,"o":"m 534 406 l 534 320 l 316 320 q 512 109 324 109 q 637 130 578 109 l 654 5 q 504 -13 580 -13 q 257 74 347 -13 q 162 320 168 161 l 58 320 l 58 406 l 162 406 l 162 485 l 58 485 l 58 570 l 163 570 q 262 813 171 727 q 509 899 353 899 q 654 880 574 899 l 637 755 q 513 776 575 776 q 372 724 421 776 q 317 570 322 671 l 534 570 l 534 485 l 316 485 l 316 406 l 534 406 z "},"₹":{"ha":893,"x_min":123,"x_max":734,"o":"m 155 454 l 273 454 q 450 553 413 454 l 123 553 l 123 664 l 454 664 q 403 733 441 707 q 301 759 364 759 l 123 759 l 123 871 l 734 871 l 734 759 l 566 759 q 609 664 600 715 l 734 664 l 734 553 l 606 553 q 513 404 585 458 q 350 345 441 349 l 654 6 l 652 0 l 476 0 l 155 359 l 155 454 z "},"₺":{"ha":724,"x_min":20,"x_max":674,"o":"m 304 -14 q 155 -2 240 -14 l 155 368 l 20 314 l 20 435 l 155 489 l 155 572 l 20 519 l 20 642 l 155 694 l 155 886 l 309 886 l 309 755 l 446 810 l 446 688 l 309 633 l 309 550 l 446 605 l 446 483 l 309 429 l 309 113 q 521 420 521 116 l 521 467 l 674 466 l 674 412 q 627 186 673 283 q 497 38 581 90 q 304 -14 414 -14 z "},"₽":{"ha":858,"x_min":24,"x_max":812,"o":"m 303 764 l 303 454 l 487 454 q 658 608 658 454 q 615 720 658 677 q 496 764 572 762 l 303 764 m 500 265 l 500 141 l 303 141 l 303 0 l 150 0 l 150 141 l 24 141 l 24 265 l 150 265 l 150 330 l 24 330 l 24 454 l 150 454 l 150 888 l 490 888 q 725 812 637 888 q 812 608 812 736 q 729 406 812 479 q 496 330 646 332 l 303 330 l 303 265 l 500 265 z "},"™":{"ha":787,"x_min":66,"x_max":678,"o":"m 610 621 l 610 849 l 534 621 l 497 621 l 421 848 l 421 621 l 353 621 l 353 951 l 437 951 l 516 718 l 597 951 l 678 951 l 678 621 l 610 621 m 309 951 l 309 893 l 224 893 l 224 623 l 153 623 l 153 893 l 66 893 l 66 951 l 309 951 z "},"℮":{"ha":793,"x_min":92,"x_max":713,"o":"m 576 545 q 412 614 504 614 q 246 539 321 614 l 246 370 l 576 370 l 576 545 m 413 -14 q 250 34 325 -14 q 134 159 176 81 q 92 327 92 237 q 136 496 92 417 q 256 623 180 574 q 412 671 332 671 q 562 629 493 671 q 671 513 631 587 q 713 350 711 439 l 713 313 l 244 313 l 244 112 q 411 45 316 45 q 636 119 530 45 l 639 56 q 413 -14 528 -14 z "},"∂":{"ha":713,"x_min":58,"x_max":665,"o":"m 362 508 q 247 457 287 508 q 206 308 206 406 q 247 158 206 211 q 361 104 287 104 q 476 168 436 104 q 516 351 516 231 l 516 404 q 460 479 503 450 q 362 508 418 508 m 60 323 l 58 323 q 136 543 58 460 q 345 626 214 626 q 524 550 451 626 q 449 738 509 667 q 311 808 389 808 q 147 776 233 808 l 130 887 l 166 903 q 321 929 231 929 q 575 797 486 929 q 665 422 665 665 l 665 389 q 628 179 665 271 q 522 37 591 88 q 363 -14 452 -14 q 141 75 223 -14 q 60 315 60 163 l 60 323 z "},"∏":{"ha":873,"x_min":101,"x_max":774,"o":"m 774 873 l 774 -155 l 625 -155 l 625 755 l 250 755 l 250 -155 l 101 -155 l 101 873 l 774 873 z "},"∑":{"ha":758,"x_min":39,"x_max":743,"o":"m 743 -64 l 743 -182 l 39 -182 l 39 -90 l 400 345 l 39 778 l 39 871 l 707 871 l 707 751 l 233 751 l 556 353 l 556 335 l 233 -64 l 743 -64 z "},"−":{"ha":705,"x_min":96,"x_max":606,"o":"m 606 541 l 606 421 l 96 421 l 96 541 l 606 541 z "},"√":{"ha":734,"x_min":36,"x_max":714,"o":"m 36 352 l 36 473 l 255 473 l 352 182 l 582 888 l 714 888 l 416 0 l 296 0 l 163 352 l 36 352 z "},"∞":{"ha":1292,"x_min":56,"x_max":1230,"o":"m 920 551 q 753 428 820 551 q 719 342 728 382 l 719 320 q 755 226 728 275 q 918 106 820 106 q 1037 166 992 106 q 1082 325 1082 225 l 1083 336 q 1038 491 1083 431 q 920 551 994 551 m 365 550 q 246 490 290 550 q 202 327 202 430 q 247 165 202 224 q 366 106 291 106 q 482 160 429 106 q 566 319 539 218 l 566 342 q 532 427 556 384 q 365 550 465 550 m 922 -14 q 642 188 745 -14 q 362 -14 537 -14 q 205 30 275 -14 q 96 150 136 73 q 56 321 56 228 l 56 334 q 95 506 56 428 q 204 628 134 584 q 361 671 274 671 q 644 472 541 671 q 925 671 747 671 q 1081 628 1011 671 q 1190 508 1150 585 q 1230 338 1229 431 l 1229 321 q 1190 151 1229 228 q 1081 31 1151 75 q 922 -14 1010 -14 z "},"∫":{"ha":340,"x_min":-51,"x_max":414,"o":"m 28 -296 q -51 -285 -11 -296 l -40 -170 q 9 -178 -12 -178 q 95 -81 94 -178 l 95 692 q 154 862 95 802 q 321 921 212 921 q 414 908 357 921 l 399 795 q 344 802 375 802 q 244 690 244 802 l 243 -78 q 188 -241 243 -185 q 28 -296 133 -296 z "},"≈":{"ha":711,"x_min":61,"x_max":639,"o":"m 494 294 q 639 372 576 294 l 639 239 q 496 174 576 174 q 404 194 445 174 l 309 241 q 130 241 212 282 q 61 184 90 220 l 62 317 q 210 381 124 381 q 309 361 261 382 l 401 314 q 494 294 446 294 m 496 551 q 639 628 576 551 l 639 495 q 498 431 576 431 q 406 450 448 431 l 313 496 q 132 496 215 538 q 62 440 91 476 l 61 573 q 130 621 90 604 q 216 638 170 637 q 309 618 262 639 l 404 570 q 496 551 447 551 z "},"≠":{"ha":699,"x_min":89,"x_max":614,"o":"m 614 349 l 614 226 l 284 226 l 205 87 l 139 125 l 196 226 l 89 226 l 89 349 l 265 349 l 342 485 l 89 485 l 89 608 l 411 608 l 492 753 l 559 715 l 499 608 l 614 608 l 614 485 l 430 485 l 353 349 l 614 349 z "},"≤":{"ha":635,"x_min":26,"x_max":545,"o":"m 536 132 l 536 13 l 26 13 l 26 132 l 536 132 m 545 529 l 193 407 l 181 405 l 181 402 l 193 400 l 545 281 l 545 146 l 35 351 l 35 458 l 545 661 l 545 529 z "},"≥":{"ha":650,"x_min":67,"x_max":597,"o":"m 577 132 l 577 13 l 67 13 l 67 132 l 577 132 m 439 409 l 69 530 l 69 661 l 597 458 l 597 351 l 69 146 l 69 278 l 439 403 l 450 403 l 450 407 l 439 409 z "},"◊":{"ha":632,"x_min":22,"x_max":612,"o":"m 463 444 l 315 730 l 171 444 l 319 156 l 463 444 m 22 444 l 256 888 l 376 888 l 612 444 l 378 0 l 258 0 l 22 444 z "},"◌":{"ha":730,"x_min":83,"x_max":652,"o":"m 368 193 q 408 157 408 193 q 368 120 408 120 q 338 130 348 120 q 328 157 328 140 q 338 183 328 173 q 368 193 348 193 m 189 273 q 229 236 229 273 q 189 200 229 200 q 159 210 170 200 q 149 236 149 220 q 159 263 149 253 q 189 273 170 273 m 548 273 q 578 263 568 273 q 588 236 588 253 q 578 210 588 220 q 548 200 568 200 q 508 236 508 200 q 548 273 508 273 m 611 381 q 572 417 572 381 q 611 454 572 454 q 642 444 631 454 q 652 420 652 435 q 648 398 652 406 q 611 381 638 381 m 123 454 q 153 444 142 454 q 163 417 163 434 q 153 391 163 401 q 123 381 142 381 q 83 417 83 381 q 123 454 83 454 m 189 635 q 229 599 229 635 q 189 563 229 563 q 159 573 170 563 q 149 599 149 583 q 159 626 149 616 q 189 635 170 635 m 548 635 q 578 626 568 635 q 588 599 588 616 q 578 573 588 583 q 548 563 568 563 q 508 599 508 563 q 548 635 508 635 m 408 677 q 368 642 408 642 q 338 652 348 642 q 328 678 328 662 q 368 714 328 714 q 408 677 408 714 z "}}}
